<svg width="83" height="86" viewBox="0 0 83 86" fill="none" xmlns="http://www.w3.org/2000/svg">
<rect width="83" height="86" rx="15" fill="#9180FF"/>
<path d="M62.2493 42.4987C62.2358 41.03 61.644 39.6258 60.6023 38.5904L48.626 26.5862C48.103 26.0663 47.3954 25.7744 46.6579 25.7744C45.9204 25.7744 45.2128 26.0663 44.6898 26.5862C44.4281 26.8457 44.2204 27.1545 44.0787 27.4947C43.937 27.8349 43.864 28.1998 43.864 28.5683C43.864 28.9368 43.937 29.3017 44.0787 29.6419C44.2204 29.9821 44.4281 30.2908 44.6898 30.5504L53.8743 39.707H25.9577C25.2173 39.707 24.5072 40.0011 23.9837 40.5247C23.4601 41.0482 23.166 41.7583 23.166 42.4987C23.166 43.2391 23.4601 43.9492 23.9837 44.4727C24.5072 44.9962 25.2173 45.2904 25.9577 45.2904H53.8743L44.6898 54.4749C44.1641 54.9969 43.8673 55.7063 43.8647 56.4471C43.8621 57.1879 44.1538 57.8995 44.6758 58.4251C45.1978 58.9508 45.9072 59.2476 46.648 59.2502C47.3888 59.2528 48.1003 58.9611 48.626 58.4391L60.6023 46.4349C61.6508 45.3927 62.2431 43.9771 62.2493 42.4987V42.4987Z" fill="white"/>
</svg>
