<svg width="131" height="131" viewBox="0 0 131 131" fill="none" xmlns="http://www.w3.org/2000/svg">
<g filter="url(#filter0_d_1599_8952)">
<rect x="4" width="123" height="123" rx="61.5" fill="white"/>
<path d="M73.2102 91.7916H55.5577C55.5643 91.6687 55.5774 91.5475 55.5774 91.4246C55.5774 81.6588 55.5774 71.893 55.5774 62.1288C55.5774 61.9666 55.5544 61.8044 55.543 61.6422C55.5544 60.0039 55.5659 58.3673 55.5774 56.729C61.449 56.729 67.319 56.729 73.1906 56.729C73.202 58.3673 73.2135 60.0039 73.225 61.6422C73.2135 61.8667 73.1906 62.0895 73.1906 62.3139C73.1889 71.9356 73.1906 81.5588 73.1906 91.1805C73.1906 91.3836 73.2037 91.5884 73.2102 91.7916Z" fill="#9180FF"/>
<path d="M55.5437 61.6405C55.5551 61.8027 55.5781 61.9649 55.5781 62.1271C55.5797 71.8929 55.5781 81.6587 55.5781 91.4229C55.5781 91.5458 55.565 91.667 55.5584 91.7899H41.094C41.0055 91.7489 40.922 91.6932 40.8286 91.667C39.2542 91.2132 38.0337 89.7273 38.032 88.1955C38.0271 79.3389 38.0337 70.4824 38.037 61.6274C43.8725 61.6324 49.7081 61.6356 55.5437 61.6405Z" fill="#F5F5F5"/>
<path d="M90.7335 61.6274C90.7368 70.502 90.745 79.375 90.7368 88.2496C90.7368 89.783 89.3311 91.3869 87.8239 91.6736C87.7305 91.6916 87.6453 91.7506 87.5552 91.7899H73.212C73.2055 91.5868 73.1924 91.382 73.1924 91.1788C73.1924 81.5572 73.1924 71.9339 73.1924 62.3122C73.1924 62.0878 73.2153 61.865 73.2268 61.6405C79.0624 61.6356 84.8979 61.6324 90.7335 61.6274Z" fill="#F5F5F5"/>
<path d="M33.0026 42.0188C33.3041 41.2848 33.6727 40.6099 34.2739 40.0529C34.9702 39.4074 35.7664 39.083 36.6953 39.0797C40.0571 39.0666 43.4188 39.065 46.7806 39.0601C48.0322 39.065 49.2855 39.0715 50.5372 39.0764C50.5437 39.3418 50.5552 39.6072 50.5552 39.8726C50.5601 45.4494 50.5634 51.0261 50.5667 56.6045C46.3907 56.6061 42.2147 56.6094 38.0387 56.611C37.7946 56.611 37.5521 56.6077 37.308 56.611C36.6003 56.6143 35.904 56.6241 35.2258 56.3227C33.9921 55.7755 33.363 54.7745 33.001 53.5441V42.0204L33.0026 42.0188Z" fill="#F5F5F5"/>
<path d="M50.5666 56.6031C50.5633 51.0264 50.56 45.4497 50.5551 39.8713C50.5551 39.6059 50.5437 39.3405 50.5371 39.0751C50.7878 39.0718 51.0384 39.0702 51.2907 39.0669C54.9588 39.0669 58.6253 39.0702 62.2934 39.0718C63.6893 39.0718 65.0834 39.0718 66.4793 39.0718C70.1474 39.0718 73.8139 39.0685 77.482 39.0669C77.7326 39.0702 77.9849 39.0718 78.2356 39.0751C78.229 39.3405 78.2176 39.6059 78.2176 39.8713C78.2126 45.448 78.2094 51.0264 78.2061 56.6031C76.748 56.6064 75.2883 56.6064 73.8302 56.6162C73.6156 56.6162 73.3797 56.5408 73.1946 56.726C67.323 56.726 61.453 56.726 55.5814 56.726C55.3963 56.5408 55.1603 56.6162 54.9457 56.6162C53.4877 56.6064 52.0279 56.6064 50.5699 56.6031H50.5666Z" fill="#ADA1FF"/>
<path d="M50.5657 56.6027C52.0238 56.6059 53.4835 56.6059 54.9416 56.6158C55.1562 56.6158 55.3921 56.5404 55.5772 56.7255C55.5658 58.3638 55.5543 60.0005 55.5428 61.6387C49.7073 61.6338 43.8717 61.6306 38.0361 61.6256C38.0361 59.9529 38.0361 58.2803 38.0394 56.6076C42.2154 56.6059 46.3914 56.6027 50.5674 56.601L50.5657 56.6027Z" fill="#E6E6E6"/>
<path d="M73.1924 56.7275C73.3775 56.5424 73.6134 56.6177 73.828 56.6177C75.2861 56.6079 76.7458 56.6079 78.2039 56.6046C82.3799 56.6062 86.5559 56.6079 90.7319 56.6095C90.7319 58.2822 90.7335 59.9549 90.7351 61.6276C84.8996 61.6325 79.064 61.6358 73.2284 61.6407C73.217 60.0024 73.2055 58.3658 73.194 56.7275H73.1924Z" fill="#E6E6E6"/>
<path d="M90.7301 56.6094C86.5541 56.6077 82.3781 56.6061 78.2021 56.6044C78.2054 51.0277 78.2087 45.4494 78.2136 39.8726C78.2136 39.6072 78.2251 39.3418 78.2316 39.0764C79.4833 39.0715 80.7349 39.065 81.9866 39.0601C85.3139 39.0666 88.6413 39.0715 91.9687 39.0781C94.0968 39.0814 95.7596 40.7344 95.7629 42.8723C95.7695 46.221 95.7678 49.5697 95.7629 52.9167C95.7596 54.9629 94.1132 56.6061 92.0751 56.6094C91.6263 56.6094 91.1774 56.6094 90.7285 56.611L90.7301 56.6094Z" fill="#F5F5F5"/>
<path d="M81.9889 39.06C80.7373 39.0649 79.4856 39.0714 78.234 39.0764C77.9833 39.0731 77.731 39.0714 77.4804 39.0682C77.5951 39.0321 77.7081 38.9895 77.8244 38.96C79.7003 38.4817 80.9077 36.7303 80.6767 34.8185C80.4555 32.9836 78.8844 31.5779 76.9856 31.5566C72.4984 31.5075 68.3207 34.1435 66.4777 39.0731C65.0818 39.0731 63.6877 39.0731 62.2918 39.0731C62.0641 38.3506 61.6971 37.6904 61.3121 37.0498C59.1807 33.5095 56.0516 31.6336 51.9051 31.5599C49.3314 31.514 47.5145 33.8814 48.2173 36.3306C48.6597 37.8739 49.7819 38.6979 51.2891 39.0682C51.0385 39.0714 50.7878 39.0731 50.5355 39.0764C49.2839 39.0714 48.0306 39.0649 46.7789 39.06C45.3389 36.8893 45.0997 34.6251 46.3333 32.2939C47.5931 29.9151 50.2046 28.7191 53.0699 29.0697C58.1568 29.6923 61.8118 32.3021 64.071 36.8876C64.1497 37.0482 64.243 37.2022 64.3856 37.461C64.5691 37.1137 64.7181 36.8385 64.8607 36.56C66.802 32.7493 69.846 30.3263 74.0089 29.3482C75.444 29.0107 76.9119 28.8453 78.3749 29.1926C82.5705 30.1887 84.5266 34.9823 82.2429 38.6422C82.156 38.7798 82.0725 38.9191 81.9857 39.0583L81.9889 39.06Z" fill="#9180FF"/>
</g>
<defs>
<filter id="filter0_d_1599_8952" x="0" y="0" width="131" height="131" filterUnits="userSpaceOnUse" color-interpolation-filters="sRGB">
<feFlood flood-opacity="0" result="BackgroundImageFix"/>
<feColorMatrix in="SourceAlpha" type="matrix" values="0 0 0 0 0 0 0 0 0 0 0 0 0 0 0 0 0 0 127 0" result="hardAlpha"/>
<feOffset dy="4"/>
<feGaussianBlur stdDeviation="2"/>
<feComposite in2="hardAlpha" operator="out"/>
<feColorMatrix type="matrix" values="0 0 0 0 0 0 0 0 0 0 0 0 0 0 0 0 0 0 0.25 0"/>
<feBlend mode="normal" in2="BackgroundImageFix" result="effect1_dropShadow_1599_8952"/>
<feBlend mode="normal" in="SourceGraphic" in2="effect1_dropShadow_1599_8952" result="shape"/>
</filter>
</defs>
</svg>
