<svg width="31" height="32" viewBox="0 0 31 32" fill="none" xmlns="http://www.w3.org/2000/svg">
<path d="M24.5416 0H6.45835C2.89329 0.0044375 0.00429883 2.98663 0 6.66669V25.3334C0.00429883 29.0134 2.89329 31.9956 6.45835 32H24.5417C28.1067 31.9956 30.9958 29.0134 31 25.3333V6.66669C30.9958 2.98663 28.1067 0.0044375 24.5416 0ZM25.8334 10.772L13.8802 23.1107C12.8716 24.1523 11.2359 24.1526 10.2269 23.1114L10.2261 23.1107L5.16665 17.8894C4.6612 17.3676 4.6612 16.5218 5.16665 16.0001C5.67209 15.4784 6.49153 15.4783 6.99692 16.0001L12.0551 21.2214L24.0094 8.88269C24.5149 8.36281 25.3329 8.36431 25.8365 8.886C26.3402 9.40775 26.3387 10.2521 25.8334 10.772Z" fill="#DDDDDD"/>
</svg>
