<svg width="75" height="75" viewBox="0 0 75 75" fill="none" xmlns="http://www.w3.org/2000/svg">
<path d="M16.5337 49.3442C16.8242 49.6371 17.1698 49.8696 17.5506 50.0282C17.9314 50.1869 18.3399 50.2686 18.7524 50.2686C19.1649 50.2686 19.5734 50.1869 19.9542 50.0282C20.335 49.8696 20.6806 49.6371 20.9711 49.3442L35.2837 35.0317C35.5742 34.7388 35.9198 34.5063 36.3006 34.3477C36.6814 34.189 37.0899 34.1073 37.5024 34.1073C37.9149 34.1073 38.3234 34.189 38.7042 34.3477C39.085 34.5063 39.4306 34.7388 39.7212 35.0317L54.0337 49.3442C54.3242 49.6371 54.6698 49.8696 55.0506 50.0282C55.4314 50.1869 55.8399 50.2686 56.2524 50.2686C56.6649 50.2686 57.0734 50.1869 57.4542 50.0282C57.835 49.8696 58.1806 49.6371 58.4712 49.3442C59.0532 48.7587 59.3799 47.9666 59.3799 47.1411C59.3799 46.3155 59.0532 45.5235 58.4712 44.9379L44.1274 30.5942C42.3696 28.8386 39.9868 27.8525 37.5024 27.8525C35.018 27.8525 32.6352 28.8386 30.8774 30.5942L16.5337 44.9379C15.9516 45.5234 15.6249 46.3155 15.6249 47.1411C15.6249 47.9666 15.9516 48.7587 16.5337 49.3442Z" fill="#5643D1"/>
</svg>
