<svg width="380" height="205" viewBox="0 0 380 205" fill="none" xmlns="http://www.w3.org/2000/svg">
<g clip-path="url(#clip0_1599_8901)">
<rect width="380" height="205" fill="#9180FF"/>
<g filter="url(#filter0_f_1599_8901)">
<path d="M239.063 75.2131C254.202 74.5282 265.917 61.7454 265.23 46.662C264.543 31.5787 251.713 19.9064 236.574 20.5914C221.435 21.2763 209.719 34.059 210.407 49.1424C211.094 64.2258 223.924 75.898 239.063 75.2131Z" fill="#8572FF"/>
<path d="M62.0203 60.5052C106.038 108.763 47.0373 179.392 75.6031 259.198C96.9446 318.835 145.338 340.744 173.029 347.056L171.136 266C171.136 208.97 187.657 158.332 220.485 116.088C153.967 60.1611 60.4165 58.747 62.0203 60.5052Z" fill="#8572FF"/>
<path d="M240.947 134.128C214.761 166.784 198.292 210.621 198.292 266.001V347.594H287.197C290.102 347.594 293.002 347.368 295.869 346.91C314.675 343.898 378.458 328.593 405.638 257.389C435.873 178.191 377.129 60.3833 429.969 16.1884C432.027 14.4679 330.599 22.3302 240.942 134.128H240.947Z" fill="#8572FF"/>
</g>
<g opacity="0.4">
<path d="M52.4621 1.90283H49.4429C48.646 1.90283 48 2.54886 48 3.34578C48 4.1427 48.646 4.78873 49.4429 4.78873H52.4621C53.259 4.78873 53.905 4.1427 53.905 3.34578C53.905 2.54886 53.259 1.90283 52.4621 1.90283Z" fill="#ADA1FF"/>
<path d="M57.5938 -0.192213V-3.21135C57.5938 -4.00827 56.9477 -4.6543 56.1508 -4.6543C55.3539 -4.6543 54.7079 -4.00827 54.7079 -3.21135V-0.192213C54.7079 0.604706 55.3539 1.25073 56.1508 1.25073C56.9477 1.25073 57.5938 0.604706 57.5938 -0.192213Z" fill="#ADA1FF"/>
<path d="M59.8387 4.78857L62.8578 4.78857C63.6548 4.78857 64.3008 4.14254 64.3008 3.34563C64.3008 2.54871 63.6548 1.90268 62.8578 1.90268L59.8387 1.90268C59.0418 1.90268 58.3957 2.54871 58.3957 3.34563C58.3957 4.14254 59.0418 4.78857 59.8387 4.78857Z" fill="#ADA1FF"/>
<path d="M54.707 6.88362V9.90275C54.707 10.6997 55.3531 11.3457 56.15 11.3457C56.9469 11.3457 57.5929 10.6997 57.5929 9.90275V6.88362C57.5929 6.0867 56.9469 5.44067 56.15 5.44067C55.3531 5.44067 54.707 6.0867 54.707 6.88362Z" fill="#ADA1FF"/>
<path d="M184.643 183.744L181.839 182.625C181.099 182.33 180.26 182.69 179.964 183.431C179.669 184.171 180.03 185.01 180.77 185.305L183.574 186.424C184.314 186.719 185.154 186.359 185.449 185.619C185.744 184.878 185.384 184.039 184.643 183.744Z" fill="#816EFF"/>
<path d="M190.187 183.699L191.305 180.895C191.6 180.155 191.24 179.315 190.5 179.02C189.759 178.725 188.92 179.085 188.625 179.826L187.506 182.63C187.211 183.37 187.571 184.209 188.312 184.505C189.052 184.8 189.891 184.439 190.187 183.699Z" fill="#816EFF"/>
<path d="M190.426 189.157L193.23 190.276C193.97 190.571 194.81 190.211 195.105 189.47C195.4 188.73 195.04 187.891 194.299 187.595L191.495 186.477C190.755 186.181 189.916 186.542 189.62 187.282C189.325 188.023 189.686 188.862 190.426 189.157Z" fill="#816EFF"/>
<path d="M184.883 189.202L183.764 192.006C183.469 192.746 183.83 193.586 184.57 193.881C185.31 194.176 186.149 193.815 186.445 193.075L187.563 190.271C187.859 189.531 187.498 188.691 186.758 188.396C186.018 188.101 185.178 188.462 184.883 189.202Z" fill="#816EFF"/>
<path d="M233.98 3.88961L230.13 6.0642C229.114 6.6382 228.755 7.92739 229.329 8.94369C229.903 9.95999 231.193 10.3185 232.209 9.74455L236.059 7.56995C237.075 6.99596 237.434 5.70676 236.86 4.69047C236.286 3.67417 234.997 3.31561 233.98 3.88961Z" fill="#ADA1FF"/>
<path d="M239.017 -2.47851L236.842 -6.32877C236.268 -7.34507 234.979 -7.70363 233.963 -7.12963C232.946 -6.55563 232.588 -5.26644 233.162 -4.25014L235.336 -0.39988C235.91 0.616419 237.199 0.974975 238.216 0.400978C239.232 -0.17302 239.591 -1.46221 239.017 -2.47851Z" fill="#ADA1FF"/>
<path d="M245.467 2.25639L249.317 0.0817943C250.333 -0.492203 250.692 -1.78139 250.118 -2.79769C249.544 -3.81399 248.255 -4.17255 247.238 -3.59855L243.388 -1.42396C242.372 -0.84996 242.013 0.439231 242.587 1.45553C243.161 2.47183 244.45 2.83039 245.467 2.25639Z" fill="#ADA1FF"/>
<path d="M240.432 8.6245L242.606 12.4748C243.18 13.4911 244.469 13.8496 245.486 13.2756C246.502 12.7016 246.861 11.4124 246.287 10.3961L244.112 6.54588C243.538 5.52958 242.249 5.17102 241.232 5.74502C240.216 6.31902 239.858 7.6082 240.432 8.6245Z" fill="#ADA1FF"/>
<path d="M94.9828 59.113L90.7411 60.3627C89.6215 60.6926 88.9813 61.8676 89.3111 62.9872C89.641 64.1068 90.816 64.747 91.9356 64.4172L96.1773 63.1675C97.2969 62.8376 97.9371 61.6626 97.6073 60.543C97.2774 59.4234 96.1024 58.7832 94.9828 59.113Z" fill="#ADA1FF"/>
<path d="M101.325 54.0453L100.076 49.8036C99.7459 48.684 98.5709 48.0438 97.4513 48.3736C96.3317 48.7035 95.6914 49.8785 96.0213 50.9981L97.271 55.2398C97.6008 56.3594 98.7759 56.9996 99.8955 56.6698C101.015 56.3399 101.655 55.1649 101.325 54.0453Z" fill="#ADA1FF"/>
<path d="M106.542 60.114L110.783 58.8644C111.903 58.5345 112.543 57.3595 112.213 56.2399C111.883 55.1202 110.708 54.48 109.589 54.8099L105.347 56.0595C104.228 56.3894 103.587 57.5644 103.917 58.684C104.247 59.8037 105.422 60.4439 106.542 60.114Z" fill="#ADA1FF"/>
<path d="M100.199 65.1813L101.449 69.423C101.778 70.5426 102.954 71.1828 104.073 70.8529C105.193 70.5231 105.833 69.348 105.503 68.2284L104.253 63.9868C103.924 62.8672 102.749 62.2269 101.629 62.5568C100.509 62.8867 99.8691 64.0617 100.199 65.1813Z" fill="#ADA1FF"/>
<path d="M24.51 129.907L22.3597 132.026C21.7921 132.586 21.7855 133.499 22.3449 134.067C22.9043 134.634 23.8179 134.641 24.3855 134.082L26.5358 131.962C27.1033 131.403 27.11 130.489 26.5505 129.922C25.9911 129.354 25.0775 129.347 24.51 129.907Z" fill="#ADA1FF"/>
<path d="M26.6947 124.813L24.5754 122.662C24.016 122.095 23.1024 122.088 22.5348 122.648C21.9672 123.207 21.9606 124.121 22.52 124.688L24.6394 126.839C25.1988 127.406 26.1124 127.413 26.68 126.853C27.2475 126.294 27.2542 125.38 26.6947 124.813Z" fill="#ADA1FF"/>
<path d="M31.7898 126.784L33.9401 124.665C34.5077 124.105 34.5143 123.192 33.9549 122.624C33.3955 122.057 32.4819 122.05 31.9143 122.609L29.764 124.729C29.1965 125.288 29.1898 126.202 29.7493 126.769C30.3087 127.337 31.2223 127.344 31.7898 126.784Z" fill="#ADA1FF"/>
<path d="M29.6051 131.878L31.7244 134.028C32.2838 134.596 33.1974 134.603 33.765 134.043C34.3326 133.484 34.3392 132.57 33.7798 132.003L31.6604 129.852C31.101 129.285 30.1874 129.278 29.6198 129.838C29.0523 130.397 29.0457 131.311 29.6051 131.878Z" fill="#ADA1FF"/>
<path d="M318.771 141.297H310.806C308.704 141.297 307 143.001 307 145.103C307 147.205 308.704 148.91 310.806 148.91H318.771C320.873 148.91 322.577 147.205 322.577 145.103C322.577 143.001 320.873 141.297 318.771 141.297Z" fill="#ADA1FF"/>
<path d="M332.308 135.771V127.806C332.308 125.704 330.603 124 328.501 124C326.399 124 324.695 125.704 324.695 127.806V135.771C324.695 137.873 326.399 139.577 328.501 139.577C330.603 139.577 332.308 137.873 332.308 135.771Z" fill="#ADA1FF"/>
<path d="M338.229 148.91H346.194C348.296 148.91 350 147.205 350 145.103C350 143.001 348.296 141.297 346.194 141.297H338.229C336.127 141.297 334.423 143.001 334.423 145.103C334.423 147.205 336.127 148.91 338.229 148.91Z" fill="#ADA1FF"/>
<path d="M324.692 154.436V162.4C324.692 164.502 326.397 166.207 328.499 166.207C330.601 166.207 332.305 164.502 332.305 162.4V154.436C332.305 152.334 330.601 150.63 328.499 150.63C326.397 150.63 324.692 152.334 324.692 154.436Z" fill="#ADA1FF"/>
<path d="M2.10928 36.3439L-8.03797 33.4305C-10.7164 32.6615 -13.5111 34.2094 -14.2801 36.8878C-15.0491 39.5662 -13.5012 42.3609 -10.8228 43.1299L-0.675521 46.0433C2.00291 46.8123 4.7976 45.2644 5.5666 42.586C6.33561 39.9076 4.78771 37.1129 2.10928 36.3439Z" fill="#816EFF"/>
<path d="M21.3778 34.2548L24.2912 24.1075C25.0602 21.4291 23.5123 18.6344 20.8339 17.8654C18.1554 17.0964 15.3607 18.6443 14.5917 21.3227L11.6784 31.47C10.9094 34.1484 12.4573 36.9431 15.1357 37.7121C17.8141 38.4811 20.6088 36.9332 21.3778 34.2548Z" fill="#816EFF"/>
<path d="M24.1173 53.1615L34.2645 56.0749C36.943 56.8439 39.7377 55.296 40.5067 52.6176C41.2757 49.9391 39.7278 47.1444 37.0493 46.3754L26.9021 43.4621C24.2237 42.6931 21.429 44.241 20.66 46.9194C19.891 49.5978 21.4388 52.3925 24.1173 53.1615Z" fill="#816EFF"/>
<path d="M4.84777 55.2506L1.93439 65.3978C1.16539 68.0763 2.71329 70.871 5.39171 71.64C8.07014 72.409 10.8648 70.8611 11.6338 68.1826L14.5472 58.0354C15.3162 55.357 13.7683 52.5623 11.0899 51.7933C8.41147 51.0243 5.61677 52.5721 4.84777 55.2506Z" fill="#816EFF"/>
<ellipse cx="377.264" cy="33.4145" rx="5.07258" ry="9.13064" transform="rotate(-25.4036 377.264 33.4145)" fill="#816EFF"/>
<ellipse cx="206.282" cy="146.702" rx="5.07258" ry="9.13064" transform="rotate(-129.202 206.282 146.702)" fill="#E3DFFF"/>
<ellipse cx="144.327" cy="143.208" rx="3.97917" ry="4.369" transform="rotate(-26.2234 144.327 143.208)" fill="#E3DFFF"/>
<ellipse cx="59.5" cy="82.6778" rx="3.97917" ry="4.369" transform="rotate(8.22186 59.5 82.6778)" fill="#E3DFFF"/>
<ellipse cx="113.019" cy="131.343" rx="2.81204" ry="3.08753" transform="rotate(-121.841 113.019 131.343)" fill="#ADA1FF"/>
<ellipse cx="278.5" cy="76.6777" rx="3.97917" ry="4.369" transform="rotate(-26.2234 278.5 76.6777)" fill="#816EFF"/>
</g>
</g>
<defs>
<filter id="filter0_f_1599_8901" x="52" y="6" width="388" height="351.594" filterUnits="userSpaceOnUse" color-interpolation-filters="sRGB">
<feFlood flood-opacity="0" result="BackgroundImageFix"/>
<feBlend mode="normal" in="SourceGraphic" in2="BackgroundImageFix" result="shape"/>
<feGaussianBlur stdDeviation="5" result="effect1_foregroundBlur_1599_8901"/>
</filter>
<clipPath id="clip0_1599_8901">
<rect width="380" height="205" fill="white"/>
</clipPath>
</defs>
</svg>
