<svg width="46" height="47" viewBox="0 0 46 47" fill="none" xmlns="http://www.w3.org/2000/svg">
<path d="M24.7995 46.0175H21.2065C21.1216 45.8998 20.9906 45.9398 20.8765 45.9229C20.1657 45.8234 19.4488 45.7567 18.7464 45.6184C13.0997 44.5095 8.45371 41.7156 4.9116 37.1868C0.935228 32.1036 -0.628392 26.2961 0.226807 19.9087C1.04804 13.787 3.95087 8.76931 8.80306 4.95144C13.8882 0.950384 19.7084 -0.596417 26.1145 0.237036C31.1086 0.886086 35.4234 3.02734 39.0335 6.54677C42.5816 10.0068 44.7845 14.1886 45.6616 19.0716C45.7901 19.7862 45.7926 20.5201 46 21.2214V24.725C45.8484 25.1666 45.869 25.6325 45.8035 26.085C45.0708 31.1852 42.9213 35.5902 39.2833 39.2419C35.8553 42.6825 31.737 44.8237 26.9491 45.6802C26.2346 45.8076 25.5007 45.8088 24.7995 46.0175ZM40.5182 23.0387C40.3799 13.2641 32.8263 5.58229 23.1134 5.53255C13.2416 5.4816 5.53875 13.2435 5.5157 22.9501C5.49265 32.8096 13.2428 40.4903 22.9812 40.506C32.7899 40.5218 40.3702 32.7635 40.5182 23.0399V23.0387Z" fill="white"/>
<path d="M40.5182 23.0388C40.3702 32.7637 32.7899 40.5207 22.9812 40.505C13.2428 40.4892 5.49384 32.8086 5.51567 22.9491C5.53872 13.2424 13.2416 5.48175 23.1134 5.53149C32.8263 5.58123 40.3799 13.2631 40.5182 23.0376V23.0388ZM21.8348 27.911C21.8348 28.9288 21.8385 29.9467 21.8312 30.9645C21.8312 31.1186 21.9112 31.3297 21.7281 31.4122C21.5582 31.4886 21.4272 31.3127 21.2999 31.2229C20.2324 30.4659 19.5446 29.4444 19.2256 28.1791C19.1503 27.8806 19.0121 27.7375 18.6967 27.7787C18.4019 27.8176 18.1035 27.8406 17.8075 27.8709C16.888 27.9656 15.9685 28.0553 15.0502 28.1572C14.7785 28.1876 14.6111 28.2871 14.7191 28.6292C14.8477 29.0416 14.901 29.4772 15.0211 29.8921C15.516 31.6039 16.387 33.0742 17.8403 34.1528C18.9211 34.9547 20.156 35.389 21.4758 35.5819C21.7766 35.6256 21.8445 35.7505 21.8385 36.0162C21.8263 36.51 21.8409 37.0037 21.8336 37.4975C21.83 37.745 21.9343 37.8481 22.1818 37.8457C22.7507 37.8384 23.3196 37.8335 23.8885 37.8481C24.1954 37.8554 24.2718 37.7122 24.2658 37.4368C24.2536 36.9127 24.2658 36.3886 24.2621 35.8646C24.2609 35.662 24.307 35.5382 24.5484 35.4994C24.9463 35.4363 25.3393 35.3392 25.7275 35.2301C27.8964 34.6174 29.5571 33.3533 30.5663 31.3224C31.4009 29.6458 31.5404 27.8661 31.1935 26.0342C30.8259 24.0992 29.7633 22.6907 28.0359 21.7553C26.9648 21.1754 25.8379 20.7459 24.6673 20.4269C24.4259 20.3614 24.2597 20.2849 24.2609 19.9926C24.267 18.0017 24.2646 16.0109 24.2633 14.0201C24.2633 13.7362 24.3434 13.604 24.6297 13.8029C24.8505 13.9558 25.0773 14.0965 25.2775 14.2821C25.793 14.7565 26.0611 15.3631 26.2564 16.0158C26.3049 16.1771 26.3267 16.387 26.5912 16.3506C27.8455 16.1759 29.101 16.0012 30.3565 15.8374C30.6027 15.8059 30.644 15.7016 30.5991 15.4771C30.3213 14.0953 29.7403 12.8639 28.7577 11.8473C27.6514 10.702 26.2394 10.1598 24.7013 9.91591C24.381 9.86496 24.2439 9.7679 24.2597 9.44762C24.2731 9.1783 24.2476 8.90776 24.2658 8.63965C24.2888 8.31452 24.1736 8.17257 23.8327 8.19199C23.4445 8.21382 23.0551 8.19441 22.6658 8.19684C21.7281 8.2029 21.8409 8.09857 21.836 9.04485C21.8312 9.86132 21.836 9.86132 21.0439 9.98506C21.0294 9.98749 21.0136 9.98749 20.999 9.98991C18.824 10.389 17.1585 11.5209 16.1044 13.4766C15.2492 15.0634 15.1897 16.7691 15.5258 18.4967C15.8812 20.325 16.8237 21.7759 18.3849 22.8265C19.3262 23.4598 20.3391 23.9184 21.4187 24.2399C21.7281 24.3321 21.8482 24.4862 21.8421 24.8149C21.8239 25.8474 21.836 26.881 21.836 27.9134L21.8348 27.911Z" fill="#ADA1FF"/>
<path d="M21.8351 27.9109C21.8351 26.8785 21.8242 25.8449 21.8411 24.8125C21.8472 24.4837 21.7271 24.3296 21.4178 24.2374C20.3382 23.916 19.3241 23.4574 18.3839 22.8241C16.8228 21.7735 15.8802 20.3225 15.5248 18.4943C15.1888 16.7667 15.2482 15.061 16.1034 13.4741C17.1576 11.5185 18.8231 10.3866 20.9981 9.98746C21.0126 9.98504 21.0284 9.98504 21.043 9.98261C21.8351 9.86008 21.8314 9.86008 21.8351 9.0424C21.8399 8.09612 21.7271 8.20045 22.6648 8.19439C23.0542 8.19196 23.4436 8.21016 23.8318 8.18954C24.1726 8.17134 24.2866 8.31328 24.2648 8.6372C24.2466 8.90531 24.2721 9.17585 24.2587 9.44517C24.243 9.76667 24.38 9.86372 24.7003 9.91346C26.2372 10.1561 27.6492 10.6996 28.7567 11.8448C29.7393 12.8615 30.3191 14.0929 30.5981 15.4747C30.643 15.6991 30.6018 15.8034 30.3555 15.835C29.0988 15.9988 27.8445 16.1747 26.5902 16.3482C26.3258 16.3845 26.3039 16.1759 26.2554 16.0133C26.0613 15.3594 25.792 14.754 25.2765 14.2797C25.0763 14.0953 24.8495 13.9546 24.6287 13.8005C24.3424 13.6015 24.2624 13.7338 24.2624 14.0176C24.2624 16.0085 24.266 17.9993 24.26 19.9901C24.26 20.2837 24.4249 20.3589 24.6663 20.4244C25.8369 20.7435 26.9638 21.173 28.035 21.7529C29.7623 22.6882 30.825 24.0967 31.1925 26.0317C31.5407 27.8624 31.4 29.6421 30.5654 31.32C29.5549 33.3508 27.8943 34.615 25.7265 35.2276C25.3384 35.3368 24.9453 35.4339 24.5475 35.4969C24.3061 35.5358 24.26 35.6595 24.2612 35.8621C24.2648 36.3862 24.2527 36.9103 24.2648 37.4344C24.2709 37.7086 24.1932 37.8529 23.8876 37.8457C23.3186 37.8311 22.7497 37.8359 22.1808 37.8432C21.9333 37.8469 21.829 37.7437 21.8326 37.495C21.8399 37.0013 21.8254 36.5063 21.8375 36.0138C21.8436 35.7481 21.7756 35.6231 21.4748 35.5794C20.155 35.3865 18.9201 34.9534 17.8393 34.1503C16.3873 33.073 15.5151 31.6026 15.0202 29.8896C14.9001 29.4735 14.8479 29.038 14.7181 28.6267C14.6114 28.2846 14.7788 28.1851 15.0493 28.1548C15.9676 28.0541 16.887 27.9631 17.8065 27.8685C18.1025 27.8382 18.4009 27.8151 18.6957 27.7763C19.0111 27.735 19.1494 27.8782 19.2246 28.1766C19.5436 29.442 20.2314 30.4647 21.2989 31.2205C21.4263 31.3103 21.5561 31.4862 21.7271 31.4097C21.9115 31.3273 21.8302 31.1162 21.8302 30.9621C21.8363 29.9442 21.8339 28.9264 21.8339 27.9085L21.8351 27.9109ZM24.2624 28.3817C24.2624 29.3534 24.2709 30.3252 24.2575 31.2969C24.2527 31.6657 24.3546 31.7798 24.7318 31.656C26.4859 31.0773 27.4539 29.5111 27.0827 27.6113C26.8134 26.2307 25.7738 25.5756 24.5353 25.1655C24.2248 25.0624 24.2648 25.2929 24.2636 25.4664C24.26 26.4381 24.2624 27.4099 24.2624 28.3817ZM21.8351 16.5508C21.8351 15.6833 21.829 14.8159 21.8387 13.9485C21.8424 13.6379 21.7453 13.5882 21.4675 13.718C21.0951 13.8927 20.7858 14.1341 20.4971 14.4241C18.9347 15.9939 19.5206 18.3839 21.4336 19.3156C21.7308 19.46 21.8411 19.3884 21.8387 19.062C21.8314 18.2249 21.8363 17.3866 21.8363 16.5495L21.8351 16.5508Z" fill="#9180FF"/>
<path d="M24.2609 28.3813C24.2609 27.4096 24.2597 26.4378 24.2621 25.4661C24.2621 25.2938 24.2233 25.0633 24.5338 25.1652C25.7723 25.5753 26.8107 26.2304 27.0812 27.611C27.4524 29.5108 26.4856 31.077 24.7303 31.6557C24.3531 31.7807 24.2512 31.6654 24.256 31.2966C24.2694 30.3249 24.2609 29.3531 24.2609 28.3813Z" fill="#ADA1FF"/>
<path d="M21.8334 16.5509C21.8334 17.388 21.8285 18.2263 21.8358 19.0634C21.8382 19.3885 21.7278 19.4613 21.4306 19.3169C19.5177 18.384 18.9318 15.9953 20.4942 14.4254C20.7829 14.1355 21.0922 13.894 21.4646 13.7193C21.7424 13.5883 21.8394 13.6393 21.8358 13.9499C21.8273 14.8173 21.8322 15.6847 21.8322 16.5521L21.8334 16.5509Z" fill="#ADA1FF"/>
</svg>
