<svg width="75" height="75" viewBox="0 0 75 75" fill="none" xmlns="http://www.w3.org/2000/svg">
<path d="M58.4663 25.6558C58.1758 25.3629 57.8302 25.1304 57.4494 24.9718C57.0686 24.8131 56.6601 24.7314 56.2476 24.7314C55.8351 24.7314 55.4266 24.8131 55.0458 24.9718C54.665 25.1304 54.3194 25.3629 54.0288 25.6558L39.7163 39.9683C39.4258 40.2612 39.0802 40.4937 38.6994 40.6523C38.3186 40.811 37.9101 40.8927 37.4976 40.8927C37.0851 40.8927 36.6766 40.811 36.2958 40.6523C35.915 40.4937 35.5694 40.2612 35.2788 39.9683L20.9663 25.6558C20.6758 25.3629 20.3302 25.1304 19.9494 24.9718C19.5686 24.8131 19.1601 24.7314 18.7476 24.7314C18.3351 24.7314 17.9266 24.8131 17.5458 24.9718C17.165 25.1304 16.8194 25.3629 16.5288 25.6558C15.9468 26.2413 15.6201 27.0334 15.6201 27.8589C15.6201 28.6845 15.9468 29.4765 16.5288 30.0621L30.8726 44.4058C32.6304 46.1614 35.0132 47.1475 37.4976 47.1475C39.982 47.1475 42.3648 46.1614 44.1226 44.4058L58.4663 30.0621C59.0484 29.4765 59.3751 28.6845 59.3751 27.8589C59.3751 27.0334 59.0484 26.2413 58.4663 25.6558V25.6558Z" fill="#5643D1"/>
</svg>
