<svg width="453" height="396" viewBox="0 0 453 396" fill="none" xmlns="http://www.w3.org/2000/svg">
<mask id="mask0_2013_9192" style="mask-type:alpha" maskUnits="userSpaceOnUse" x="0" y="0" width="453" height="396">
<path d="M0 13C0 5.82029 5.8203 0 13 0H440C447.18 0 453 5.8203 453 13V383C453 390.18 447.18 396 440 396H13C5.82029 396 0 390.18 0 383V13Z" fill="#D9D9D9"/>
</mask>
<g mask="url(#mask0_2013_9192)">
<path d="M393.28 644.73C392.48 622.59 391.62 600.45 390.92 578.3C390.43 562.98 390.03 547.65 389.85 532.32C389.8 527.99 388.31 527.06 384.03 526.73C375.81 526.09 367.58 524.66 359.54 522.76C351.57 520.87 348.19 514.13 345.61 507.06C345.5 506.75 345.94 506.23 346.07 505.93C350.36 510.12 353.99 515.43 359.02 518.06C364.18 520.77 370.71 520.86 377.39 522.25C376.78 518.76 376.4 516.53 375.92 513.78C370.42 515.2 365.11 516.57 359.8 517.95L359.29 516.31C364.48 514.4 369.67 512.48 374.91 510.55C374.07 504.16 373.28 498.23 372.49 492.26L374.65 491.91C375.33 495.67 375.5 499.56 376.41 503.27C377.83 509.09 379.26 514.94 381.4 520.51C381.94 521.91 385.17 522.27 387.16 523.11C387.64 522.8 388.12 522.48 388.6 522.17C386.38 509.89 384.16 497.61 382.03 485.84C333.69 512.23 284.98 517.52 233.76 492.7C232.82 500.91 231.88 509.01 230.95 517.12L232.71 517.6C235.22 511.91 237.72 506.22 240.23 500.53C240.53 500.55 240.83 500.57 241.13 500.59C240.82 502.89 240.88 505.32 240.13 507.47C238.87 511.07 237.55 514.8 235.43 517.9C231.48 523.67 230.36 529.84 230.23 536.7C229.71 564.29 232.67 591.55 237.09 618.7C238.5 627.39 240.06 636.06 241.55 644.74H236.56C232.99 617.01 228.57 589.35 226.11 561.52C224.17 539.61 225.77 517.57 229.83 495.82C230.21 493.8 228.89 491.48 228.4 489.28C227.98 487.4 227.16 485.48 227.29 483.64C228.76 462.21 230.39 440.79 231.96 419.36C232.19 416.26 232.38 413.16 232.64 409.4C231.68 410.18 231.18 410.38 231.01 410.74C223.17 426.99 211.3 440.33 199.87 453.98C193.33 461.8 187.3 469.78 184.41 479.9C183.02 484.78 180.46 489.48 177.62 493.72C176 496.15 172.64 497.36 170.28 499.36C168.93 500.51 167.39 502.05 167.1 503.63C166.91 504.69 168.56 506.38 169.75 507.34C171.49 508.75 172.9 510.5 176.01 509.68C178.12 509.12 180.08 515.69 178.43 518.08C177.7 519.13 176.62 520.33 175.48 520.64C167.54 522.81 159.55 526.25 151.56 526.31C145.99 526.35 140.15 527.13 134.47 526.08C128.35 524.95 123.78 519.72 123.21 513.52C121.99 500.22 125.78 489.25 136.2 480.69C147.08 471.75 153.98 460.02 160.49 447.67C171.59 426.63 184.25 406.42 195.44 385.42C205.49 366.56 209.3 345.58 213.43 324.83C213.73 323.33 211.97 321.47 211.39 319.71C210.63 317.4 208.98 314.62 209.64 312.72C217.54 290.1 226 267.67 233.88 245.04C237.75 233.91 245.82 227.16 256.23 223.99C269 220.1 278.26 212.33 286.07 202.11C288.23 199.29 287.53 197.19 285.04 194.87C279.84 190.02 274.59 185.17 269.99 179.78C267.66 177.05 266.05 175.85 262.3 176.85C255.27 178.71 250.57 175.81 248.94 169.18C251.4 169.32 253.76 169.45 256.12 169.58L256.33 168.89C255.06 168.17 253.67 167.6 252.55 166.69C251.45 165.79 250.65 164.53 249.49 163.17L254.62 161.66C250.79 157.55 246.32 154.29 245.42 148.3C245.09 146.12 245.67 143.92 246.74 141.99C248.53 138.78 247.98 136.45 246.58 133.58C245.58 131.52 245.34 129.11 244.53 126.94C243.99 125.48 242.69 124.25 242.38 122.78C241.85 120.27 241.08 117.46 241.71 115.12C246.27 98.0702 254.13 83.0702 270.05 73.9202C278.49 69.0702 286.54 63.1402 296.78 62.2902C307.88 61.3802 318.37 62.2602 326.77 70.9202C327.75 71.9302 329.74 72.2302 331.3 72.3502C336.83 72.7702 341.27 75.0102 344.08 79.8702C353.61 96.3802 358.22 113.88 354.5 133.03C354.17 134.74 353.84 136.79 354.46 138.29C356.75 143.89 356.23 149 353.02 153.35L361.75 157C359.33 160.22 356.91 163.44 354.44 166.74C354.43 166.74 355.21 167.14 355.99 167.55C352.16 173.64 345.79 174.66 338 170.45C331.38 177.85 330.17 186.15 334.56 194.39C334.92 195.07 335.58 195.65 336.22 196.1C341.73 199.96 348.88 202.67 352.4 207.87C357.33 215.17 364.56 215.73 371.25 218.39C376.23 220.38 381.27 222.26 386.48 223.57C401.55 227.35 412.92 236.91 424.21 246.61C431.22 252.63 438.2 258.69 445.19 264.74L446.8 263.84C445.14 253.94 444.32 243.8 441.61 234.2C438.14 221.89 433.23 209.98 428.74 197.96C428.05 196.11 426.76 194.54 425.08 193.5C413.29 186.21 404.99 176.62 402.47 162.44C401.34 156.08 398.95 149.95 397.16 143.72C396.75 142.29 396.04 140.78 396.19 139.38C396.4 137.35 396.7 134.35 397.98 133.65C399.6 132.76 402.64 133.1 404.39 134.09C409.61 137.05 411.88 142.28 413.47 147.85C414.4 151.12 415.54 154.33 416.99 158.84C421.4 147.59 422.1 137.57 420.87 127.22C420.06 120.42 419.92 113.53 419.57 106.68C419.51 105.47 419.64 103.51 419.87 102.32C420.45 99.2102 420.77 95.4602 424.86 95.3002C428.86 95.1402 429.91 98.5702 430.44 101.81C431.79 110.02 433.02 118.25 434.3 126.48C434.66 128.77 435.04 131.05 434.94 133.24C435.67 121.8 436.28 110.35 437.2 98.9202C437.39 96.5202 438.22 93.8002 439.68 91.9902C440.92 90.4502 443.59 89.1602 445.47 89.3502C446.72 89.4802 448.48 92.3402 448.62 94.0902C449.04 99.2102 448.77 104.38 449.65 109.62C450.35 106.45 450.49 102.98 451.93 100.19C453.12 97.8802 455.85 96.3602 457.89 94.4902C459.16 96.5902 461.48 98.6602 461.53 100.78C461.76 110.08 461.33 119.4 461.14 128.71C461.13 129.36 461.14 130.02 461.75 130.8C462.51 127.3 463.18 123.78 464.07 120.32C464.56 118.41 465.11 116.35 466.24 114.82C467.09 113.68 469.04 112.58 470.29 112.78C471.49 112.97 472.86 114.7 473.35 116.05C474.01 117.87 474.23 120.01 474.04 121.95C472.21 140.64 470.31 159.32 468.25 177.98C467.96 180.57 467.22 183.41 465.77 185.5C462.22 190.61 463.41 195.33 465.4 200.56C473.97 223.14 483.16 245.38 495.55 266.25C501.04 275.51 505.88 285.38 509.37 295.55C514.33 310.01 513.08 325.19 510.6 340.02C509.26 348 502.77 350.86 493.89 348.17C486.74 346.01 479.84 343.02 472.68 340.91C459.99 337.17 447.98 332.02 436.99 324.63C434.7 323.09 432.76 322.43 430.25 324.21C426.48 326.88 422.69 326.19 419.19 323.5C412.46 318.34 405.77 313.11 399.04 307.94C396.96 306.34 394.8 304.84 391.63 302.53C389.27 311.98 386.38 320.49 385.13 329.23C381.89 351.79 378.89 374.4 376.71 397.08C374.89 416.02 380.76 433.98 385.91 451.92C387.79 458.47 389.64 465.03 391.57 471.57C392.54 474.84 391.55 477.24 389.11 479.57C387.89 480.74 386.66 483.05 386.98 484.5C396.1 525.17 394.97 566.6 396.43 607.84C396.87 620.15 397.67 632.44 398.3 644.74H393.31L393.28 644.73ZM294.7 253.79L292.31 251.35C284.98 244.71 276.39 243.87 267.15 245.77C261.55 246.92 260.66 245.89 262.61 240.6C264.47 235.56 266.5 230.59 268.73 224.88C262.4 227.32 257.1 229.69 251.59 231.4C245.02 233.45 240.75 237.49 238.41 243.91C230.19 266.42 221.85 288.89 213.72 311.43C213.3 312.58 213.92 315.03 214.84 315.59C219.1 318.16 223.63 320.28 229.15 323.12C229.53 302.61 233.18 284.58 241.09 267.51C240.83 271.92 240.49 276.37 239.2 280.52C230.14 309.76 232.56 339.51 235.22 369.23C236.98 388.88 236.91 408.45 235.22 428.09C233.73 445.5 232.85 462.96 231.59 480.4C231.36 483.61 232.24 485.97 235.19 487.32C244.97 491.8 254.43 497.39 264.63 500.45C285.88 506.81 307.43 506.04 329.18 501.35C346.23 497.67 362.8 493.97 376.79 482.52C386.57 474.52 386.89 474.96 383.62 462.62C376.59 436.06 369.27 409.7 373.1 381.51C376.69 355.1 379.57 328.64 386.56 302.82C386.95 301.39 385.66 299.04 384.47 297.74C382.68 295.78 380.34 294.34 378.21 292.7L379.55 290.54C394.77 298.08 406.68 310.73 421.4 320.16C419.25 298.47 423.99 280.89 444.02 270.3C438.83 265.62 433.7 261.37 429 256.69C416.3 244.03 403.1 232.46 385.03 227.75C375.35 225.23 366.09 221.08 355.9 217.4C356.42 219.7 356.75 221.1 357.06 222.51C358.11 227.38 359.63 232.21 360.08 237.14C360.59 242.87 358.61 244.42 353.06 243.83C350.09 243.52 347.15 242.81 344.18 242.72C331.27 242.31 320.19 247.3 310.18 254.96C308.23 256.45 306.89 258.74 304.74 261.29C302.09 259.3 298.4 256.53 294.72 253.77L294.7 253.79ZM449.13 139.08C448.51 139.11 447.89 139.13 447.27 139.16C446.95 136.49 446.39 133.83 446.35 131.16C446.19 119.83 446.22 108.49 446.09 97.1602C446.07 95.5002 445.61 93.8402 445.26 91.6302C439.91 93.8902 439.65 98.2702 439.43 101.96C438.76 112.92 438.74 123.91 438.26 134.88C438.19 136.42 437 137.91 436.32 139.43C435.14 138.02 433.86 136.68 432.84 135.16C432.42 134.54 432.56 133.54 432.44 132.72C431.02 123.17 429.67 113.6 428.1 104.07C427.77 102.06 426.61 100.18 425.83 98.2502L423.88 98.5102C423.4 101.18 422.43 103.87 422.53 106.51C422.92 116.32 423.63 126.11 424.31 135.9C424.97 145.38 422.45 154.07 417.6 162.75C415 159.39 413.24 155.85 411.61 152.24C409.71 148.04 408.32 143.54 405.94 139.65C404.7 137.63 401.8 136.64 398.71 134.54C398.71 137.52 398.43 138.87 398.75 140.06C401.38 149.86 404.04 159.65 406.87 169.39C407.41 171.26 408.4 173.22 409.74 174.59C415.05 180 420.68 185.09 425.99 190.5C428.39 192.95 430.81 195.61 432.37 198.62C445.7 224.41 451.34 252.19 452.15 280.95C452.58 296.22 456.41 309.8 466.43 321.47C467.86 323.13 468.91 325.12 470.14 326.95L468.84 327.87C461.75 321.22 454.12 314.77 451.82 304.62C449.63 295 448.39 285.17 446.72 275.39C446.29 275.48 445.74 275.45 445.34 275.7C432.72 283.43 426.69 295.19 425.12 309.49C424.97 310.88 426.24 312.99 427.48 313.88C440.1 322.94 453.38 330.74 468.34 335.39C476.1 337.81 483.66 340.9 491.43 343.28C494.85 344.33 498.6 344.87 502.15 344.66C503.84 344.56 506.55 342.37 506.83 340.77C509.58 325.41 511.05 309.91 504.77 295.04C500.69 285.4 496.16 275.87 490.92 266.82C480.2 248.3 471.77 228.83 464.24 208.85C460.57 199.12 458.17 189.95 464.18 180.42C464.77 179.48 464.98 178.22 465.12 177.08C467.07 161.92 469.15 146.78 470.8 131.59C471.38 126.28 470.91 120.87 470.89 115.5L468.95 114.94C463.33 124.49 465.54 136.72 459 146.23C457.77 143.19 457.02 140.19 457.2 137.23C457.79 127.25 458.85 117.31 459.42 107.33C459.6 104.13 458.83 100.88 458.49 97.6502L455.76 97.5702C451.24 110.91 450.97 125.15 449.09 139.04L449.13 139.08ZM217.1 324.57C216.53 327.18 216.03 329.1 215.71 331.06C211.15 359 201.51 385.06 187.3 409.51C178.93 423.9 171.03 438.56 162.57 452.9C158.53 459.75 153.7 466.12 149.23 472.71C148.68 473.53 147.95 474.27 147.58 475.16C144.62 482.33 141.43 489.42 138.93 496.75C137.35 501.39 136.74 506.37 135.97 511.25C135.81 512.25 136.66 514.13 137.44 514.37C138.44 514.69 140.49 514.13 140.93 513.32C142.55 510.33 144.65 507.15 144.86 503.92C145.68 491.06 157.3 487.38 164.44 479.74C164.35 482.19 163.64 484.34 162.27 485.9C159.64 488.89 156.77 491.72 153.73 494.3C150.26 497.24 148.84 500.78 149.05 504.43C151.67 506.04 153.76 507.32 155.98 508.69C159.31 506.36 164.69 505.2 163.89 498.83C163.81 498.17 164.88 496.94 165.66 496.65C176.5 492.73 179.37 483.14 182.81 473.59C184.75 468.21 187.47 462.76 191.11 458.42C206.03 440.65 220.31 422.48 230.45 401.45C231.76 398.74 232.71 395.46 232.57 392.51C231.59 372.38 230.31 352.26 228.99 332.14C228.9 330.74 228 328.76 226.89 328.19C223.98 326.71 220.75 325.86 217.1 324.57ZM312.02 111.31L310.26 110.29C310.94 107.25 311.62 104.21 312.62 99.7302C302.41 108.42 291.55 110.04 280.18 109.95C279.08 109.95 277.89 110.3 276.88 110.78C272.31 112.93 268 116.07 263.21 117.17C256.65 118.68 257.21 122.9 258 127.32C259.88 137.79 262 148.21 264.18 158.62C266.44 169.39 272.19 178.28 279.75 186.02C290.49 197.01 304.92 197.7 317.01 188.39C330.89 177.71 337.24 162.83 340.94 146.42C341.36 144.57 341.06 142.37 340.48 140.52C335.97 126.22 331.31 111.97 326.76 97.8802C321.71 102.47 316.85 106.9 311.99 111.32L312.02 111.31ZM303.7 255.36C306.81 252.51 310.66 249.9 313.29 246.38C318.82 238.99 324.48 231.53 328.68 223.36C335.16 210.76 331.3 198.08 326.34 185.49C316.85 195.4 305.72 201.3 290.66 197.75C290.66 209.26 290.56 220.04 290.69 230.81C290.81 240.89 292.87 250.11 303.7 255.36ZM356.96 239.67C355.16 230.83 353.83 222.03 351.38 213.55C350.62 210.9 346.81 209.17 344.46 206.94C343.38 205.92 342.55 204.64 341.48 203.61C339.98 202.16 338.35 200.85 336.78 199.47L335.23 200.21C335.76 213.18 336.3 226.16 336.85 239.68H356.95L356.96 239.67ZM266.12 242.68C270.95 242.24 275.65 241.82 280.09 241.41C281.44 232.55 282.74 224.07 284.03 215.58C284.61 215.67 285.2 215.76 285.78 215.85C284.82 224.56 283.87 233.27 282.89 242.17C284.64 242.84 286.29 243.48 287.84 244.07V205.96C275.41 214.65 269.86 227.66 266.12 242.68ZM142.44 518.41C133.37 519.89 130.58 517.46 132.05 508.33C132.87 503.21 134.75 498.2 136.67 493.34C138.29 489.25 140.65 485.47 143 480.94C130.36 489.65 125.37 501 127.06 515.43C127.61 520.07 130.81 521.1 134.57 522.01C138.29 522.91 141.05 522.46 142.44 518.42V518.41ZM322.08 243.18C324.82 242.45 328.34 241.6 331.79 240.52C332.72 240.23 334.1 239.23 334.12 238.52C334.3 231.99 334.23 225.46 334.23 220.54C330.53 227.44 326.21 235.49 322.09 243.17L322.08 243.18ZM145.6 521.39C151.16 525.23 153.34 522.33 159.6 516.33C161.42 514.59 164.29 512.31 161.39 508.83C156.04 513.09 150.89 517.18 145.6 521.39ZM346.88 149.12C346.58 149.39 346.11 149.18 346.11 148.78V145.56C345.95 145.56 345.79 145.56 345.63 145.57C344.99 148.23 344.35 150.89 343.6 154.02C348.47 153.74 351.1 151.44 352.12 147.38C353.38 142.36 351.72 138.45 346.57 137.03C347.83 139.16 349.08 141.3 350.25 143.29C350.88 144.35 350.66 145.71 349.75 146.54L346.88 149.13V149.12ZM252.88 141.4L251.44 140.82C248.79 145.55 248.67 149.56 251.84 153.02C253.24 154.55 255.43 155.35 257.33 156.42L258.84 155.19C258.16 153.09 257.48 150.98 256.54 148.09L255.92 149.61C255.54 150.55 254.28 150.74 253.64 149.95L251.74 147.62C251.46 147.28 251.37 146.82 251.49 146.4C251.99 144.6 252.44 143 252.89 141.4H252.88ZM167.74 517.9C168.23 518.38 168.71 518.87 169.2 519.35C172.11 518.26 175.77 517.89 175.51 513.68L173.29 512.83C171.44 514.52 169.59 516.21 167.74 517.9Z" fill="#DDDDDD"/>
<path d="M294.71 253.79C301.44 262.49 297.79 272.58 298.1 282.36C300.86 282.61 303.29 282.83 306.84 283.15V264.17C310.92 268.18 311.9 283.08 308.4 285.2C305.59 286.9 301.16 286.26 297.52 285.93C296.71 285.86 295.72 282.75 295.62 280.99C295.42 277.68 295.91 274.34 295.94 271.02C295.98 265.21 296.29 259.33 292.36 254.31C291.88 253.7 292.32 252.36 292.34 251.36C293.14 252.17 293.94 252.99 294.73 253.8L294.71 253.79Z" fill="#DDDDDD"/>
<path d="M434 155.69C435.39 161.21 436.77 166.73 438.16 172.26C437.71 172.38 437.26 172.5 436.81 172.62C435.26 167.09 433.71 161.56 432.16 156.03C432.77 155.92 433.39 155.81 434 155.69Z" fill="#DDDDDD"/>
<path d="M296.14 136.12C299 142.52 297.54 148.42 291.84 155.06C291.73 155.19 291.72 155.37 291.82 155.51C293.66 158.08 295.54 160.73 297.91 164.05C298.07 164.28 297.93 164.61 297.65 164.63C292.16 165.1 290.87 161.45 289.11 158.5C287.63 156.02 288.05 154.58 290.41 152.33C292.89 149.96 294.15 146.03 295.25 142.56C295.82 140.77 295.55 138.71 295.43 136.28C295.41 135.88 295.98 135.74 296.14 136.11V136.12Z" fill="#DDDDDD"/>
<path d="M307.49 128.91C311.52 119.57 327.32 115.23 332.81 122.22C328.03 122.45 323.55 121.98 319.47 123.04C315.48 124.08 311.89 126.67 307.49 128.9V128.91Z" fill="#DDDDDD"/>
<path d="M265.98 125.3C267.22 120.54 270.48 120.19 273.81 120.31C279.43 120.52 283.61 123.22 286.45 128.33C280.03 124.72 273.73 121.23 265.99 125.3H265.98Z" fill="#DDDDDD"/>
<path d="M292.33 173.63C297.75 173.3 302.51 173.01 308.57 172.65C308.89 172.63 309.15 172.9 309.13 173.21C308.95 175.64 306.56 178.82 303.87 179.18C295.55 180.27 293.04 178.22 291.87 174.28C291.78 173.97 292.02 173.65 292.34 173.63H292.33Z" fill="#DDDDDD"/>
<path d="M281.452 143.207C281.514 140.618 280.199 138.486 278.515 138.446C276.831 138.405 275.415 140.472 275.353 143.061C275.291 145.651 276.606 147.783 278.29 147.823C279.974 147.863 281.39 145.797 281.452 143.207Z" fill="#DDDDDD"/>
<path d="M321.744 146.355C323.422 146.21 324.603 144.001 324.381 141.421C324.159 138.84 322.619 136.865 320.941 137.009C319.262 137.153 318.082 139.362 318.303 141.943C318.525 144.524 320.065 146.499 321.744 146.355Z" fill="#DDDDDD"/>
</g>
</svg>
