<svg width="453" height="396" viewBox="0 0 453 396" fill="none" xmlns="http://www.w3.org/2000/svg">
<mask id="mask0_2013_9196" style="mask-type:alpha" maskUnits="userSpaceOnUse" x="0" y="0" width="453" height="396">
<path d="M0 13C0 5.82029 5.8203 0 13 0H440C447.18 0 453 5.8203 453 13V383C453 390.18 447.18 396 440 396H13C5.82029 396 0 390.18 0 383V13Z" fill="#D9D9D9"/>
</mask>
<g mask="url(#mask0_2013_9196)">
<g clip-path="url(#clip0_2013_9196)">
<path d="M511.571 305.128C508.668 291.529 502.105 278.312 495.133 266.074C481.992 243.015 471.664 218.834 462.387 194.08C460.48 188.991 460.118 184.749 462.954 179.797C465.034 176.169 466.098 171.735 466.705 167.526C468.175 157.359 469.219 147.129 470.221 136.903C471.044 128.518 471.879 120.114 472.065 111.703C472.151 107.767 473.515 101.682 467.767 101.015C462.168 100.368 462.022 106.369 460.941 110.352C459.88 114.246 459.243 118.255 458.417 122.212C458.115 119.364 458.44 116.586 458.503 113.798C458.702 105.188 459.09 96.5642 458.739 87.974C458.646 85.7269 456.138 83.5761 454.742 81.3821C452.576 83.1346 449.684 84.4855 448.424 86.7459C446.861 89.544 446.652 93.0989 445.86 96.3252C445.007 91.3397 445.336 86.3144 444.845 81.3721C444.649 79.3839 442.576 75.9551 441.498 76.0116C439.12 76.131 435.956 77.472 434.719 79.364C432.964 82.0459 432.102 85.6307 431.837 88.9101C431.008 99.2129 430.636 109.552 430.095 119.766C429.644 116.792 429.197 113.665 428.689 110.551C427.425 102.794 426.467 94.961 424.636 87.3401C424.139 85.2689 421.124 82.7828 418.988 82.4874C417.611 82.2982 415.635 85.6805 414.142 87.6255C413.645 88.2761 413.664 89.4345 413.688 90.3572C413.9 98.3997 413.631 106.505 414.547 114.471C415.88 126.079 416.052 137.381 410.686 149.791C409.26 145.563 408.56 142.486 407.213 139.727C404.792 134.765 402.514 129.567 399.097 125.339C397.575 123.457 393.439 123.696 390.491 122.972C389.837 125.876 388.955 128.754 388.627 131.692C388.474 133.059 389.426 134.539 389.824 135.983C391.87 143.379 393.558 150.893 396.046 158.132C397.83 163.33 399.887 168.784 403.223 173.013C407.873 178.904 412.019 185.679 419.86 188.454C421.459 189.018 422.832 191.371 423.515 193.197C428.112 205.458 433.213 217.6 436.732 230.176C439.707 240.811 440.772 251.98 442.682 262.914C440.255 262.914 439.266 262.462 438.473 261.785C430.517 254.967 422.696 247.981 414.63 241.299C404.52 232.925 393.927 225.519 381.393 220.756C371.018 216.813 361.459 210.789 349.964 210.012C348.123 209.889 345.854 208.608 344.693 207.141C339.198 200.19 333.148 194.11 324.501 191.165C323.626 190.867 322.66 189.665 322.461 188.729C320.856 181.251 317.155 173.789 323.791 166.53C326.199 163.895 327.377 159.981 328.631 156.476C329.791 153.23 331.466 151.401 334.939 150.219C346.043 146.449 348.859 135.041 341.334 125.81C340.644 124.963 339.32 123.905 339.476 123.204C341.874 112.357 343.599 101.5 341.224 90.407C345.887 86.8057 342.521 82.8724 341.008 79.7357C338.77 75.0888 335.34 71.0228 332.451 66.6845C332.219 66.336 332.272 65.7983 332.173 65.2208C333.868 65.8249 335.277 66.3294 337.619 67.1625C335.38 60.4145 330.239 58.3101 325.917 55.2266C323.519 53.5139 321.619 51.0078 319.775 48.6412C317.095 45.1992 314.667 41.5613 312.13 38.0098C311.715 38.3151 311.304 38.6205 310.889 38.9226C311.543 42.0194 312.193 45.1162 313.195 49.8627C301.254 39.7158 289.414 40.7116 276.9 43.9445C267.188 46.4506 257.129 47.609 247.228 49.398C246.562 49.5175 245.941 49.9125 244.263 50.6062C247.457 52.4052 249.855 53.7562 252.406 55.1934C235.955 66.648 227.464 77.8338 228.127 87.5226C229.371 86.3609 230.363 85.4382 230.937 84.9004C230.028 91.8376 229.381 98.9009 228.117 105.851C226.701 113.645 233.935 118.01 234.86 125.524C234.446 125.866 233.915 126.377 233.315 126.786C227.617 130.673 225.912 136.265 227.613 142.559C229.255 148.623 232.615 153.386 239.898 153.874C241.155 153.957 242.82 155.842 243.384 157.26C248.628 170.49 256.893 181.304 268.163 189.98C269.746 191.199 271.354 194.206 270.92 195.842C270.12 198.846 268.107 201.704 266.044 204.153C263.593 207.064 260.97 210.862 257.693 211.847C248.19 214.702 239.507 218.722 230.89 223.714C222.509 228.57 217.113 234.953 213.935 243.685C205.295 267.434 196.781 291.23 188.042 314.939C186.655 318.7 187.584 321.262 190.045 324.047C191.236 325.398 192.42 327.725 192.098 329.301C186.765 355.391 181.073 381.39 167.408 404.751C157.956 420.915 147.893 436.758 139.2 453.324C130.288 470.302 121.432 487.077 106.271 499.478C106.129 499.594 106.026 499.764 105.887 499.886C98.749 506.385 94.8286 514.189 95.0044 524.13C95.0442 526.38 93.0675 529.192 91.2201 530.858C84.6961 536.75 77.8869 542.329 71.071 547.889C61.353 555.815 59.2403 565.995 61.7942 577.729C62.829 582.479 64.1855 587.258 64.4144 592.068C65.4558 613.902 69.3132 635.274 75.5055 656.129C84.3511 685.909 93.9663 715.463 103.326 745.094C106.381 754.763 110.945 764.153 112.53 774.041C114.828 788.373 110.44 801.856 102.537 814.058C102.135 814.678 101.648 815.266 101.101 815.76C97.4721 819.066 93.7175 822.243 90.1886 825.655C83.7508 831.878 77.7807 838.633 70.9815 844.422C64.7427 849.736 57.7511 854.187 50.9419 858.797C42.9055 864.238 41.1178 871.782 42.345 880.903C43.5025 889.503 50.3482 890.267 56.5106 892.162C57.7511 892.544 59.0711 892.697 60.368 892.866C82.5535 895.813 103.419 891.973 121.85 879.054C138.045 867.703 155.276 858.459 173.229 850.37C176.267 849.002 179.176 847.157 181.763 845.062C183.013 844.05 184.35 841.66 183.982 840.372C181.222 830.737 178.586 821.001 174.831 811.734C171.833 804.336 166.257 797.913 163.733 790.411C160.301 780.205 154.005 769.726 161.216 758.454C161.647 757.78 161.452 756.602 161.319 755.692C160.652 751.108 160.218 746.461 159.146 741.974C152.841 715.569 151.866 688.581 150.297 661.672C148.964 638.816 147.336 616.056 139.302 594.315C139.074 593.698 139.273 592.924 139.273 591.626C143.923 591.338 148.367 591.155 152.795 590.77C165.455 589.661 178.101 588.403 190.765 587.328C208.645 585.811 226.522 584.188 244.426 583.043C253.046 582.492 252.99 582.967 255.407 591.447C257.921 600.263 261.633 608.87 262.983 617.845C264.761 629.655 264.741 641.737 265.5 653.699C267.304 682.115 268.923 710.544 270.976 738.943C272.581 761.169 274.83 783.345 276.551 805.564C276.959 810.825 276.488 815.999 281.308 819.856C282.412 820.739 282.571 823.302 282.505 825.064C282.18 833.837 281.911 842.629 281.109 851.369C279.775 865.91 278.216 880.405 272.389 894.101C269.689 900.444 267.729 907.135 265.872 913.794C261.998 927.694 266.051 939.239 276.893 948.546C287.278 957.461 298.846 959.456 311.357 953.903C315.924 951.875 320.614 949.472 324.269 946.156C332.723 938.485 336.511 928.285 336.339 917.033C336.229 909.976 335.423 902.727 333.562 895.939C327.224 872.811 326.246 849.075 324.581 825.393C324.342 821.994 323.861 818.738 327.616 816.55C333.891 812.899 336.236 806.855 336.421 799.964C336.66 791.162 336.388 782.346 336.637 773.543C337.277 750.71 337.619 727.851 338.962 705.054C340.047 686.666 340.329 668.407 337.924 650.104C336.392 638.434 335.264 626.701 334.382 614.961C333.96 609.338 335.868 604.312 340.803 600.811C348.12 595.616 355.393 590.355 362.597 584.998C367.691 581.207 373.496 577.941 377.492 573.185C390.746 557.402 396.079 538.695 392.023 518.574C388.444 500.829 382.806 483.483 377.734 466.06C372.438 447.867 366.265 429.565 367.572 410.533C369.287 385.552 372.819 360.668 376.292 335.844C377.688 325.859 381.005 316.144 383.665 305.426C387.071 307.896 389.214 309.373 391.273 310.956C398.547 316.546 405.774 322.198 413.057 327.775C416.427 330.354 420.285 331.549 423.999 329.043C427.687 326.553 430.401 327.678 433.565 329.882C452.065 342.771 474.019 347.262 494.771 354.557C503.451 357.608 510.761 353.243 511.448 344.716C512.509 331.539 514.264 317.757 511.567 305.121L511.571 305.128ZM339.735 137.869C340.398 138.569 341.062 139.273 341.725 139.973C339.144 142.27 336.567 144.567 333.987 146.864C332.402 140.365 337.37 140.388 339.735 137.869ZM84.245 880.127C73.3562 881.826 62.4509 882.742 51.4925 880.236C47.3996 879.3 45.9801 877.096 47.3665 873.452C48.4709 870.554 49.7213 867.162 51.99 865.349C61.9899 857.357 72.3844 849.859 84.3246 840.913C85.6248 853.785 86.8917 865.313 87.7806 876.867C87.8602 877.896 85.6148 879.908 84.2417 880.123L84.245 880.127ZM326.203 195.221C330.262 199.57 334.096 203.237 337.264 207.41C337.967 208.336 336.693 211.277 335.695 212.9C325.854 228.912 318.992 234.388 300.15 241.521C294.654 235.51 296.754 225.337 287.689 221.045C301.758 214.991 317.039 210.792 326.206 195.221H326.203ZM282.415 222.29C282.203 222.798 281.218 222.98 279.905 223.68C276.173 214.035 275.769 204.396 276.074 193.645C291.858 197.057 303.682 190.843 313.646 180.102C315.503 185.383 317.304 189.977 318.651 194.697C319.005 195.945 318.432 198.302 317.476 198.949C311.221 203.191 305.002 207.635 298.259 210.971C292.273 213.929 285.394 215.19 282.415 222.286V222.29ZM232.078 142.323C229.786 137.341 231.278 133.205 236.359 129.517C240.323 134.573 233.199 135.061 232.665 138.569C233.902 140.089 235.245 141.732 237.126 144.042C237.577 141.898 237.872 140.487 238.17 139.077C238.422 139.037 238.678 138.997 238.93 138.957C239.563 141.702 240.197 144.451 240.883 147.431C235.388 149.117 233.61 145.662 232.074 142.323H232.078ZM241.613 124.781C240.001 118.614 238.33 113.32 242.704 108.344C243.421 107.528 244.34 106.197 245.112 106.233C254.383 106.685 258.416 98.6155 264.754 94.3403C265.467 93.859 266.137 93.3147 267.527 93.3777C264.92 97.3177 262.309 101.258 259.703 105.197C260.028 105.619 260.356 106.041 260.681 106.462C264.11 104.036 267.686 101.782 270.926 99.1266C273.51 97.009 276.044 94.6523 277.984 91.9604C281.911 86.5103 285.865 81.3953 293.908 82.099C293.788 81.5879 293.672 81.0734 293.553 80.5622C292.442 80.0378 291.331 79.5133 289.968 78.8694C290.611 78.6935 291.059 78.6039 291.483 78.4445C294.15 77.4521 296.853 81.5779 299.705 78.428C299.881 78.2354 302.919 81.0136 301.579 77.0571C301.5 76.8181 302.916 75.5933 303.526 75.673C306.734 76.0912 310.425 75.9717 312.956 77.5948C315.835 79.4403 317.805 82.8259 319.908 85.7336C321.413 87.8114 322.468 90.2145 323.768 92.4483C324.043 92.9197 324.893 93.3545 324.83 93.6765C322.956 102.997 330.873 110.462 329.695 119.623C329.606 120.31 329.36 120.977 328.949 122.567C320.79 115.607 311.782 116.715 302.75 118.524C300.395 118.996 297.981 119.726 295.898 120.887C288.628 124.937 280.794 124.914 273.291 122.989C262.608 120.25 252.243 117.346 241.62 124.784L241.613 124.781ZM272.671 143.501C274.299 139.993 275.931 136.488 277.56 132.979C278.104 133.281 278.648 133.583 279.192 133.889C279.765 138.844 276.515 141.364 272.671 143.501ZM264.223 181.068C255.523 172.226 249.116 162.049 246.628 149.668C245.67 144.905 244.479 140.185 243.779 137.142C245.427 133.647 246.207 131.446 247.441 129.541C248.598 127.755 250.114 125.056 251.686 124.897C256.82 124.379 262.117 124.363 267.231 125.046C273.802 125.919 272.17 131.642 272.213 135.787C272.266 140.942 269.016 144.049 264.154 145.221C255.984 147.189 251.354 144.822 247.039 136.76C245.713 142.17 249.819 147.282 256.193 148.102C262.227 148.878 267.616 147.179 272.528 143.74C273.925 147.026 275.059 150.465 276.89 153.482C277.533 154.548 279.941 154.541 281.54 155.026C281.145 153.555 281.036 151.916 280.283 150.661C279.148 148.766 277.563 147.143 276.621 145.968C278.614 141.955 280.17 138.39 282.15 135.077C282.83 133.939 285.016 132.462 285.735 132.8C288.711 134.194 292.528 135.585 293.951 138.144C297.712 144.895 300.143 146.598 310.024 146.133C316.899 145.808 321.977 142.356 323.808 136.564C324.269 135.11 324.226 133.494 323.4 131.678C322.823 132.764 322.183 133.822 321.675 134.941C318.239 142.545 310.631 145.918 302.694 143.325C297.142 141.513 295.062 137.165 295.457 128.525C295.679 123.656 299.772 123.772 302.77 123.154C306.936 122.298 311.267 122.079 315.539 121.96C319.795 121.837 323.516 122.909 323.632 128.724C325.645 127.994 327.224 127.423 329.758 126.507C329.758 129.109 329.984 131.091 329.725 133.006C326.959 153.383 319.546 171.257 302.395 183.933C289.944 193.134 275.129 192.145 264.227 181.068H264.223ZM270.545 206.328C273.294 211.675 272.551 214.712 269.076 219.94C266.207 224.248 264.336 229.227 261.59 234.787C259.374 223.007 261.62 213.55 270.545 206.328ZM194.765 308.772C203.02 286.484 211.086 264.122 219.192 241.78C222.19 233.519 228.336 229.466 237.179 228.015C236.95 229.695 236.767 231.013 236.469 233.177C243.345 231.023 249.656 229.044 256.469 226.91C256.469 232.958 256.213 238.368 256.605 243.735C256.744 245.654 258.442 247.456 259.427 249.312C260.777 247.728 262.369 246.291 263.404 244.525C264.379 242.859 264.764 240.851 265.53 238.637C267.746 243.941 269.938 248.621 271.603 253.48C272.213 255.263 271.968 257.586 271.447 259.478C261.981 293.882 259.729 329.132 258.532 364.572C257.513 394.707 256.376 424.859 254.14 454.917C253.062 469.403 260.548 479.745 266.963 491.007C268.522 493.742 269.603 496.753 270.9 499.634C270.276 500.467 269.653 501.304 269.029 502.137C261.129 500.417 252.91 499.554 245.401 496.776C234.413 492.707 223.932 487.263 212.187 481.929C212.569 477.83 213.288 472.526 213.524 467.199C214.655 441.398 216.439 415.595 216.456 389.788C216.469 368.306 213.361 346.814 213.534 325.342C213.643 311.66 217.123 297.995 219.268 284.346C220.157 278.693 221.511 273.117 221.925 267.342C213.282 285.591 209.282 304.958 208.96 325.883C205.74 324.913 203.415 324.406 201.242 323.526C191.637 319.653 191.236 318.285 194.761 308.769L194.765 308.772ZM208.934 463.401C208.433 468.994 208.128 474.614 207.352 480.17C207.156 481.574 205.683 483.692 204.483 483.931C190.791 486.689 177.04 489.149 162.443 491.847C163.78 488.903 164.685 485.488 166.642 482.855C173.229 474.01 180.36 465.569 186.967 456.736C195.67 445.103 204.075 433.243 212.725 421.317C211.481 435.115 210.197 449.255 208.93 463.398L208.934 463.401ZM123.352 487.96C128.155 480.854 133.339 473.976 137.674 466.595C147.521 449.819 156.957 432.802 166.549 415.873C181.093 390.199 190.357 362.683 195.126 333.6C195.332 332.339 195.733 331.11 196.264 328.983C199.988 330.347 203.275 331.2 206.167 332.78C207.411 333.46 208.426 335.608 208.539 337.161C210.045 358.255 211.55 379.355 212.589 400.476C212.778 404.309 211.527 408.551 209.846 412.083C199.209 434.425 183.843 453.497 168.165 472.406C164.105 477.302 161.279 483.496 158.964 489.51C155.229 499.213 152.347 509.207 141.203 513.276C140.284 513.611 138.981 514.879 139.04 515.613C139.578 522.115 134.384 523.801 130.394 526.387C128.135 524.953 125.9 523.536 122.344 521.279C123.949 518.404 125.372 514.893 127.638 512.058C130.304 508.722 133.89 506.133 136.709 502.904C138.37 501.002 139.326 498.482 139.501 495.502C131.677 503.647 119.047 507.604 118.387 521.69C118.235 524.953 116.082 528.233 114.381 531.236C113.877 532.123 111.515 532.713 110.46 532.292C109.588 531.947 108.779 529.796 108.994 528.641C109.973 523.37 110.901 518.026 112.636 512.981C115.23 505.439 118.46 498.114 121.488 490.725C121.9 489.72 122.729 488.886 123.352 487.964V487.96ZM129.223 539.408C126.391 541.875 123.674 542.691 119.472 540.142C125.614 535.382 130.905 531.28 136.327 527.077C137.628 531.678 136.881 532.737 129.226 539.408H129.223ZM115.697 498.154C113.399 502.542 111.226 505.921 109.8 509.588C107.8 514.73 105.727 519.978 104.805 525.371C103.094 535.402 104.759 537.214 114.802 538.353C112.215 542.575 108.338 541.201 105.469 540.022C103.144 539.066 100.268 536.441 99.9099 534.194C97.5848 519.573 101.708 507.275 115.694 498.154H115.697ZM94.6827 877.564C92.8552 867.241 92.1885 857.821 89.3494 849.108C86.8055 841.292 88.3876 836.197 93.6578 830.305C102.228 820.729 107.157 819.08 117.943 826.432C126.769 832.449 133.956 840.359 139.767 850.34C124.599 859.498 109.963 868.333 94.6794 877.564H94.6827ZM169.581 820.211C165.256 822.505 166.294 825.96 168.218 828.709C169.335 830.305 172.198 830.677 175.309 832.058C175.153 832.29 174.569 834.175 173.335 834.816C164.105 839.639 154.745 844.213 145.946 848.607C145.219 844.432 144.901 840.927 143.966 837.594C142.288 831.61 136.871 838.739 133.823 834.68C145.979 827.802 157.883 821.064 169.873 814.28C172.884 816.487 172.685 818.562 169.577 820.208L169.581 820.211ZM164.403 806.261C165.498 809.477 164.41 810.888 162.304 812.202C152.811 818.124 143.289 823.992 133.647 829.665C132.589 830.289 129.919 830.096 129.336 829.299C123.956 821.957 116.427 818.323 107.382 816.603C109.764 810.854 112.51 805.872 113.877 800.535C115.903 792.619 117.492 784.5 118.211 776.374C118.623 771.701 120.387 770.227 124.52 769.882C133.8 769.109 143.067 768.169 153.236 767.213C153.913 769.948 154.596 773.138 155.491 776.268C158.367 786.295 161.04 796.396 164.403 806.261ZM329.208 915.968C327.204 924.777 323.058 933.311 313.622 936.58C307.095 938.84 299.785 941.589 293.321 940.659C282.084 939.049 271.5 922.709 272.94 911.241C273.318 908.231 275.639 904.596 278.17 902.883C287.924 896.288 299.201 894.492 310.77 894.207C326.999 893.676 332.823 900.049 329.204 915.964L329.208 915.968ZM328.325 891.787C327.768 892.139 327.211 892.491 326.657 892.843C309.666 887.741 293.473 889.928 276.93 898.641C279.278 890.662 281.211 883.469 283.613 876.436C284.12 874.952 286.177 873.73 287.788 872.941C299.812 867.042 311.874 868.234 322.063 876.051C325.907 879.001 326.339 886.41 328.329 891.79L328.325 891.787ZM284.21 869.485C285.4 853.424 286.488 838.749 287.497 825.12C298.302 824.247 308.601 823.414 320.219 822.478V869.077C308.508 865.34 296.909 862.263 284.21 869.485ZM384.822 520.233L384.713 520.13C384.696 520.233 384.683 520.339 384.67 520.442C384.716 520.379 384.763 520.316 384.809 520.253C385.993 521.793 388.006 523.297 388.076 524.887C388.995 545.439 383.711 563.526 366.225 576.212C357.483 582.555 348.484 588.539 339.35 594.863C338.567 591.955 337.984 589.781 337.397 587.607C336.786 587.474 336.179 587.345 335.569 587.212C334.693 589.154 333.36 591.016 333.015 593.047C330.199 609.693 328.216 626.342 330.995 643.28C335.606 671.397 333.251 699.72 332.637 727.957C332.126 751.537 330.73 775.096 329.944 798.67C329.622 808.279 325.914 813.639 316.498 815.916C310.873 817.277 305.138 818.329 299.394 819.003C288.896 820.235 283.427 814.718 282.674 804.345C281.006 781.383 278.548 758.48 276.754 735.525C274.827 710.879 273.818 686.155 271.414 661.562C269.507 642.052 266.644 622.591 263.188 603.29C259.795 584.337 260.107 566.45 268.81 548.563C274.575 536.716 277.623 523.546 281.852 510.956C282.067 510.312 281.984 509.569 281.463 508.623C275.109 515.185 272.435 523.728 269.397 532.511C264.299 530.088 263.855 525.959 263.998 521.923C264.137 517.94 265.003 513.98 265.636 509.389C261.198 512.363 258.333 521.514 259.845 526.755C260.562 529.235 261.374 532.146 263.142 533.772C267.557 537.828 266.336 541.546 264.313 546.236C260.628 554.786 257.832 563.715 254.323 572.348C253.669 573.955 251.514 575.857 249.888 576.026C214.366 579.714 178.808 583.079 143.286 586.787C138.215 587.315 135.541 586.037 134.715 580.968C134.493 579.601 133.697 578.323 133.163 577.005C132.583 577.035 132.002 577.065 131.422 577.098C131.422 579.193 131.031 581.377 131.485 583.365C134.579 596.844 138.818 610.138 140.818 623.766C143.286 640.582 143.727 657.686 145.435 674.624C147.425 694.35 149.624 714.059 152.214 733.712C152.911 738.997 155.19 744.112 157.063 749.183C158.689 753.581 158.612 756.794 153.2 758.042C147.568 759.343 142.009 760.973 136.367 762.238C128.752 763.947 121.09 765.444 112.978 767.13C111.452 759.699 110.414 751.742 108.152 744.155C101.31 721.212 94.1388 698.363 86.8188 675.57C76.2816 642.756 70.935 609.012 67.7643 574.801C66.8356 564.794 69.7841 556.711 76.8554 550.027C82.3744 544.809 88.2284 539.943 94.0592 534.815C100.265 545.161 104.593 546.847 116.958 544.464C117.631 544.334 118.477 544.324 119.061 544.62C125.764 548.002 132.055 545.97 138.473 543.534C142.108 542.153 146.258 541.977 149.694 540.285C152.072 539.113 154.473 536.55 155.276 534.091C155.83 532.398 154.228 529.082 152.576 527.808C150.37 526.105 147.011 525.992 144.46 524.615C141.256 522.885 141.296 518.537 144.725 517.352C151.442 515.032 154.357 509.655 157.617 504.105C159.057 501.655 161.82 499.093 164.463 498.393C177.269 494.984 190.138 491.562 203.199 489.467C208.937 488.548 215.408 490.022 221.126 491.774C227.321 493.673 233.179 496.886 238.917 500.022C252.88 507.657 267.789 508.486 283.109 506.75C284.319 506.614 285.596 505.937 286.588 505.181C306.422 490.015 328.723 485.982 352.906 490.314C354.746 490.642 356.584 491.134 358.438 491.236C365.021 491.592 369.025 493.52 369.715 501.493C370.398 509.379 377.38 513.967 383.28 518.64C383.854 519.095 384.312 519.699 384.822 520.233ZM383.363 501.184C380.126 497.204 373.794 502.114 372.852 495.073C376.239 496.839 382.252 493.182 383.363 501.184ZM370.557 292.189L368.925 294.277C371.277 296.215 373.874 297.935 375.89 300.175C377.088 301.51 378.205 303.807 377.937 305.436C373.579 332.02 369.151 358.594 364.418 385.111C358.726 417.005 366.789 447.224 375.058 477.462C375.748 479.984 376.338 482.54 376.829 485.109C377.035 486.171 376.862 487.306 376.862 489.381C373.943 488.777 371.3 488.332 368.716 487.675C354.176 483.977 339.622 480.173 324.435 482.982C311.045 485.458 298.356 489.686 287.749 498.768C284.372 501.662 276.923 502.316 275.298 500.086C273.351 497.414 274.207 488.916 276.382 485.77C279.875 480.715 283.387 475.633 286.326 470.252C287.669 467.793 288.422 464.523 288.16 461.742C282.667 403.821 283.503 345.698 282.256 287.642C282.051 278.129 280.319 268.656 279.905 259.136C279.775 256.192 281.069 252.754 282.76 250.257C285.44 246.311 289.006 242.965 292.628 238.879C293.453 240.887 294.176 242.344 294.664 243.881C296.681 250.261 297.138 250.453 303.181 247.134C306.133 245.511 309.032 243.782 312.054 242.301C321.347 237.744 329.025 231.457 334.312 222.383C335.785 219.857 337.781 217.639 339.911 214.785C345.012 229.632 358.839 230.475 369.924 235.374C370.627 235.683 372.534 234.382 373.217 233.379C374.673 231.232 375.691 228.789 377.001 226.253C389.174 227.255 398.364 233.466 406.776 240.642C417.853 250.095 428.357 260.222 439.442 270.369C418.258 281.9 413.15 300.69 415.296 323.589C399.472 313.655 386.975 299.923 370.567 292.199L370.557 292.189ZM507.693 344.769C507.514 348.709 504.901 350.793 500.851 350.511C498.257 350.329 495.538 350.319 493.116 349.509C480.884 345.403 468.344 341.911 456.659 336.567C444.656 331.074 433.459 323.782 422.072 317.004C420.709 316.194 419.495 313.555 419.691 311.942C421.482 297.088 427.867 284.847 440.822 276.639C441.382 276.284 442.182 276.3 443.84 275.922C443.886 297.915 446.948 318.547 467.611 332.677C467.073 330.755 467.103 329.378 466.43 328.681C450.553 312.281 448.735 291.549 447.797 270.282C446.599 243.188 439.667 217.417 427.316 193.27C425.299 189.33 421.499 186.177 418.129 183.09C409.741 175.409 400.968 168.273 398.54 156.078C396.975 148.221 394.159 140.614 392.013 132.867C391.449 130.832 391.293 128.681 390.733 125.269C400.686 128.479 403.008 135.545 404.739 142.881C405.88 147.713 407.217 152.221 412.59 154.963C417.588 143.956 419.724 132.94 418.348 121.06C417.316 112.155 417.104 103.143 416.825 94.1677C416.742 91.509 417.668 88.8171 418.129 86.1385C418.769 85.9925 419.406 85.8497 420.046 85.7037C420.931 87.6454 422.291 89.5075 422.626 91.5389C424.351 102.061 425.81 112.626 427.366 123.178C427.502 124.1 427.376 125.212 427.853 125.903C428.842 127.333 430.155 128.538 431.333 129.839C432.142 128.376 433.608 126.938 433.661 125.448C434.039 114.976 433.983 104.49 434.384 94.0217C434.52 90.5132 435.256 86.9318 436.351 83.5927C436.878 81.9895 438.881 80.8775 440.218 79.5399C440.808 81.1364 441.89 82.7263 441.91 84.3295C442.072 96.3152 441.949 108.308 442.095 120.293C442.132 123.337 442.802 126.374 443.18 129.415C443.77 129.451 444.361 129.484 444.948 129.521C445.346 127.552 445.853 125.601 446.119 123.616C447.535 113.044 448.785 102.449 450.351 91.9007C450.702 89.5208 452.079 87.2936 452.981 84.9967C453.734 85.0498 454.487 85.1062 455.239 85.1593C455.644 88.442 456.536 91.748 456.367 94.9975C455.777 106.207 454.702 117.386 454.072 128.591C453.916 131.333 454.749 134.134 456.026 136.949C463.233 126.968 460.563 113.917 466.652 103.857C467.18 103.886 467.71 103.913 468.238 103.943C468.467 105.978 469.05 108.045 468.865 110.04C467.14 128.442 465.637 146.877 463.276 165.202C462.433 171.755 459.2 177.968 457.518 184.454C456.858 186.996 456.785 190.09 457.598 192.553C466.035 218.21 476.277 243.045 489.922 266.485C497.896 280.184 506.642 294.035 508.413 310.123C509.667 321.515 508.221 333.225 507.7 344.782L507.693 344.769Z" fill="#DDDDDD"/>
<path d="M427.047 147.85C428.709 153.791 430.371 159.733 432.032 165.671L433.747 165.216C432.188 159.248 430.629 153.28 429.071 147.312L427.047 147.846V147.85Z" fill="#DDDDDD"/>
<path d="M295.231 163.181C288.671 163.872 282.12 164.562 275.566 165.252C276.435 171.273 280.422 173.328 288.521 171.974C294.213 171.024 296.193 168.419 295.231 163.181Z" fill="#DDDDDD"/>
<path d="M319.646 109.001C315.758 104.593 310.866 105.44 306.196 106.349C299.709 107.614 294.727 111.926 294.12 117.283C301.142 109.512 310.266 109.443 319.646 109.001Z" fill="#DDDDDD"/>
<path d="M271.112 117.545C267.832 109.878 259.945 105.798 253.514 107.671C251.514 108.251 249.935 110.273 248.164 111.637C248.469 112.394 248.771 113.154 249.076 113.911C257.169 108.129 263.517 112.769 271.115 117.545H271.112Z" fill="#DDDDDD"/>
<path d="M262.091 136.223C263.968 136.269 265.351 134.327 265.334 131.662C265.318 129.033 263.901 127.095 262.034 127.144C260.263 127.191 258.843 129.143 258.847 131.529C258.847 134.002 260.353 136.179 262.087 136.223H262.091Z" fill="#DDDDDD"/>
<path d="M306.926 125.631C305.155 125.677 303.735 127.629 303.739 130.016C303.739 132.488 305.244 134.666 306.979 134.709C308.856 134.755 310.239 132.814 310.226 130.148C310.209 127.519 308.793 125.581 306.926 125.631Z" fill="#DDDDDD"/>
</g>
</g>
<defs>
<clipPath id="clip0_2013_9196">
<rect width="471" height="919" fill="white" transform="translate(42 38)"/>
</clipPath>
</defs>
</svg>
