<svg width="20" height="20" viewBox="0 0 20 20" fill="none" xmlns="http://www.w3.org/2000/svg">
<path d="M5.06592 18.7499C5.06621 18.4185 5.1981 18.1008 5.43258 17.8666L11.8259 11.4733C12.0194 11.2798 12.1729 11.0501 12.2777 10.7973C12.3824 10.5445 12.4363 10.2736 12.4363 9.99993C12.4363 9.7263 12.3824 9.45535 12.2777 9.20255C12.1729 8.94975 12.0194 8.72006 11.8259 8.5266L5.44092 2.13743C5.21322 1.90168 5.08723 1.58593 5.09008 1.25818C5.09292 0.930435 5.22438 0.61692 5.45614 0.38516C5.68791 0.153399 6.00142 0.0219382 6.32917 0.0190902C6.65691 0.0162422 6.97267 0.142235 7.20842 0.369933L13.5934 6.7541C14.4519 7.61432 14.9341 8.78001 14.9341 9.99535C14.9341 11.2107 14.4519 12.3764 13.5934 13.2366L7.20009 19.6299C7.02552 19.8046 6.80312 19.9237 6.56096 19.9721C6.31879 20.0205 6.06772 19.9961 5.83941 19.902C5.6111 19.8078 5.41579 19.6482 5.27813 19.4431C5.14047 19.2381 5.06663 18.9969 5.06592 18.7499Z" fill="#9180FF"/>
</svg>
