<svg width="496" height="76" viewBox="0 0 496 76" fill="none" xmlns="http://www.w3.org/2000/svg">
<rect width="496" height="76" rx="13" fill="#FDE500"/>
<path d="M184.512 29.2754C184.5 35.9404 182.681 41.6655 174.551 45.7061L173.062 43.6553C176.882 41.7754 179.165 39.5659 180.447 36.9536L173.574 37.6006L173.232 35.2568L181.265 34.7563C181.545 33.7188 181.729 32.6323 181.814 31.4727H174.38V29.2754H184.512ZM187.612 49.124V27.1025H190.322V35.7451H193.594V37.9668H190.322V49.124H187.612ZM206.118 29.2754C206.106 35.9404 204.287 41.6655 196.157 45.7061L194.668 43.6553C198.489 41.7754 200.771 39.5659 202.053 36.9536L195.181 37.6006L194.839 35.2568L202.871 34.7563C203.152 33.7188 203.335 32.6323 203.42 31.4727H195.986V29.2754H206.118ZM209.219 49.124V27.1025H211.929V35.7451H215.2V37.9668H211.929V49.124H209.219ZM226.284 28.3477C231.021 28.3599 234.524 30.7158 234.512 34.3047C234.524 37.6128 231.68 39.8223 227.627 40.2251V44.2656H236.416V46.4873H216.25V44.2656H224.941V40.2251C220.938 39.8223 218.093 37.6128 218.105 34.3047C218.093 30.7158 221.584 28.3599 226.284 28.3477ZM220.767 34.3047C220.754 36.6851 223.062 38.1133 226.284 38.1133C229.556 38.1133 231.851 36.6851 231.851 34.3047C231.851 31.9976 229.556 30.5327 226.284 30.5449C223.062 30.5327 220.754 31.9976 220.767 34.3047ZM257.974 38.8701V41.0186H237.808V38.8701H246.523V37.0146H240.396V27.6396H255.557V29.7637H243.105V31.2773H255.02V33.3037H243.105V34.9395H255.728V37.0146H249.233V38.8701H257.974ZM240.078 44.7295V42.5811H255.435V49.1729H252.7V44.7295H240.078ZM269.497 28.3477C274.148 28.3477 277.737 30.8257 277.725 34.5732C277.737 38.3696 274.148 40.8477 269.497 40.8477C264.871 40.8477 261.306 38.3696 261.318 34.5732C261.306 30.8257 264.871 28.3477 269.497 28.3477ZM259.463 46.3896V44.168H279.629V46.3896H259.463ZM263.931 34.5732C263.918 37.0757 266.287 38.6138 269.497 38.626C272.72 38.6138 275.063 37.0757 275.063 34.5732C275.063 32.1318 272.72 30.5205 269.497 30.5449C266.287 30.5205 263.918 32.1318 263.931 34.5732ZM301.235 44.3633V46.6094H281.069V44.3633H289.761V40.7744H283.462V33.5479H296.157V30.8135H283.413V28.6162H298.843V35.6963H286.172V38.5527H299.355V40.7744H292.446V44.3633H301.235ZM328.774 44.3633V46.6094H308.608V44.3633H317.3V40.7744H311.001V33.5479H323.696V30.8135H310.952V28.6162H326.382V35.6963H313.711V38.5527H326.895V40.7744H319.985V44.3633H328.774ZM347.769 29.251V31.7412C347.769 34.6953 347.769 37.7349 346.963 42.3857L344.204 42.1416C345.059 37.8081 345.059 34.6099 345.059 31.7412V31.4482H332.339V29.251H347.769ZM330.215 46.1455V43.9238H350.332V46.1455H330.215ZM370.205 27.127V43.0693H367.471V27.127H370.205ZM352.212 34.085C352.212 30.8745 354.812 28.5796 358.169 28.5674C361.526 28.5796 364.114 30.8745 364.102 34.085C364.114 37.3442 361.526 39.627 358.169 39.627C354.812 39.627 352.212 37.3442 352.212 34.085ZM354.873 34.085C354.861 36.0381 356.277 37.2588 358.169 37.2588C360.012 37.2588 361.44 36.0381 361.44 34.085C361.44 32.1807 360.012 30.9355 358.169 30.9355C356.277 30.9355 354.861 32.1807 354.873 34.085ZM355.605 48.7334V41.458H358.34V46.5361H370.815V48.7334H355.605Z" fill="black"/>
<path d="M130.405 47.3142C129.536 46.6941 128.657 46.1384 127.851 45.477C125.739 43.7456 124.174 41.5656 123.411 38.7797C122.994 37.2529 122.895 35.6977 123.111 34.114C123.456 31.5681 124.519 29.4165 126.132 27.5651C128.152 25.2455 130.631 23.7635 133.437 22.8683C135.507 22.2089 137.619 21.9243 139.766 22.0171C142.878 22.152 145.83 22.9692 148.531 24.6878C150.916 26.2051 152.844 28.2136 154.035 30.9704C154.54 32.1387 154.858 33.3598 154.958 34.6501C155.265 38.6117 153.858 41.8129 151.255 44.4843C149.177 46.6175 146.689 47.9274 143.942 48.7047C142.564 49.0944 141.162 49.339 139.738 49.3356C138.588 49.3329 137.438 49.2313 136.288 49.1811C136.183 49.1764 136.058 49.196 135.974 49.257C134.421 50.3819 132.873 51.5143 131.324 52.6453C130.767 53.0519 130.205 53.4497 129.657 53.8692C129.458 54.0203 129.265 54.0535 129.088 53.8997C128.924 53.758 128.853 53.5717 128.921 53.3047C129.431 51.2913 129.923 49.2706 130.405 47.3142Z" fill="black"/>
</svg>
