<svg width="21" height="20" viewBox="0 0 21 20" fill="none" xmlns="http://www.w3.org/2000/svg">
<g id="fi-br-angle-right">
<path id="Vector" d="M5.56592 18.7499C5.56621 18.4185 5.6981 18.1008 5.93258 17.8666L12.3259 11.4733C12.5194 11.2798 12.6729 11.0501 12.7777 10.7973C12.8824 10.5445 12.9363 10.2736 12.9363 9.99993C12.9363 9.7263 12.8824 9.45535 12.7777 9.20255C12.6729 8.94975 12.5194 8.72006 12.3259 8.5266L5.94092 2.13743C5.71322 1.90168 5.58723 1.58593 5.59008 1.25818C5.59292 0.930435 5.72438 0.61692 5.95614 0.38516C6.18791 0.153399 6.50142 0.0219382 6.82917 0.0190902C7.15691 0.0162422 7.47267 0.142235 7.70842 0.369933L14.0934 6.7541C14.9519 7.61432 15.4341 8.78001 15.4341 9.99535C15.4341 11.2107 14.9519 12.3764 14.0934 13.2366L7.70009 19.6299C7.52552 19.8046 7.30312 19.9237 7.06096 19.9721C6.81879 20.0205 6.56772 19.9961 6.33941 19.902C6.1111 19.8078 5.91579 19.6482 5.77813 19.4431C5.64047 19.2381 5.56663 18.9969 5.56592 18.7499Z" fill="#9180FF"/>
</g>
</svg>
