<svg width="56" height="56" viewBox="0 0 56 56" fill="none" xmlns="http://www.w3.org/2000/svg">
<circle cx="28" cy="28" r="28" fill="#ADA1FF"/>
<g clip-path="url(#clip0_1522_3668)">
<path d="M41.4956 25.856H30.1442V14.5047C30.1442 13.4598 29.2972 12.6128 28.2523 12.6128C27.2075 12.6128 26.3604 13.4598 26.3604 14.5047V25.856H15.0091C13.9642 25.856 13.1172 26.7031 13.1172 27.7479C13.1172 28.7928 13.9642 29.6398 15.0091 29.6398H26.3604V40.9912C26.3604 42.036 27.2075 42.8831 28.2523 42.8831C29.2972 42.8831 30.1442 42.036 30.1442 40.9912V29.6398H41.4956C42.5404 29.6398 43.3875 28.7928 43.3875 27.7479C43.3875 26.7031 42.5404 25.856 41.4956 25.856Z" fill="white"/>
</g>
<defs>
<clipPath id="clip0_1522_3668">
<rect width="30.2703" height="30.2703" fill="white" transform="translate(13.1172 12.6128)"/>
</clipPath>
</defs>
</svg>
