<svg width="68" height="29" viewBox="0 0 68 29" fill="none" xmlns="http://www.w3.org/2000/svg">
<rect x="0.5" width="67" height="29" rx="14.5" fill="#9180FF"/>
<circle cx="25" cy="14.5" r="9.5" fill="#ADA1FF"/>
<circle cx="25.0089" cy="14.5094" r="7.13196" fill="white"/>
<path d="M26.9075 13.0699C26.7759 12.2392 26.1011 11.7355 25.1739 11.7303C23.9395 11.7355 23.1221 12.6286 23.1221 14.2123C23.1221 15.8323 23.9505 16.689 25.163 16.6942C26.0682 16.689 26.7484 16.2217 26.9075 15.4065L28.5753 15.4169C28.3943 16.8085 27.1599 18.0754 25.141 18.0754C23.0179 18.0754 21.4434 16.6579 21.4434 14.2123C21.4434 11.7563 23.0453 10.3491 25.141 10.3491C26.9734 10.3491 28.3559 11.3409 28.5753 13.0699H26.9075Z" fill="#ADA1FF"/>
<path d="M49.9053 9.39453V20H47.6934V11.4893H47.6348L45.2031 13.0127V11.0645L47.8252 9.39453H49.9053Z" fill="white"/>
</svg>
