<svg width="199" height="236" viewBox="0 0 199 236" fill="none" xmlns="http://www.w3.org/2000/svg">
<path fill-rule="evenodd" clip-rule="evenodd" d="M199 208.519C190.399 205.72 181.954 202.524 174.369 197.235C172.233 195.746 170.401 194.986 167.911 196.668C165.403 198.361 162.798 197.554 160.523 195.811C157.829 193.747 155.146 191.667 152.464 189.587C150.25 187.87 148.036 186.154 145.815 184.446C144.906 183.746 143.972 183.077 142.792 182.231L142.791 182.231L142.789 182.229L142.779 182.222C142.158 181.777 141.469 181.283 140.679 180.709C140.106 183.018 139.488 185.258 138.882 187.457C137.587 192.156 136.343 196.667 135.701 201.263L135.509 202.636C133.956 213.737 132.402 224.856 131.212 236H127.44C127.516 235.519 127.598 235.037 127.684 234.555C130.879 216.636 133.869 198.68 136.811 180.716C136.993 179.615 136.238 178.063 135.43 177.161C134.472 176.096 133.32 175.205 132.169 174.315C131.683 173.939 131.198 173.564 130.727 173.175L131.829 171.765L131.835 171.771C138.326 174.829 143.911 179.281 149.571 183.794L149.572 183.794L149.572 183.794L149.572 183.795C153.573 186.984 157.611 190.203 162.035 192.983C160.586 177.509 164.035 164.812 178.337 157.02C176.086 154.957 173.869 152.895 171.668 150.847L171.667 150.847L171.667 150.846L171.667 150.846L171.666 150.846L171.664 150.844L171.662 150.842C166.547 146.084 161.509 141.397 156.282 136.932C150.603 132.083 144.398 127.887 136.18 127.209C135.917 127.719 135.671 128.222 135.43 128.717L135.429 128.719L135.429 128.719C134.86 129.888 134.315 131.006 133.625 132.025C133.163 132.702 131.876 133.581 131.401 133.373C129.701 132.621 127.905 132.01 126.105 131.398C119.98 129.315 113.799 127.213 111.138 119.46C110.67 120.087 110.212 120.668 109.773 121.226C108.861 122.385 108.029 123.442 107.358 124.594C103.788 130.726 98.6041 134.974 92.3295 138.054C90.9009 138.754 89.5128 139.537 88.1246 140.32C87.5306 140.656 86.9366 140.991 86.3394 141.319C82.2594 143.562 81.9503 143.432 80.5888 139.121C80.3701 138.431 80.0811 137.765 79.7482 136.997L79.7477 136.996C79.5798 136.609 79.4007 136.196 79.2139 135.741C78.4681 136.583 77.7259 137.379 77.003 138.154C75.3558 139.919 73.8095 141.576 72.552 143.43C71.4099 145.117 70.5366 147.44 70.6239 149.43C70.7536 152.411 71.0743 155.386 71.395 158.36L71.395 158.36C71.7661 161.802 72.1371 165.243 72.2116 168.692C72.4201 178.407 72.5423 188.124 72.6646 197.842C72.8247 210.563 72.9847 223.285 73.3383 236H55.6508C55.8438 230.892 56.0213 225.784 56.1938 220.676C57.0022 196.728 58.5227 172.909 64.9137 149.661C65.2652 148.382 65.4309 146.812 65.0189 145.608C64.2203 143.275 63.2418 141.003 62.2058 138.598L62.2054 138.597L62.2048 138.595L62.2044 138.594L62.2039 138.593L62.2037 138.593C61.7821 137.614 61.3511 136.613 60.9187 135.578C60.7555 136.049 60.618 136.508 60.4854 136.949L60.4853 136.949C60.1978 137.907 59.9339 138.786 59.4833 139.556C58.9975 140.386 58.3297 141.109 57.6615 141.832C57.3688 142.148 57.076 142.465 56.7984 142.791C56.5897 142.397 56.3335 142.007 56.0773 141.617C55.5173 140.765 54.9573 139.912 54.8927 139.023C54.705 136.446 54.7377 133.855 54.7723 131.105V131.104V131.103V131.103V131.102V131.101V131.1V131.099C54.7865 129.98 54.8009 128.835 54.8009 127.653C52.2622 128.449 49.8264 129.213 47.3729 129.983L47.3407 129.993L41.2979 131.888L41.3919 131.206C41.541 130.125 41.6481 129.348 41.7771 128.4C35.8071 129.38 31.6577 132.119 29.6333 137.702C28.6615 140.382 27.6905 143.064 26.7195 145.745L26.7173 145.751L26.6933 145.817C22.2048 158.212 17.7158 170.608 13.1408 182.97L13.1386 182.968C10.7582 189.398 11.0291 190.323 17.5142 192.94C18.4846 193.333 19.5002 193.617 20.7061 193.953L20.7066 193.953C21.3232 194.125 21.9895 194.311 22.7251 194.533C22.9423 180.393 25.6429 167.306 31.4785 154.974C31.2907 157.593 30.8177 160.15 30.3454 162.704L30.3454 162.704L30.3453 162.704L30.3453 162.705L30.3452 162.705L30.3451 162.706L30.3451 162.706L30.345 162.706L30.3449 162.707C30.1134 163.958 29.8822 165.209 29.6848 166.465C29.275 169.073 28.7932 171.683 28.3112 174.293C27.0892 180.912 25.8661 187.537 25.8131 194.167C25.7534 201.601 26.2752 209.039 26.797 216.478C27.2535 222.985 27.71 229.493 27.7774 236H24.6974C24.0494 224.712 23.245 213.432 22.4407 202.154C22.3645 201.104 21.6793 199.653 20.8396 199.193C19.4671 198.443 17.9629 197.935 16.317 197.38L16.3168 197.379L16.3163 197.379C15.6207 197.145 14.8999 196.901 14.153 196.627C14.0266 197.134 13.9111 197.566 13.8084 197.949L13.8081 197.951L13.808 197.951C13.6198 198.654 13.4747 199.196 13.3849 199.747C11.3317 212.278 8.04487 224.378 3.38688 236H0.52832C5.75437 223.479 8.61658 210.178 11.3404 196.843C11.5576 195.777 10.7582 194.205 9.95427 193.292C8.29269 191.41 7.6657 189.679 8.60173 187.138C12.393 176.844 16.1214 166.526 19.8498 156.207L19.8539 156.196L19.8541 156.196L19.8544 156.195L19.8546 156.194L19.8548 156.194L19.855 156.193L19.8553 156.192C21.9279 150.457 24.0005 144.721 26.084 138.989C28.2293 133.088 31.8726 128.775 37.5314 125.493C43.3491 122.12 49.2116 119.404 55.6272 117.475C57.4921 116.913 59.0435 115.002 60.4759 113.238C60.7429 112.909 61.0058 112.585 61.2658 112.276C62.6587 110.621 64.0179 108.689 64.5576 106.66C64.851 105.554 63.7649 103.522 62.6968 102.699C55.0876 96.8357 49.5072 89.5283 45.9669 80.588C45.5862 79.6303 44.462 78.3563 43.6133 78.3002C38.6958 77.9705 36.4274 74.7519 35.3189 70.6541C34.1702 66.4016 35.3212 62.6223 39.1683 59.9958C39.4547 59.8009 39.7176 59.5713 39.9459 59.3718C40.0408 59.2889 40.1297 59.2113 40.2118 59.1435C39.9409 56.9418 38.8694 55.1403 37.8204 53.3766C36.4498 51.0724 35.1177 48.8328 35.6593 45.8497C36.252 42.587 36.6437 39.2874 37.0333 36.0052C37.2046 34.5627 37.3754 33.1236 37.5627 31.6925C37.3525 31.8897 37.0591 32.1636 36.7004 32.4983L36.6905 32.5076L36.686 32.5118C36.3873 32.7906 36.0439 33.1112 35.666 33.4644C35.2182 26.9173 40.9508 19.3587 52.0578 11.6184C50.3357 10.6472 48.7167 9.73435 46.5603 8.51869C46.9916 8.34026 47.3194 8.19107 47.5848 8.07026L47.5851 8.07014C48.0168 7.87365 48.2835 7.75227 48.5622 7.70227C50.6918 7.31712 52.8323 6.97522 54.9726 6.63334C59.5503 5.90214 64.1273 5.17106 68.5951 4.01717C77.044 1.83257 85.0383 1.15969 93.0999 8.01628C92.7177 6.20366 92.4113 4.74706 92.1375 3.44529L92.1289 3.40468L92.1085 3.30763C91.9092 2.35991 91.7266 1.49177 91.5436 0.623638C91.7371 0.482508 91.9296 0.340305 92.1225 0.197773L92.1248 0.196032L92.1273 0.194202L92.1299 0.192268L92.3811 0.00683594C92.9009 0.735069 93.4139 1.46867 93.9269 2.20231L93.9271 2.20256L93.9272 2.20271L93.9273 2.20293L93.9275 2.20317L93.9278 2.20356L93.9283 2.20427L93.9291 2.2054L93.9297 2.20633C95.1065 3.8891 96.2833 5.57205 97.5427 7.19089L97.7097 7.40561C98.903 8.94024 100.143 10.5352 101.69 11.6408C102.238 12.0324 102.806 12.4006 103.377 12.7707L103.377 12.7708C105.843 14.3699 108.363 16.0035 109.59 19.7063C108.572 19.3439 107.815 19.0735 107.1 18.818L106.717 18.6813C106.453 18.5868 106.189 18.4925 105.913 18.3942C105.935 18.5233 105.946 18.6495 105.957 18.7691C105.978 19.0109 105.996 19.2258 106.101 19.3834C106.714 20.3037 107.362 21.2059 108.01 22.1078L108.01 22.1081L108.011 22.1087C109.427 24.0793 110.842 26.0486 111.879 28.2025C112.035 28.5262 112.22 28.8625 112.41 29.2086L112.411 29.2088L112.411 29.209C113.468 31.129 114.692 33.3517 112.024 35.4135C113.628 42.9093 112.463 50.2459 110.844 57.5757C110.768 57.919 111.217 58.3896 111.647 58.8405L111.647 58.8406C111.81 59.0114 111.97 59.1793 112.098 59.3364C117.179 65.5739 115.278 73.2828 107.781 75.8308C105.436 76.6293 104.305 77.8651 103.522 80.0587C103.424 80.3324 103.327 80.6099 103.229 80.8892C102.48 83.0269 101.692 85.2774 100.254 86.8525C96.5335 90.9258 97.6258 95.0935 98.7239 99.2836C98.9482 100.139 99.1727 100.996 99.3565 101.853C99.4909 102.486 100.142 103.298 100.734 103.499C106.572 105.489 110.656 109.598 114.367 114.295C115.15 115.286 116.682 116.152 117.925 116.235C123.468 116.609 128.345 118.793 133.231 120.982L133.232 120.982C135.187 121.857 137.143 122.734 139.145 123.495C147.607 126.714 154.759 131.717 161.585 137.376C165.089 140.281 168.524 143.272 171.96 146.262L171.966 146.268L171.968 146.27C173.869 147.925 175.77 149.579 177.683 151.22C178.218 151.677 178.886 151.982 180.525 151.982C180.129 149.717 179.787 147.436 179.446 145.156L179.446 145.155L179.446 145.154L179.445 145.154L179.445 145.153L179.445 145.153L179.445 145.152L179.445 145.152L179.445 145.151C178.672 139.996 177.9 134.841 176.507 129.86C174.7 123.396 172.275 117.101 169.851 110.811L169.851 110.811L169.851 110.81C169.088 108.832 168.326 106.854 167.584 104.872C167.123 103.638 166.195 102.048 165.116 101.667C160.609 100.07 157.91 96.5146 155.27 93.0359C154.809 92.4289 154.35 91.8243 153.884 91.2329C151.631 88.3754 150.243 84.6903 149.038 81.1779C147.877 77.7971 146.974 74.3274 146.071 70.8569C145.667 69.3058 145.264 67.7545 144.837 66.2109C144.746 65.8818 144.613 65.5498 144.48 65.2189C144.219 64.569 143.96 63.9232 144.028 63.3108C144.185 61.9071 144.529 60.5235 144.873 59.1395L144.873 59.1393C145.015 58.5664 145.158 57.9933 145.287 57.4187C145.908 57.5713 146.608 57.6606 147.308 57.7498L147.308 57.7499C148.849 57.9465 150.391 58.1432 151.098 59.0179C153.087 61.4821 154.505 64.4334 155.906 67.3496C156.129 67.815 156.353 68.2795 156.578 68.7409C157.184 69.9843 157.596 71.3235 158.089 72.9257L158.09 72.9262L158.09 72.9266C158.336 73.7258 158.602 74.5905 158.922 75.5414C162.545 67.1552 162.429 59.5181 161.529 51.6746C161.089 47.8467 161.054 43.9711 161.019 40.0971C161.004 38.5233 160.99 36.9498 160.949 35.3798C160.933 34.7563 160.92 33.9735 161.256 33.5339C161.474 33.2493 161.707 32.9191 161.949 32.5777L161.949 32.5773C162.822 31.3425 163.799 29.9617 164.527 30.0619C165.969 30.2615 168.005 31.9414 168.341 33.341C169.256 37.1552 169.849 41.048 170.441 44.9404C170.648 46.3034 170.856 47.6663 171.077 49.0257C171.318 50.5048 171.539 51.9882 171.755 53.4372C171.846 54.0493 171.936 54.6552 172.027 55.252C172.127 53.3516 172.219 51.4447 172.311 49.5337L172.311 49.5255L172.312 49.5178C172.554 44.4941 172.797 39.4415 173.202 34.4019C173.381 32.1859 173.964 29.7636 175.148 27.9513C175.983 26.6728 178.12 25.7667 179.725 25.686C180.453 25.6478 181.853 27.9648 181.985 29.3083C182.121 30.6768 182.164 32.0547 182.207 33.4364V33.4367V33.4369V33.4372V33.4375V33.4378V33.4381L182.207 33.4398C182.268 35.4287 182.331 37.4253 182.67 39.4126C182.831 38.7553 182.957 38.0778 183.083 37.4002C183.373 35.8305 183.664 34.2603 184.401 32.9395C184.991 31.8814 186.109 31.1183 187.226 30.3555C187.722 30.0171 188.218 29.6789 188.667 29.315C188.964 29.7819 189.335 30.2459 189.706 30.7099L189.707 30.7102C190.514 31.7196 191.322 32.7292 191.365 33.7694C191.554 38.3915 191.427 43.0279 191.299 47.6626V47.6633V47.664V47.6647V47.6654V47.6661V47.6668V47.6675L191.299 47.6694C191.266 48.8529 191.234 50.0363 191.206 51.2193C191.194 51.7729 191.166 52.3259 191.138 52.8797L191.138 52.8807C191.071 54.2113 191.004 55.5465 191.148 56.9051C191.32 56.0806 191.48 55.2526 191.64 54.4246C191.998 52.5678 192.357 50.7107 192.852 48.8911C192.973 48.4455 193.077 47.9625 193.182 47.4687L193.183 47.4682L193.183 47.4678L193.183 47.4674L193.183 47.4669L193.183 47.4665L193.183 47.4661L193.183 47.4657C193.716 44.9778 194.308 42.217 197.461 42.5818C198.093 42.6553 198.598 42.826 199 43.0719V68.0303C198.359 74.5414 197.679 81.0523 196.744 87.5253C196.334 90.3694 195.616 93.3659 194.211 95.8174C192.297 99.1638 192.541 102.03 193.829 105.469C195.495 109.919 197.211 114.341 199 118.729V127.173C195.895 119.727 193.125 112.137 190.595 104.437C190.046 102.773 190.096 100.682 190.541 98.9642C190.991 97.2277 191.605 95.5202 192.219 93.8158L192.219 93.8155L192.219 93.8152L192.219 93.815L192.219 93.8147L192.219 93.8144L192.219 93.8141L192.219 93.8139C193.154 91.2172 194.085 88.6279 194.429 85.9553C195.695 76.121 196.595 66.24 197.496 56.3607L197.498 56.3365C197.73 53.784 197.963 51.2317 198.202 48.6803C198.288 47.7579 198.13 46.8123 197.973 45.8666C197.9 45.4304 197.827 44.9941 197.779 44.5601C197.726 44.5571 197.672 44.5541 197.619 44.5512C197.564 44.5481 197.509 44.5452 197.454 44.5422L197.243 44.5309C197.065 44.5214 196.886 44.5119 196.708 44.5018C194.771 47.7054 194.147 51.3579 193.519 55.0305C192.815 59.1513 192.106 63.2975 189.534 66.8636C188.671 64.9616 188.109 63.0686 188.215 61.216C188.418 57.5928 188.69 53.9738 188.963 50.3547L188.963 50.3539L188.963 50.3466C189.26 46.4047 189.556 42.4628 189.764 38.5154C189.842 37.0114 189.584 35.4895 189.326 33.967L189.326 33.9665L189.326 33.9659L189.326 33.9653L189.326 33.9647L189.326 33.9641L189.326 33.9635L189.326 33.9629L189.326 33.9623C189.207 33.2636 189.089 32.5647 189.003 31.8674C188.855 31.857 188.707 31.8463 188.559 31.8356L188.24 31.8125C187.986 31.794 187.732 31.7755 187.478 31.7575C187.285 32.2483 187.061 32.7344 186.836 33.2205C186.35 34.2717 185.864 35.3231 185.702 36.4228C185.009 41.0937 184.408 45.7781 183.807 50.4627L183.806 50.4669L183.806 50.4709L183.805 50.4749L183.805 50.4789L183.804 50.4826L183.804 50.4864L183.803 50.4895C183.488 52.9449 183.173 55.4003 182.845 57.8538C182.721 58.7766 182.521 59.6887 182.32 60.6012C182.229 61.0151 182.138 61.429 182.054 61.844C181.948 61.8374 181.842 61.831 181.736 61.8246L181.441 61.8071L181.44 61.807C181.247 61.7956 181.054 61.7842 180.861 61.7722C180.78 61.1241 180.68 60.4763 180.58 59.8285L180.58 59.8277C180.363 58.422 180.145 57.0164 180.128 55.6087C180.081 51.6804 180.076 47.751 180.07 43.8216C180.065 39.6496 180.06 35.4776 180.003 31.3067C179.994 30.5661 179.65 29.8296 179.306 29.0931C179.146 28.7523 178.987 28.4115 178.861 28.0702C178.579 28.3524 178.254 28.6197 177.928 28.8869C177.211 29.4756 176.495 30.0637 176.25 30.8088C175.511 33.0651 175.014 35.4852 174.922 37.856C174.783 41.4841 174.725 45.1152 174.668 48.7466L174.668 48.7502V48.7507V48.7512V48.7516V48.7521V48.7526V48.7531V48.7536C174.613 52.2003 174.558 55.6472 174.434 59.0919C174.409 59.779 173.941 60.4494 173.472 61.1202C173.254 61.4326 173.035 61.745 172.862 62.0593C172.626 61.7985 172.382 61.5435 172.138 61.2885C171.56 60.6837 170.982 60.0792 170.513 59.3992C170.288 59.074 170.261 58.6104 170.235 58.1482V58.1477C170.223 57.947 170.211 57.7465 170.184 57.5578C169.906 55.6704 169.632 53.7825 169.359 51.8946L169.357 51.8805V51.8802V51.88V51.8798V51.8795V51.8793V51.879C168.598 46.6398 167.839 41.4012 166.984 36.1783C166.829 35.2404 166.352 34.3558 165.874 33.4711L165.874 33.4709C165.652 33.0609 165.431 32.6508 165.241 32.2353C165.025 32.2847 164.809 32.3335 164.594 32.3823L164.583 32.3847L164.313 32.4459C164.191 32.4735 164.069 32.5012 163.947 32.5291C163.849 33.1002 163.72 33.6722 163.59 34.2442C163.309 35.4848 163.029 36.725 163.067 37.9547C163.081 38.4145 163.095 38.8744 163.109 39.3344C163.28 44.9424 163.451 50.5653 164.095 56.1268C165.024 64.1542 163.582 71.5984 160.208 79.0359C156.58 77.1833 155.677 74.1374 154.907 70.8717C153.738 65.9149 152.171 61.1397 145.45 58.9708C145.582 59.7728 145.681 60.4717 145.769 61.1L145.769 61.1013C145.936 62.2787 146.067 63.2085 146.315 64.1048C146.821 65.9343 147.383 67.7523 147.944 69.57L147.944 69.5702C148.989 72.9536 150.034 76.336 150.722 79.7895C152.236 87.4012 157.405 92.0965 162.648 96.859C163.081 97.2525 163.515 97.6463 163.947 98.0424C164.217 98.2902 164.492 98.5386 164.768 98.7885C166.815 100.642 168.95 102.575 170.15 104.921C178.489 121.239 183.169 138.653 183.978 156.961C184.612 171.332 185.839 185.341 196.558 196.423C196.851 196.727 196.947 197.221 197.075 197.881L197.075 197.882C197.146 198.246 197.226 198.662 197.355 199.124C183.405 189.576 181.338 175.634 181.306 160.772C180.887 160.868 180.55 160.926 180.271 160.974C179.805 161.055 179.505 161.106 179.269 161.257C170.522 166.803 166.211 175.075 165.002 185.112C164.87 186.202 165.689 187.985 166.61 188.533C168.26 189.516 169.905 190.516 171.551 191.516L171.554 191.518L171.557 191.519L171.56 191.521L171.563 191.523L171.566 191.525L171.569 191.527L171.573 191.529L171.573 191.529C177.584 195.182 183.605 198.841 189.961 201.752C192.907 203.101 195.934 204.275 199 205.361V208.519ZM111.333 67.8167L111.691 68.1959C111.915 68.4331 112.138 68.6703 112.362 68.9069C111.49 69.6844 110.617 70.462 109.745 71.2395C108.876 72.0141 108.008 72.7886 107.138 73.5632C106.369 70.4096 107.883 69.5287 109.388 68.6522C109.979 68.3082 110.569 67.9648 111.019 67.4849L111.333 67.8167ZM80.0445 121.964C88.2808 118.616 96.591 115.238 101.884 106.242C102.625 107.036 103.355 107.797 104.068 108.541L104.069 108.541L104.069 108.541L104.071 108.543L104.071 108.544C105.993 110.547 107.792 112.421 109.351 114.476C109.825 115.102 108.965 117.089 108.291 118.186C101.647 129.006 97.0142 132.707 84.2927 137.527C82.7853 135.876 82.1242 133.762 81.4602 131.639C80.4898 128.535 79.5134 125.412 75.8796 123.69C77.2557 123.097 78.649 122.531 80.0445 121.964ZM71.4916 125.065L71.4915 125.065C71.2415 125.172 70.9475 125.298 70.6239 125.471C68.1047 118.953 67.8315 112.44 68.0375 105.175C78.6944 107.481 86.6775 103.282 93.4044 96.0237C93.7526 97.0146 94.0979 97.9697 94.4345 98.9007C95.31 101.323 96.1268 103.582 96.7835 105.886C97.0231 106.729 96.6357 108.322 95.9908 108.759C95.4287 109.14 94.8671 109.524 94.305 109.909L94.2941 109.916L94.2923 109.917L94.2905 109.919L94.2904 109.919L94.2901 109.919C90.6336 112.418 86.9575 114.931 83.0162 116.883C82.1394 117.316 81.2342 117.696 80.3338 118.074L80.333 118.074C77.0828 119.437 73.8936 120.774 72.3191 124.529V124.531C72.2281 124.749 71.9266 124.878 71.4916 125.065ZM38.333 70.4949C36.7857 67.1283 37.7934 64.3336 41.224 61.8417C42.8782 63.9534 41.6717 64.8857 40.4241 65.8498C39.6534 66.4453 38.8671 67.0529 38.7294 67.9582L38.9134 68.1844L39.3125 68.6746L39.9649 69.4754L39.9721 69.4842C40.4879 70.1171 41.0628 70.8225 41.7413 71.6567L42.0247 70.3071C42.1844 69.5465 42.315 68.9239 42.4467 68.3013C42.6168 68.2744 42.7893 68.2475 42.9595 68.2206C43.3872 70.0755 43.8149 71.9326 44.2784 73.9467C40.5679 75.0861 39.3676 72.7513 38.3308 70.4949H38.333ZM44.7711 58.6411C44.7206 58.4479 44.6701 58.2561 44.6199 58.0654C43.5869 54.1426 42.691 50.7405 45.5078 47.5342C45.5971 47.4323 45.6911 47.3185 45.7883 47.2009C46.2173 46.6817 46.7081 46.0876 47.1335 46.1077C51.4699 46.319 54.1089 43.7667 56.7442 41.218C57.9126 40.088 59.0802 38.9587 60.3947 38.0713C60.4117 38.0599 60.4286 38.0484 60.4455 38.0368C60.4659 38.0229 60.4862 38.009 60.5066 37.995C60.9493 37.6915 61.4013 37.3816 62.2668 37.4209C61.3862 38.7528 60.5051 40.0847 59.624 41.4167L59.6123 41.4344L59.6005 41.4521C58.7283 42.7707 57.856 44.0893 56.9843 45.4079C57.094 45.5503 57.2043 45.6927 57.3146 45.8352C57.3965 45.941 57.4784 46.0468 57.5602 46.1526C57.5884 46.1892 57.6167 46.2258 57.6449 46.2625C58.342 45.7688 59.0482 45.2857 59.7544 44.8026L59.7553 44.802L59.7557 44.8017L59.756 44.8014L59.7564 44.8012L59.7568 44.8009L59.7571 44.8006L59.758 44.8C61.3959 43.6795 63.0342 42.5587 64.5621 41.3056C66.3065 39.8746 68.0173 38.2822 69.3273 36.4632C71.9787 32.7803 74.6479 29.324 80.0783 29.7995C80.0381 29.6272 79.9984 29.4544 79.9588 29.2817L79.8972 29.0135C79.8778 28.9292 79.8583 28.8451 79.8387 28.761C79.0885 28.4066 78.3383 28.0522 77.418 27.6171C77.5591 27.5785 77.6863 27.546 77.8036 27.5161C78.0472 27.4539 78.2478 27.4027 78.4413 27.33C79.1799 27.0549 79.9226 27.3618 80.6746 27.6725C81.756 28.1194 82.8568 28.5742 83.9926 27.3188C84.0205 27.2883 84.1548 27.3683 84.3324 27.4742C84.9114 27.8193 85.9501 28.4384 85.2578 26.3925C85.2041 26.231 86.1602 25.4034 86.5723 25.4572C87.0904 25.5248 87.6272 25.5716 88.1676 25.6187C89.8855 25.7686 91.6388 25.9215 92.9386 26.7558C94.5128 27.7658 95.6846 29.4584 96.8274 31.1092L96.828 31.11L96.8285 31.1108L96.8286 31.1109C97.0965 31.4979 97.3627 31.8825 97.6322 32.2555C98.2934 33.1686 98.8258 34.1748 99.3587 35.1819C99.6452 35.7234 99.9319 36.2651 100.239 36.7929C100.321 36.9333 100.478 37.069 100.625 37.1954C100.81 37.3557 100.979 37.5011 100.955 37.6227C100.299 40.8896 101.421 43.8192 102.543 46.7463C103.583 49.4623 104.623 52.1762 104.24 55.1556C104.202 55.4509 104.121 55.7407 103.996 56.189L103.996 56.1893C103.924 56.4458 103.838 56.7541 103.737 57.1451C98.2279 52.4417 92.1459 53.1908 86.0483 54.4132C84.4584 54.7317 82.8281 55.2251 81.4219 56.0101C76.5133 58.7465 71.224 58.7308 66.1587 57.4299L65.656 57.3008C58.6204 55.492 51.7813 53.7338 44.7755 58.6433L44.7711 58.6411ZM65.74 71.2911C66.2894 70.1064 66.8394 68.9222 67.3894 67.738C67.94 66.5526 68.4907 65.3671 69.0407 64.1811L69.0448 64.1834L69.0452 64.1836C69.411 64.3869 69.7767 64.5901 70.1424 64.7956C70.5299 68.1443 68.3353 69.8467 65.74 71.2911ZM60.0364 96.6764C54.1627 90.7013 49.8364 83.8245 48.1569 75.4585C47.6872 73.1226 47.135 70.8021 46.6868 68.9187C46.5174 68.207 46.3629 67.5578 46.2333 66.9937C46.6062 66.2025 46.9132 65.5094 47.1879 64.8892L47.1883 64.8883C47.7335 63.6575 48.1517 62.7133 48.7055 61.8574C48.7968 61.7165 48.8914 61.5671 48.989 61.413C49.7267 60.2481 50.6344 58.8147 51.5719 58.7196C55.0383 58.3697 58.6145 58.3585 62.0675 58.8205C65.7635 59.312 65.6153 62.0782 65.4798 64.6077V64.6079V64.6081V64.6083V64.6085V64.6087V64.6088V64.6089C65.4527 65.115 65.4261 65.6116 65.4309 66.0786C65.4668 69.5618 63.2722 71.6612 59.9894 72.4529C54.474 73.783 51.3479 72.1838 48.4346 66.7358C47.5389 70.3917 50.3111 73.8458 54.6151 74.3998C58.6884 74.9246 62.3273 73.7763 65.6437 71.4526C65.8996 72.0554 66.1424 72.6657 66.3851 73.2759L66.3852 73.2762L66.3854 73.2765L66.3855 73.2768L66.3856 73.2771L66.3858 73.2774L66.3861 73.278L66.3865 73.279C67.0377 74.9157 67.6884 76.5511 68.5884 78.0356C68.8863 78.5293 69.7443 78.6823 70.6023 78.8354C70.9955 78.9055 71.3887 78.9756 71.7279 79.0785C71.6461 78.7735 71.5824 78.4577 71.5188 78.142C71.3751 77.4292 71.2315 76.7167 70.8792 76.1291C70.3224 75.198 69.6047 74.3641 69.0099 73.6731L69.0094 73.6726L69.0079 73.6708C68.7853 73.4122 68.5801 73.1737 68.407 72.9576C68.7966 72.1725 69.1615 71.4128 69.5157 70.6752C70.385 68.8653 71.1901 67.189 72.1399 65.5986C72.599 64.8293 74.0747 63.8312 74.5606 64.06C74.8528 64.197 75.1571 64.334 75.4667 64.4734C77.285 65.2922 79.2865 66.1934 80.1074 67.6711C82.6468 72.2331 84.2882 73.3838 90.9591 73.0698C95.6012 72.8499 99.0295 70.5173 100.266 66.6034C100.577 65.621 100.548 64.5287 99.9902 63.3019C99.8659 63.536 99.7372 63.7682 99.6084 64.0006C99.3338 64.4962 99.059 64.992 98.8258 65.5066C96.5059 70.6452 91.3689 72.924 86.0102 71.1722C82.2616 69.9476 80.8576 67.0094 81.124 61.1711C81.2531 58.3405 83.3162 58.0031 85.1791 57.6984C85.4816 57.649 85.7789 57.6003 86.0617 57.5421C88.8743 56.9634 91.7988 56.8154 94.6831 56.7346C97.5561 56.6516 100.069 57.3761 100.147 61.3057C101.506 60.8122 102.572 60.4265 104.283 59.8074C104.283 60.4 104.3 60.9449 104.317 61.4566L104.317 61.4574C104.349 62.4637 104.376 63.3412 104.261 64.199C102.393 77.9683 97.3881 90.0464 85.8087 98.6121C77.4023 104.829 67.3993 104.161 60.0387 96.6764H60.0364ZM64.3046 113.745C66.161 117.358 65.6594 119.411 63.3126 122.943C61.9914 124.929 60.9839 127.125 59.8885 129.513L59.888 129.514L59.8868 129.517L59.8867 129.517C59.3765 130.629 58.8473 131.783 58.2584 132.976C56.7626 125.016 58.2786 118.626 64.3046 113.745ZM173.335 86.2713C172.213 82.2587 171.091 78.2439 169.969 74.2291V74.2268L171.335 73.8657L174.492 85.964L173.335 86.2713ZM71.1838 85.621L71.0765 85.6323L67.6945 85.9889C68.2812 90.0576 70.9729 91.4459 76.4413 90.5308C80.2839 89.8894 81.6208 88.1287 80.9714 84.5894C77.7064 84.9332 74.4451 85.2771 71.1838 85.621ZM88.3742 46.1861C91.5272 45.5715 94.8301 44.9996 97.4546 47.9781L97.1593 47.9919L96.6168 48.0167C90.5805 48.2908 84.7522 48.5554 80.2209 53.5742C80.6307 49.9541 83.9941 47.0406 88.3742 46.1861ZM64.6873 53.7516L64.6865 53.7496L64.6896 53.7516H64.6873ZM64.6865 53.7496C64.4114 53.5766 64.1387 53.4037 63.8682 53.2323C59.0945 50.2069 54.9792 47.5987 49.8093 51.2956C49.7692 51.196 49.7292 51.0963 49.6892 50.9965C49.6662 50.9392 49.6432 50.8818 49.6203 50.8245L49.5014 50.5274C49.399 50.2711 49.2965 50.0149 49.1935 49.7592C49.5682 49.4703 49.9302 49.1379 50.2921 48.8054C51.0852 48.0769 51.8783 47.3484 52.8055 47.0789C57.147 45.814 62.4713 48.5697 64.6865 53.7496ZM60.7865 63.2905C60.7977 65.0916 59.8639 66.4037 58.5965 66.3723H58.5942C57.4231 66.3431 56.4064 64.8718 56.4064 63.2008C56.4042 61.5882 57.3626 60.2693 58.5584 60.2379C59.8191 60.2043 60.7753 61.5142 60.7865 63.2905ZM88.867 59.215C87.6712 59.2464 86.7128 60.5652 86.715 62.1779C86.715 63.8488 87.7317 65.3202 88.9028 65.3493C90.1703 65.3808 91.1041 64.0686 91.0951 62.2676C91.0839 60.4912 90.1277 59.1814 88.867 59.215Z" fill="#D9D9D9"/>
</svg>
