<svg width="58" height="60" viewBox="0 0 58 60" fill="none" xmlns="http://www.w3.org/2000/svg">
<path d="M45.9166 0H12.0834C5.41326 0.00832031 0.00804297 5.59992 0 12.5V47.5001C0.00804297 54.4001 5.41326 59.9918 12.0834 60H45.9167C52.5867 59.9918 57.9921 54.4001 58 47.5V12.5C57.9921 5.59992 52.5867 0.00832031 45.9166 0ZM48.3334 20.1975L25.9695 43.3325C24.0823 45.2856 21.0221 45.2862 19.1341 43.3339L19.1327 43.3325L9.66663 33.5426C8.72096 32.5643 8.72096 30.9783 9.66663 30.0001C10.6123 29.0219 12.1454 29.0218 13.091 30.0001L22.5546 39.7901L44.9209 16.655C45.8666 15.6803 47.397 15.6831 48.3393 16.6612C49.2816 17.6395 49.2789 19.2227 48.3334 20.1975Z" fill="#DDDDDD"/>
</svg>
