<svg width="33" height="33" viewBox="0 0 33 33" fill="none" xmlns="http://www.w3.org/2000/svg">
<circle cx="16.4844" cy="16.5" r="15.9844" fill="#9180FF"/>
<g clip-path="url(#clip0_1522_3520)">
<path d="M15 16.5156C15.9889 16.5156 16.9556 16.2224 17.7779 15.673C18.6001 15.1236 19.241 14.3427 19.6194 13.429C19.9978 12.5154 20.0969 11.5101 19.9039 10.5402C19.711 9.57027 19.2348 8.67936 18.5355 7.98009C17.8363 7.28083 16.9454 6.80463 15.9755 6.6117C15.0055 6.41877 14.0002 6.51779 13.0866 6.89623C12.173 7.27467 11.3921 7.91553 10.8427 8.73778C10.2932 9.56002 10 10.5267 10 11.5156C10.0013 12.8413 10.5285 14.1123 11.4659 15.0497C12.4033 15.9871 13.6743 16.5143 15 16.5156ZM15 8.18229C15.6593 8.18229 16.3037 8.37779 16.8519 8.74406C17.4001 9.11033 17.8273 9.63093 18.0796 10.24C18.3319 10.8491 18.3979 11.5193 18.2693 12.1659C18.1407 12.8125 17.8232 13.4065 17.357 13.8727C16.8908 14.3388 16.2969 14.6563 15.6503 14.7849C15.0037 14.9135 14.3335 14.8475 13.7244 14.5952C13.1153 14.3429 12.5947 13.9157 12.2284 13.3675C11.8622 12.8194 11.6667 12.1749 11.6667 11.5156C11.6667 10.6316 12.0179 9.78373 12.643 9.1586C13.2681 8.53348 14.1159 8.18229 15 8.18229Z" fill="white"/>
<path d="M15 18.1821C13.0116 18.1846 11.1054 18.9755 9.69938 20.3815C8.29338 21.7875 7.50243 23.6937 7.5 25.6821C7.5 25.9031 7.5878 26.1151 7.74408 26.2714C7.90036 26.4276 8.11232 26.5154 8.33333 26.5154C8.55435 26.5154 8.76631 26.4276 8.92259 26.2714C9.07887 26.1151 9.16667 25.9031 9.16667 25.6821C9.16667 24.135 9.78125 22.6513 10.8752 21.5573C11.9692 20.4634 13.4529 19.8488 15 19.8488C16.5471 19.8488 18.0308 20.4634 19.1248 21.5573C20.2188 22.6513 20.8333 24.135 20.8333 25.6821C20.8333 25.9031 20.9211 26.1151 21.0774 26.2714C21.2337 26.4276 21.4457 26.5154 21.6667 26.5154C21.8877 26.5154 22.0996 26.4276 22.2559 26.2714C22.4122 26.1151 22.5 25.9031 22.5 25.6821C22.4976 23.6937 21.7066 21.7875 20.3006 20.3815C18.8946 18.9755 16.9884 18.1846 15 18.1821Z" fill="white"/>
<path d="M25.8333 13.0781C25.3696 13.1012 24.9338 13.3071 24.6215 13.6507C24.3091 13.9943 24.1456 14.4476 24.1667 14.9115C24.1877 14.4476 24.0242 13.9943 23.7119 13.6507C23.3995 13.3071 22.9638 13.1012 22.5 13.0781C22.0362 13.1012 21.6005 13.3071 21.2882 13.6507C20.9758 13.9943 20.8123 14.4476 20.8334 14.9115C20.8334 16.3531 22.7133 18.0423 23.65 18.794C23.7966 18.9113 23.9789 18.9753 24.1667 18.9753C24.3545 18.9753 24.5367 18.9113 24.6833 18.794C25.62 18.044 27.5 16.3531 27.5 14.9115C27.5211 14.4476 27.3575 13.9943 27.0452 13.6507C26.7328 13.3071 26.2971 13.1012 25.8333 13.0781Z" fill="white"/>
</g>
<defs>
<clipPath id="clip0_1522_3520">
<rect width="20" height="20" fill="white" transform="translate(7.5 6.51562)"/>
</clipPath>
</defs>
</svg>
