<svg width="20" height="20" viewBox="0 0 20 20" fill="none" xmlns="http://www.w3.org/2000/svg">
<g id="fi-rr-refresh" clip-path="url(#clip0_1641_779)">
<path id="Vector" d="M9.99996 2.08306C11.0501 2.08651 12.0892 2.29819 13.057 2.70586C14.0248 3.11352 14.9021 3.70908 15.6382 4.45806H13.1666C12.9567 4.45806 12.7553 4.54147 12.6068 4.68994C12.4584 4.8384 12.375 5.03977 12.375 5.24973C12.375 5.45969 12.4584 5.66106 12.6068 5.80952C12.7553 5.95799 12.9567 6.0414 13.1666 6.0414H16.4465C16.8363 6.04119 17.2101 5.88623 17.4858 5.61058C17.7615 5.33492 17.9164 4.96111 17.9166 4.57127V1.2914C17.9166 1.08143 17.8332 0.88007 17.6847 0.731604C17.5363 0.583138 17.3349 0.49973 17.125 0.49973C16.915 0.49973 16.7136 0.583138 16.5652 0.731604C16.4167 0.88007 16.3333 1.08143 16.3333 1.2914V2.93648C15.0248 1.75805 13.4141 0.967138 11.6815 0.652323C9.94898 0.337508 8.16299 0.511219 6.52358 1.154C4.88416 1.79678 3.45605 2.88326 2.39917 4.29175C1.3423 5.70025 0.698382 7.37515 0.53954 9.1289C0.529315 9.23914 0.542165 9.35031 0.577273 9.45531C0.612382 9.56032 0.668977 9.65686 0.743455 9.73879C0.817932 9.82071 0.908658 9.88622 1.00985 9.93115C1.11105 9.97608 1.22049 9.99943 1.33121 9.99973C1.52484 10.0022 1.71242 9.93231 1.85724 9.80375C2.00205 9.67519 2.09367 9.49721 2.11417 9.30465C2.2904 7.33399 3.19714 5.50045 4.65627 4.16423C6.1154 2.828 8.02144 2.08567 9.99996 2.08306Z" fill="#5B5B5B"/>
<path id="Vector_2" d="M18.6697 10.0001C18.4761 9.9976 18.2885 10.0675 18.1437 10.196C17.9989 10.3246 17.9072 10.5026 17.8867 10.6951C17.7559 12.2019 17.1956 13.6395 16.2723 14.8373C15.349 16.0352 14.1014 16.9431 12.6777 17.4533C11.2539 17.9635 9.71373 18.0546 8.23977 17.7157C6.76581 17.3769 5.41997 16.6224 4.36191 15.5417H6.8335C7.04346 15.5417 7.24482 15.4583 7.39329 15.3099C7.54176 15.1614 7.62516 14.96 7.62516 14.7501C7.62516 14.5401 7.54176 14.3387 7.39329 14.1903C7.24482 14.0418 7.04346 13.9584 6.8335 13.9584H3.55362C3.36053 13.9583 3.16932 13.9963 2.99091 14.0701C2.81249 14.1439 2.65039 14.2522 2.51385 14.3888C2.37732 14.5253 2.26903 14.6874 2.19519 14.8658C2.12135 15.0442 2.08339 15.2354 2.0835 15.4285V18.7084C2.0835 18.9184 2.1669 19.1197 2.31537 19.2682C2.46384 19.4167 2.6652 19.5001 2.87516 19.5001C3.08513 19.5001 3.28649 19.4167 3.43496 19.2682C3.58342 19.1197 3.66683 18.9184 3.66683 18.7084V17.0633C4.97532 18.2418 6.58603 19.0327 8.31858 19.3475C10.0511 19.6623 11.8371 19.4886 13.4765 18.8458C15.116 18.203 16.5441 17.1166 17.6009 15.7081C18.6578 14.2996 19.3017 12.6246 19.4606 10.8709C19.4708 10.7607 19.458 10.6495 19.4228 10.5445C19.3877 10.4395 19.3311 10.3429 19.2567 10.261C19.1822 10.1791 19.0915 10.1136 18.9903 10.0686C18.8891 10.0237 18.7796 10.0004 18.6689 10.0001H18.6697Z" fill="#5B5B5B"/>
</g>
<defs>
<clipPath id="clip0_1641_779">
<rect width="19" height="19" fill="white" transform="translate(0.5 0.5)"/>
</clipPath>
</defs>
</svg>
