<svg width="99" height="98" viewBox="0 0 99 98" fill="none" xmlns="http://www.w3.org/2000/svg">
<g filter="url(#filter0_d_1640_4740)">
<rect x="3.5" width="92" height="92" rx="46" fill="white"/>
<g clip-path="url(#clip0_1640_4740)">
<path d="M49.4472 8C50.6768 8.53206 50.7175 9.58834 50.6207 10.7053C49.5305 10.7131 48.4403 10.7209 47.3501 10.7287C47.3656 10.5351 47.4101 10.3395 47.3888 10.1497C47.2785 9.1404 47.6657 8.42447 48.5778 7.99805H49.4472V8Z" fill="#32438B"/>
<path d="M78.7142 66.5728C78.3424 67.6212 77.5698 68.4056 76.9327 69.2722C76.4235 69.9666 75.8077 70.5808 75.2384 71.2302C61.792 71.2302 48.3476 71.2263 34.9013 71.2419C34.2913 71.2419 34.0628 71.1226 34.0725 70.4458C34.1112 67.6173 34.0667 64.7888 34.1015 61.9603C34.1112 61.084 34.1248 60.1549 35.093 59.5172C32.6241 59.5172 30.3081 59.5172 27.9922 59.5172C27.9961 56.2095 27.998 52.9037 28.0038 49.596C28.0057 48.3539 28.5344 47.814 29.7524 47.8101C32.0625 47.8062 34.3746 47.8062 36.6847 47.8062C37.558 47.8062 38.4313 47.8062 39.5312 47.8062C38.4875 48.4243 38.4565 49.2849 38.4487 50.1026C38.4197 52.98 38.4526 55.8593 38.4255 58.7367C38.4197 59.3235 38.5552 59.5329 39.1788 59.5329C49.4649 59.5133 59.7491 59.5172 70.0353 59.5152C71.4276 59.5074 72.8218 59.4996 74.214 59.4918C75.1551 59.5015 76.0962 59.5113 77.0373 59.5192C78.1759 59.5289 78.7123 60.0708 78.7142 61.2288C78.7181 63.0088 78.7142 64.7908 78.7142 66.5708V66.5728Z" fill="#D2DBFA"/>
<path d="M27.9919 59.5171H35.0946C34.1264 60.1548 34.1128 61.082 34.1032 61.9603C34.0683 64.7888 34.1128 67.6172 34.0741 70.4457C34.0644 71.1225 34.2929 71.2419 34.9029 71.2419C48.3492 71.2262 61.7937 71.2301 75.24 71.2301C72.8757 73.9354 70.1221 76.1594 67.0549 77.9962C63.0504 80.3944 58.7322 81.9084 54.1429 82.6223C51.6585 83.0096 49.1412 83.0859 46.6452 82.9079C40.7101 82.4893 35.1972 80.6721 30.1374 77.4935C30.0387 77.4329 29.9689 77.3272 29.8837 77.2431C29.8837 75.9325 29.9108 74.622 29.876 73.3114C29.8547 72.5133 29.8954 71.772 30.7532 71.2282C28.2184 71.2282 25.8405 71.2282 23.4626 71.2282C23.2748 71.2282 23.0715 71.189 22.9321 71.3729C21.6715 69.9919 20.4941 68.5444 19.4911 66.958C19.4156 66.8407 19.3672 66.7057 19.3071 66.5786C19.3071 64.8337 19.3071 63.0889 19.311 61.3441C19.311 60.0277 19.8241 59.523 21.1506 59.5191C22.0375 59.5152 22.9263 59.5054 23.8131 59.4976C25.2073 59.5034 26.5996 59.5113 27.9938 59.5171H27.9919Z" fill="#BDC7F6"/>
<path d="M23.8114 59.4975C22.9245 59.5053 22.0357 59.5151 21.1488 59.519C19.8224 59.5249 19.3112 60.0276 19.3093 61.344C19.3073 63.0888 19.3073 64.8337 19.3054 66.5785C18.2307 65.1858 17.4639 63.6131 16.7377 62.0247C15.1073 58.4608 14.0945 54.7149 13.6956 50.8144C13.1244 45.2298 13.8021 39.788 15.754 34.5242C17.6633 29.3758 20.5873 24.8925 24.5375 21.1114C29.64 16.227 35.6622 13.1345 42.5674 11.8063C43.6304 11.6009 44.7013 11.4425 45.7837 11.3857C45.3325 11.9374 45.1815 12.575 45.1892 13.2831C45.2009 14.1575 45.1602 15.0299 45.1408 15.9043C44.9724 15.9043 44.7981 15.8828 44.6354 15.9141C41.8877 16.4363 39.2077 17.1718 36.673 18.3944C32.8815 20.2253 29.6477 22.7623 26.9096 25.984C24.6034 28.697 22.8722 31.7329 21.7085 35.0856C20.3511 38.9958 19.7759 43.0155 20.1516 47.1781C20.3685 49.5841 20.8255 51.9177 21.5361 54.2161C22.1074 56.0606 23.0426 57.739 23.8095 59.4955L23.8114 59.4975Z" fill="#9F91FF"/>
<path d="M78.714 66.5727C78.714 64.7927 78.7178 63.0107 78.714 61.2306C78.712 60.0726 78.1757 59.5308 77.037 59.521C76.096 59.5132 75.1549 59.5034 74.2138 59.4936C74.7095 58.4119 75.2149 57.3361 75.6971 56.2485C77.1513 52.9701 77.7884 49.502 77.982 45.9419C78.0711 44.291 77.9259 42.6459 77.7148 41.0009C77.3488 38.1626 76.5994 35.4378 75.4279 32.8362C73.416 28.3646 70.4455 24.6519 66.6212 21.6376C65.9686 21.1232 65.3548 20.507 64.5008 20.3055L64.5144 20.3134C64.4756 20.2605 64.4369 20.2058 64.3982 20.153C64.2355 19.885 64.0806 19.6131 63.9102 19.349C63.6042 18.8776 63.4242 18.3808 63.7224 17.8487C64.2181 16.9646 64.7409 16.0941 65.2521 15.2178C67.6513 16.3992 69.8395 17.9113 71.8727 19.6405C75.6487 22.8524 78.6462 26.7 80.8324 31.1755C82.6371 34.8725 83.7912 38.7651 84.2579 42.8728C85.197 51.1588 83.4717 58.8364 79.2019 65.9507C79.0683 66.1736 78.9812 66.4455 78.7217 66.5746L78.714 66.5727Z" fill="#9F91FF"/>
<path d="M65.2462 15.216C64.735 16.0923 64.2122 16.9628 63.7165 17.8469C63.4183 18.379 63.5964 18.8758 63.9043 19.3472C64.0747 19.6093 64.2315 19.8832 64.3923 20.1512C64.431 20.204 64.4697 20.2588 64.5085 20.3116L64.4949 20.3037C65.221 21.6202 65.9569 22.9327 66.6733 24.255C67.2388 25.2976 66.7779 26.1153 65.6006 26.1192C62.2448 26.1289 58.889 26.1153 55.5332 26.1113C54.2901 25.5695 53.8796 24.6189 53.9105 23.2652C53.9822 20.1081 53.9861 16.9471 53.9086 13.79C53.8757 12.4501 54.1797 11.4173 55.3841 10.7581C58.8677 10.7581 62.3513 10.7444 65.8349 10.7698C66.774 10.7757 67.1923 11.6011 66.7372 12.4775C66.257 13.3988 65.7439 14.3025 65.2443 15.214L65.2462 15.216Z" fill="#7E6DEC"/>
<path d="M55.3842 10.7598C54.1797 11.419 53.8757 12.4519 53.9086 13.7918C53.9861 16.9489 53.9822 20.1099 53.9106 23.267C53.8796 24.6187 54.2901 25.5713 55.5333 26.1131C53.8951 26.1327 52.2569 26.1522 50.6187 26.1718C49.5459 26.1718 48.4732 26.1718 47.4004 26.1718C46.4535 26.0564 45.7138 25.6476 45.3401 24.7047C45.1832 24.3077 45.1987 23.8949 45.1948 23.4841C45.1755 20.9588 45.1581 18.4316 45.1406 15.9063C45.1581 15.0319 45.2007 14.1576 45.189 13.2851C45.1794 12.577 45.3304 11.9394 45.7835 11.3877C46.2424 11.0181 46.7362 10.7383 47.3462 10.7305C48.4383 10.7227 49.5285 10.7149 50.6187 10.7051C52.2065 10.7227 53.7963 10.7403 55.3842 10.7579V10.7598Z" fill="#5643D1"/>
<path d="M22.9321 71.3748C23.0735 71.1909 23.2749 71.23 23.4627 71.23C25.8406 71.23 28.2185 71.23 30.7532 71.23C29.8935 71.7738 29.8528 72.5132 29.8761 73.3133C29.9109 74.6219 29.8857 75.9344 29.8838 77.245C28.4547 76.4254 27.1864 75.3808 25.9355 74.3226C24.8647 73.4169 23.8384 72.4565 22.9321 71.3768V71.3748Z" fill="#AAB8E7"/>
<path d="M45.1427 15.9065C45.1601 18.4318 45.1775 20.9591 45.1969 23.4844C45.2008 23.8951 45.1834 24.3079 45.3421 24.705C45.7159 25.6478 46.4556 26.0566 47.4025 26.172C47.4063 29.4758 47.4083 32.7797 47.4122 36.0835C46.1109 36.1011 44.8116 36.1167 43.5103 36.1343C41.8489 36.1246 40.1875 36.1089 38.526 36.105C37.2112 36.1011 36.6981 36.6253 36.6961 37.9554C36.6903 41.2397 36.6884 44.524 36.6826 47.8102C34.3724 47.8102 32.0604 47.8102 29.7503 47.8141C28.5323 47.816 28.0036 48.3559 28.0017 49.6C27.9959 52.9077 27.9939 56.2135 27.9901 59.5212C26.5959 59.5154 25.2036 59.5095 23.8094 59.5017C23.0406 57.7471 22.1054 56.0668 21.5361 54.2222C20.8254 51.9238 20.3684 49.5902 20.1515 47.1842C19.7759 43.0217 20.3529 39.0019 21.7084 35.0917C22.8722 31.7371 24.6033 28.7012 26.9096 25.9901C29.6496 22.7684 32.8834 20.2295 36.6729 18.4005C39.2076 17.176 41.8895 16.4425 44.6354 15.9202C44.798 15.8889 44.9723 15.9124 45.1408 15.9104L45.1427 15.9065Z" fill="#B7ACFF"/>
<path d="M50.621 26.17C52.2592 26.1504 53.8974 26.1309 55.5356 26.1113C58.8914 26.1152 62.2471 26.1289 65.6029 26.1191C66.7802 26.1152 67.243 25.2976 66.6757 24.255C65.9573 22.9327 65.2234 21.6202 64.4972 20.3037C65.3531 20.5052 65.965 21.1214 66.6176 21.6358C70.442 24.6501 73.4124 28.3647 75.4243 32.8344C76.5958 35.4359 77.3452 38.1588 77.7112 40.999C77.9223 42.6421 78.0694 44.2892 77.9784 45.9401C77.7848 49.5002 77.1477 52.9683 75.6935 56.2467C75.2113 57.3343 74.7059 58.412 74.2102 59.4918C72.8179 59.4996 71.4237 59.5075 70.0315 59.5153C70.0276 56.1782 70.0237 52.8411 70.0179 49.5041C70.0179 48.3324 69.5048 47.8101 68.3545 47.8081C66.0154 47.8042 63.6762 47.8042 61.337 47.8042C61.3331 44.4652 61.3293 41.1281 61.3235 37.7891C61.3215 36.6194 60.8084 36.101 59.6543 36.0991C56.6393 36.0912 53.6243 36.0854 50.6094 36.0795C50.6113 32.7757 50.6152 29.4719 50.6171 26.168L50.621 26.17Z" fill="#B7ACFF"/>
<path d="M61.3427 47.8082C63.6819 47.8082 66.021 47.8082 68.3602 47.8121C69.5104 47.8121 70.0216 48.3344 70.0236 49.5081C70.0294 52.8451 70.0332 56.1822 70.0371 59.5193C59.751 59.5193 49.4668 59.5154 39.1806 59.5349C38.5551 59.5349 38.4215 59.3256 38.4273 58.7388C38.4545 55.8614 38.4215 52.9821 38.4506 50.1047C38.4583 49.287 38.4893 48.4263 39.533 47.8082C38.4332 47.8082 37.5598 47.8082 36.6865 47.8082C36.6904 44.524 36.6943 41.2397 36.7001 37.9535C36.702 36.6234 37.2152 36.0991 38.53 36.103C40.1914 36.107 41.8528 36.1226 43.5143 36.1324C42.9818 36.7759 42.8133 37.5682 42.8036 38.3565C42.7688 41.2338 42.7862 44.1132 42.792 46.9906C42.792 47.5657 43.0244 47.8297 43.6731 47.8258C49.5636 47.7984 55.456 47.8082 61.3466 47.8063L61.3427 47.8082Z" fill="#E8EEFE"/>
<path d="M50.6206 26.1699C50.6187 29.4737 50.6148 32.7776 50.6129 36.0814C49.5459 36.0814 48.479 36.0814 47.412 36.0814C47.4082 32.7776 47.4062 29.4737 47.4023 26.1699C48.4751 26.1699 49.5479 26.1699 50.6206 26.1699Z" fill="#2A428B"/>
<path d="M47.4119 36.0815C48.4789 36.0815 49.5459 36.0815 50.6128 36.0815C53.6278 36.0874 56.6428 36.0952 59.6577 36.1011C60.8138 36.105 61.325 36.6214 61.3269 37.7912C61.3327 41.1302 61.3366 44.4673 61.3405 47.8063C55.4499 47.8063 49.5575 47.7985 43.6669 47.8258C43.0182 47.8298 42.7878 47.5657 42.7859 46.9906C42.7801 44.1132 42.7626 41.2339 42.7975 38.3565C42.8072 37.5682 42.9756 36.7779 43.5082 36.1324C44.8094 36.1148 46.1087 36.0991 47.41 36.0815H47.4119Z" fill="#FEFEFE"/>
</g>
</g>
<defs>
<filter id="filter0_d_1640_4740" x="0.50813" y="0" width="97.9837" height="97.9837" filterUnits="userSpaceOnUse" color-interpolation-filters="sRGB">
<feFlood flood-opacity="0" result="BackgroundImageFix"/>
<feColorMatrix in="SourceAlpha" type="matrix" values="0 0 0 0 0 0 0 0 0 0 0 0 0 0 0 0 0 0 127 0" result="hardAlpha"/>
<feOffset dy="2.99187"/>
<feGaussianBlur stdDeviation="1.49593"/>
<feComposite in2="hardAlpha" operator="out"/>
<feColorMatrix type="matrix" values="0 0 0 0 0 0 0 0 0 0 0 0 0 0 0 0 0 0 0.25 0"/>
<feBlend mode="normal" in2="BackgroundImageFix" result="effect1_dropShadow_1640_4740"/>
<feBlend mode="normal" in="SourceGraphic" in2="effect1_dropShadow_1640_4740" result="shape"/>
</filter>
<clipPath id="clip0_1640_4740">
<rect width="71" height="75" fill="white" transform="translate(13.5 8)"/>
</clipPath>
</defs>
</svg>
