<svg width="170" height="236" viewBox="0 0 170 236" fill="none" xmlns="http://www.w3.org/2000/svg">
<path fill-rule="evenodd" clip-rule="evenodd" d="M148.495 236C150.486 230.99 152.756 226.091 155.026 221.194L155.026 221.193C155.653 219.84 156.281 218.487 156.902 217.131C157.179 216.528 157.684 216.033 158.191 215.535C158.473 215.259 158.755 214.982 158.999 214.686C159.34 214.273 159.734 213.871 160.13 213.468C161.043 212.538 161.96 211.603 162.23 210.511C162.99 207.45 163.86 204.415 164.73 201.38L164.731 201.379C166.697 194.524 168.663 187.67 169.356 180.509C170.402 169.784 170.275 159.097 168.222 148.499C167.336 143.925 165.353 139.801 161.761 136.627C159.911 134.986 158.074 133.536 155.363 133.276C154.129 133.156 152.935 132.625 151.738 132.093C151.098 131.808 150.456 131.522 149.807 131.299C143.336 129.071 136.856 126.863 130.379 124.655L130.374 124.654L130.275 124.62L128.263 123.934C127.437 123.653 126.611 123.371 125.785 123.089C124.182 122.545 122.839 121.86 122.63 119.859C122.56 119.2 121.901 118.49 121.338 118.009L120.96 117.688C118.191 115.33 115.416 112.967 112.526 110.762C111.392 109.9 109.973 109.267 108.585 108.924C107.287 108.601 106.603 108.006 106.349 106.764C105.834 104.231 105.313 101.698 104.793 99.1654L104.777 99.0861C104.521 97.8445 104.266 96.6029 104.012 95.3613C103.649 93.5871 104.766 93.464 106.06 93.3212L106.115 93.3152C106.976 93.2201 108.047 93.0048 108.585 92.4346C109.739 91.2069 110.776 89.8715 111.777 88.5805L111.778 88.5801L111.779 88.5787L111.78 88.5765C112.153 88.0969 112.52 87.6235 112.887 87.1639C113.583 87.3291 114.26 87.5291 114.923 87.725L114.924 87.7252L114.924 87.7253L114.925 87.7253L114.925 87.7254L114.925 87.7254C116.398 88.1605 117.803 88.5755 119.196 88.545C120.683 88.5096 122.169 87.8811 123.627 87.2648L123.627 87.2648C123.995 87.1089 124.362 86.9537 124.727 86.8092C125.038 86.6839 125.243 86.2904 125.448 85.8961C125.544 85.7123 125.64 85.5283 125.747 85.3712C125.604 85.2946 125.462 85.2139 125.321 85.1332C125.006 84.9533 124.692 84.7738 124.359 84.6426C123.967 84.4856 123.559 84.3736 123.097 84.2467C122.888 84.1893 122.668 84.1289 122.434 84.0598C122.919 83.6901 123.395 83.338 123.861 82.9938L123.861 82.9937C124.974 82.1701 126.027 81.3917 127.001 80.5249C127.351 80.2144 127.532 79.7107 127.712 79.2075L127.712 79.2074C127.793 78.9818 127.874 78.7563 127.97 78.5484C127.754 78.4994 127.538 78.4363 127.321 78.3731L127.321 78.3731L127.321 78.373L127.32 78.3729L127.32 78.3729L127.32 78.3728C126.838 78.2324 126.356 78.0919 125.88 78.105C121.673 78.2127 119.779 76.4896 119.52 72.2579C119.165 66.4677 120.375 60.8993 121.895 55.3689C124.214 46.9308 124.486 38.4737 121.521 30.1686C118.322 21.2237 112.716 14.2996 103.689 10.619C102.958 10.3209 102.171 10.1726 101.381 10.024C100.862 9.92634 100.342 9.82848 99.8369 9.68777C99.2731 9.5294 98.6459 9.276 98.2532 8.86423C92.5581 2.86506 85.3362 0.565477 77.3352 0.071353C67.7568 -0.517795 59.154 2.61166 50.8679 6.95742C50.6031 7.09617 50.3387 7.23651 50.0741 7.37694L50.0739 7.37703L50.0731 7.37746L50.073 7.37751C49.1539 7.86522 48.2328 8.35409 47.2887 8.78188C37.9763 13.0136 32.75 20.7929 29.1201 29.8709C28.1721 32.2453 27.4254 34.7004 26.6787 37.1558L26.6786 37.1559L26.6786 37.1559L26.6786 37.156L26.6786 37.1561L26.6785 37.1561C26.3575 38.2119 26.0364 39.2677 25.6992 40.3172C24.4829 44.0801 25.5155 47.4249 27.7074 50.491C28.5137 51.6179 29.3703 52.7087 30.2266 53.7991L30.2266 53.7992L30.2267 53.7993L30.2268 53.7994L30.2269 53.7995L30.227 53.7996C30.9784 54.7565 31.7294 55.713 32.4459 56.6929C32.7817 57.1554 32.883 57.8522 32.9527 58.4604C33.2505 60.9564 33.5363 63.4538 33.822 65.9513C34.3936 70.9459 34.9651 75.9406 35.6324 80.924C35.8604 82.6155 35.3347 83.2806 33.8713 83.6037C33.7334 83.6346 33.5929 83.6602 33.4523 83.6859C33.1021 83.7498 32.7515 83.8138 32.4396 83.9585C32.313 84.0181 32.1757 84.0775 32.0351 84.1383C31.4438 84.3941 30.794 84.6752 30.6405 85.1051C30.524 85.433 30.8042 85.9019 31.1148 86.4218C31.2603 86.6653 31.4125 86.92 31.5337 87.1766C31.5844 87.0689 31.559 87.2273 31.4703 87.297C30.9536 87.7095 30.4304 88.1122 29.9076 88.5145L29.9052 88.5164L29.9026 88.5184L29.8999 88.5205L29.8993 88.5209L29.8977 88.5221L29.8961 88.5234C29.6921 88.6804 29.4882 88.8373 29.2848 88.9947C29.5138 89.1985 29.7338 89.4272 29.9543 89.6563C30.4534 90.1751 30.9545 90.6959 31.5654 90.9332C33.0541 91.516 34.6885 91.9975 36.2659 92.0165C38.1284 92.0418 38.9266 92.8907 39.7881 94.3858C39.9785 94.7162 40.1687 95.0475 40.3591 95.3791L40.3592 95.3793L40.3593 95.3795L40.3594 95.3797C42.2017 98.5892 44.0633 101.832 46.3828 104.68C51.2797 110.692 57.6906 113.638 65.6029 112.706C66.0907 112.649 66.5849 112.624 67.079 112.624C67.1489 112.624 67.2189 112.674 67.3751 112.786C67.4736 112.856 67.6063 112.951 67.7948 113.074C66.9712 113.957 66.1542 114.836 65.3407 115.711L65.3403 115.712C63.2817 117.927 61.2452 120.119 59.1793 122.285C58.9113 122.567 58.6466 122.861 58.3808 123.156L58.3806 123.156L58.3804 123.156L58.3803 123.157L58.3801 123.157L58.3799 123.157C57.4461 124.194 56.4975 125.248 55.334 125.864C52.515 127.353 49.5376 128.664 46.4841 129.57C36.1138 132.655 26.0286 136.051 21.1381 147.023C20.2912 148.918 19.5036 150.84 18.7158 152.762C18.166 154.103 17.616 155.445 17.0457 156.778C11.9208 168.745 7.6827 180.991 5.40212 193.844L5.37875 193.976L5.37 194.025L5.3433 194.173L5.31741 194.316C4.9356 196.425 4.55666 198.517 6.13064 200.527C6.50072 200.991 6.2961 201.97 6.11668 202.828C6.07805 203.013 6.04058 203.192 6.01027 203.359C5.35705 207 4.67295 210.636 3.9889 214.272L3.98866 214.273C2.62806 221.505 1.26765 228.736 0.150753 236H2.96504C3.00076 235.742 3.03691 235.484 3.07306 235.226C3.28717 233.699 3.50152 232.17 3.62833 230.644L3.61567 230.631C4.2562 222.891 6.09496 215.398 7.93511 207.899L7.93522 207.898L7.93533 207.898L7.93545 207.897L7.93557 207.897C8.26099 206.571 8.58645 205.245 8.90533 203.917C9.36778 201.978 10.413 201.332 12.2565 201.756C12.6687 201.852 13.082 201.943 13.4952 202.035C14.8728 202.342 16.2504 202.649 17.5905 203.068C22.0612 204.471 22.063 204.596 22.1195 208.643L22.1243 208.98L22.1276 209.191L22.1303 209.355L22.1327 209.491L22.1387 209.83C22.2946 218.556 22.4506 227.289 22.9063 236H26.206C25.4824 230.997 25.4406 225.886 25.399 220.785V220.785V220.785V220.784V220.784V220.784C25.3866 219.277 25.3743 217.772 25.3445 216.27C25.279 212.986 25.367 209.697 25.4549 206.408L25.4549 206.408C25.4946 204.925 25.5343 203.442 25.5599 201.959C25.5852 200.483 26.0033 197.126 26.5544 195.174L28.7083 184.868C29.0567 183.214 30.5518 175.555 30.9192 173.376C30.8365 173.347 30.7539 173.317 30.6712 173.287L30.492 173.221L30.4916 173.221L30.4912 173.221L30.4904 173.22L30.3442 173.167L30.2052 173.116C30.1805 173.107 30.1557 173.098 30.1309 173.089C30.1086 173.081 30.0863 173.074 30.064 173.066C29.9542 173.24 29.8321 173.411 29.7099 173.582C29.4512 173.944 29.1924 174.306 29.0504 174.706C26.2884 182.41 23.596 190.145 22.8105 198.367C22.6395 200.192 21.9236 200.375 20.3145 199.843C17.7109 198.988 15.0502 198.285 12.3705 197.702C9.50715 197.081 8.96235 196.828 9.5515 193.945C10.9325 187.192 12.4909 180.458 14.233 173.788C17.052 163.012 21.6765 152.984 27.2703 143.38C28.3219 141.581 29.8803 140.529 31.8251 139.839C35.6823 138.472 39.5244 137.07 43.3672 135.667L43.3714 135.665C45.6176 134.846 47.8641 134.026 50.114 133.213C50.6465 133.019 51.1925 132.87 51.8606 132.689L51.8613 132.689L51.8629 132.688L51.8634 132.688L51.8703 132.686C52.2248 132.59 52.6138 132.484 53.0534 132.357C52.7075 133.246 52.465 133.861 52.2497 134.408L52.2485 134.411L52.0272 134.974C51.5925 136.075 51.1499 137.173 50.7073 138.271C49.6727 140.837 48.6385 143.403 47.7068 146.003C46.6678 148.904 47.8145 150.222 50.7349 149.449C56.3096 147.967 61.7576 148.106 67.1043 150.304C67.3958 150.425 67.6989 150.536 68.0029 150.647L68.0036 150.647C69.7738 151.295 71.5756 151.954 71.3107 154.625C71.2854 154.916 71.5578 155.29 71.7858 155.549C74.8646 159.059 75.175 163.31 75.023 167.681C74.9869 168.741 74.9698 169.804 74.9528 170.867C74.9099 173.538 74.8669 176.21 74.5225 178.843C74.2881 180.623 74.6746 181.605 76.1823 181.776C78.8176 182.08 81.4973 182.125 84.158 182.049C84.7598 182.029 85.6847 181.193 85.8684 180.566C87.148 176.1 87.2747 171.533 86.7109 166.94C86.6159 166.173 86.4575 165.381 86.1344 164.697C85.9688 164.353 85.6503 164.081 85.3315 163.808C85.1869 163.684 85.0423 163.561 84.9118 163.43C84.8122 163.583 84.6921 163.732 84.5722 163.882L84.572 163.882C84.3029 164.218 84.0346 164.553 83.9996 164.913C83.9175 165.761 83.9536 166.626 83.9897 167.49V167.49C84.0038 167.827 84.0178 168.163 84.0249 168.498C84.0409 169.167 84.0683 169.835 84.0957 170.504C84.155 171.951 84.2143 173.396 84.158 174.839C83.9932 178.919 83.9362 178.919 79.9706 178.799C79.8994 178.796 79.8282 178.793 79.7571 178.79H79.7566H79.7564H79.7563H79.7562H79.756C79.473 178.778 79.1908 178.766 78.9126 178.786C77.3226 178.9 76.7714 178.146 76.9108 176.613C77.2085 173.452 77.4809 170.291 77.6773 167.123C77.9117 163.303 77.5189 159.636 74.7379 156.645C74.7176 156.62 74.7785 156.514 74.8133 156.453L74.8237 156.434C74.8276 156.427 74.8308 156.422 74.8329 156.417C75.4146 156.834 75.9929 157.255 76.5709 157.675L76.5724 157.676C78.1028 158.789 79.6308 159.9 81.2122 160.934C81.7628 161.294 82.4203 161.488 83.079 161.682C83.3827 161.771 83.6867 161.861 83.9806 161.967L83.9803 161.965C83.7713 161.079 83.5624 160.193 83.3661 159.3C83.3506 159.222 83.354 159.137 83.3591 159.015C83.3623 158.938 83.3661 158.845 83.3661 158.73C84.2044 158.191 85.0532 157.653 85.9064 157.113L85.9073 157.113L85.908 157.112C87.8719 155.869 89.8595 154.611 91.7979 153.282C98.4812 148.695 105.963 146.769 113.945 146.75C115.728 146.746 117.509 147.056 119.292 147.366L119.292 147.366L119.293 147.366L119.294 147.366L119.294 147.366L119.295 147.366C120.228 147.528 121.162 147.691 122.098 147.808C125.55 148.239 127.185 147.048 127.14 143.608C127.096 140.681 126.634 137.729 126.076 134.847C125.712 132.96 125.169 131.107 124.612 129.21L124.612 129.209L124.612 129.208C124.365 128.366 124.115 127.516 123.878 126.65C124.066 126.65 124.216 126.64 124.338 126.633C124.538 126.621 124.665 126.613 124.771 126.656C128.894 128.334 133.118 129.748 137.341 131.163L137.341 131.163L137.342 131.163C144.006 133.395 150.67 135.626 156.94 138.895C157.009 138.931 157.079 138.975 157.15 139.019C157.341 139.138 157.534 139.258 157.7 139.231C159.381 138.934 160.129 140.131 160.824 141.243L160.83 141.252C161.723 142.677 162.603 144.147 163.224 145.705C165.454 151.337 166.626 157.222 166.696 163.259C166.848 176.689 164.935 189.828 160.716 202.599C160.262 203.986 159.69 205.332 159.111 206.695L159.111 206.696L159.111 206.696L159.11 206.697L159.11 206.697L159.11 206.697L159.11 206.698L159.11 206.698L159.11 206.699C158.84 207.332 158.57 207.97 158.308 208.617L158.289 208.567C146.912 200.325 133.865 198.807 120.49 197.252L119.843 197.176C120.032 196.661 120.214 196.168 120.391 195.691C120.784 194.633 121.149 193.651 121.49 192.66C124.138 185.007 125.88 177.196 125.398 169.037C125.372 168.575 125.044 168.13 124.714 167.686C124.56 167.478 124.406 167.27 124.283 167.06C124.165 167.265 124.029 167.466 123.892 167.667C123.589 168.114 123.286 168.56 123.181 169.049C122.702 171.312 122.255 173.581 121.807 175.851L121.807 175.852C121.043 179.732 120.278 183.611 119.355 187.452C118.627 190.482 117.353 193.4 116.098 196.274L116.098 196.274L116.061 196.359C114.99 198.798 114.806 200.756 116.884 202.213C119.108 203.771 118.721 205.336 118.012 207.262C117.845 207.717 117.707 208.182 117.57 208.647C117.448 209.063 117.325 209.478 117.182 209.884C116.117 212.909 115.04 215.929 113.962 218.95L113.961 218.952L113.96 218.955L113.959 218.958L113.958 218.961L113.957 218.964L113.957 218.965L113.957 218.965L113.957 218.966L113.956 218.966L113.956 218.967C111.934 224.636 109.912 230.305 107.973 236H112.404C115.373 226.318 118.442 216.663 121.528 207.014C121.67 206.57 121.801 206.085 121.935 205.591L121.935 205.59L121.935 205.59C122.402 203.866 122.898 202.03 124.011 201.414C125.157 200.778 126.891 201.158 128.579 201.527C129.177 201.658 129.769 201.788 130.327 201.87C138.581 203.099 146.468 205.247 153.101 210.72C154.349 211.753 154.583 212.621 154.07 214.141C151.537 221.604 148.538 228.86 145.275 236H148.495ZM65.2419 120.321C63.6898 122.031 62.0871 123.761 60.2499 125.129C58.4571 126.46 57.3358 127.993 56.6137 130.102C55.3379 133.813 53.9283 137.476 52.5187 141.139L52.5186 141.139C52.0874 142.259 51.6563 143.38 51.229 144.501C50.7349 145.806 51.229 146.516 52.5086 146.415C54.8433 146.234 57.1748 145.979 59.574 145.717L59.5743 145.717L59.5746 145.717L59.5769 145.716L59.5795 145.716L59.5825 145.716L59.5856 145.715L59.5903 145.715C60.6296 145.601 61.6817 145.486 62.7522 145.376C63.1386 138.204 63.7658 130.945 66.021 123.983C66.1793 123.995 66.3392 124.006 66.4991 124.017C66.6591 124.028 66.8192 124.04 66.9776 124.052C66.9776 124.31 66.9852 124.57 66.9928 124.829V124.829C67.0092 125.391 67.0256 125.953 66.965 126.504C66.8385 127.649 66.7146 128.795 66.5907 129.941L66.5907 129.941L66.5907 129.941L66.5906 129.941L66.5906 129.941L66.5906 129.942C66.0937 134.536 65.5969 139.13 64.9378 143.703C64.6717 145.553 65.0328 146.478 66.8509 146.845C67.2457 146.925 67.6239 147.097 68.1108 147.318L68.1111 147.318L68.1132 147.319C68.3601 147.431 68.6349 147.556 68.9541 147.688C67.6429 140.604 68.0597 133.626 68.4741 126.687L68.4741 126.686C68.6764 123.299 68.8781 119.922 68.8781 116.545L68.0419 116.431C67.7571 116.835 67.4837 117.249 67.2104 117.662L67.2103 117.662C66.5962 118.591 65.9827 119.518 65.2419 120.334V120.321ZM105.83 72.3402C107.933 69.2551 109.118 65.9293 107.661 62.1727C106.394 58.9038 103.79 58.2133 100.939 60.2342C100.413 60.6054 99.7682 60.8045 99.1198 61.0048C98.684 61.1395 98.2463 61.2747 97.8414 61.4631C97.3219 61.7039 96.8088 62.0966 96.4794 62.5527C95.5483 63.8343 94.6404 65.1327 93.7326 66.431C93.0653 67.3853 92.3981 68.3394 91.7218 69.2868C91.5804 69.4832 91.3878 69.6407 91.0821 69.8906C90.8949 70.0437 90.6652 70.2314 90.3788 70.4841C90.3788 70.0766 90.3593 69.7224 90.3419 69.4073C90.3098 68.826 90.285 68.3781 90.4042 67.9755C91.9626 62.7555 92.0323 57.4088 91.8549 52.0368C91.8295 51.2956 91.6775 50.4024 91.2404 49.8639C86.2231 43.7634 82.7009 36.9533 81.1425 28.5215C77.0438 36.2058 70.7406 39.9181 62.7205 41.6221C62.5241 39.9054 63.4157 38.7797 64.3102 37.6502C64.9737 36.8124 65.6388 35.9726 65.8627 34.8881C65.6677 34.9447 65.4845 35.0013 65.3087 35.0557C64.9534 35.1654 64.6285 35.2658 64.2979 35.3379C62.6682 35.7008 61.037 36.0589 59.4055 36.417L59.4035 36.4175C56.4505 37.0657 53.4969 37.7141 50.5512 38.3913C49.8448 38.5536 49.1635 38.8526 48.4858 39.15L48.4857 39.15C48.264 39.2473 48.0426 39.3444 47.8208 39.4366C47.5891 39.5347 47.36 39.6522 47.1313 39.7696L47.1312 39.7696L47.1311 39.7696L47.131 39.7697L47.131 39.7697L47.1309 39.7697C46.178 40.2586 45.2321 40.7439 44.1339 39.804C44.0388 39.7217 43.8171 39.671 43.7348 39.7217C43.0692 40.1677 42.3868 40.596 41.7046 41.0242L41.7046 41.0242C39.9453 42.1283 38.1873 43.2316 36.722 44.6376C36.1005 45.2336 35.9824 46.3531 35.8507 47.602C35.7865 48.2116 35.719 48.852 35.5881 49.4775C40.1619 47.5896 43.8678 48.0901 47.0353 51.1499C47.4247 51.5263 47.6338 52.0949 47.8424 52.6617C47.9391 52.9248 48.0357 53.1875 48.1502 53.4305C47.9116 53.4048 47.6626 53.3994 47.4136 53.3941H47.4136C46.8627 53.3822 46.3123 53.3703 45.876 53.139C42.8415 51.53 39.6804 51.4159 36.0315 52.1318C36.0917 52.8924 36.1486 53.6591 36.2058 54.4299L36.206 54.4322L36.2061 54.4343C36.3413 56.2561 36.4781 58.101 36.665 59.9428L36.703 60.3168C37.5388 68.535 38.3737 76.7436 40.7637 84.7187C43.209 92.859 47.9285 99.5361 53.9213 105.345C55.1376 106.53 57.0888 107.334 58.8056 107.562C64.7541 108.348 70.3541 107.201 75.1243 103.324C75.8455 102.738 76.5742 102.16 77.3027 101.582L77.3029 101.582C81.8606 97.9658 86.4155 94.3516 89.1245 88.868C89.1823 88.7514 89.2387 88.638 89.2936 88.5277C89.3992 88.3157 89.4995 88.115 89.5948 87.9243C91.2776 84.5576 91.4045 84.3036 91.177 80.2209C96.8215 79.9738 97.3156 79.8281 99.3935 77.8326C99.2296 77.6536 99.0579 77.4792 98.8859 77.3045C98.4797 76.8918 98.0725 76.4781 97.7654 76.0018C97.4993 75.5837 97.3156 74.8488 97.512 74.4814C97.6444 74.2386 98.0384 74.1373 98.4322 74.0361L98.4324 74.036C98.6036 73.992 98.7749 73.9479 98.9247 73.8923C98.9777 73.8746 99.0525 73.8952 99.1188 73.9135L99.1337 73.9176C101.63 74.4688 104.145 74.8108 105.842 72.3212L105.83 72.3402ZM104.056 112.763C101.59 109.034 101.032 104.821 100.474 100.608C100.321 99.4532 100.168 98.2987 99.9763 97.1541C99.7102 95.5577 99.5582 93.936 99.4948 92.3206C99.4314 90.7622 98.8803 89.983 97.1952 90.0653C96.8034 90.0828 96.4025 89.8488 96.0009 89.6144L96.0008 89.6143C95.8182 89.5077 95.6353 89.401 95.4531 89.3178C95.587 89.1839 95.7169 89.0453 95.8467 88.9068L95.8467 88.9068L95.8471 88.9065L95.8472 88.9063C96.1164 88.6191 96.3851 88.3324 96.6884 88.0888C97.0782 87.7735 97.4983 87.4945 97.9173 87.2162C98.1043 87.092 98.2911 86.9679 98.4749 86.8409C98.44 86.7552 98.4035 86.6679 98.367 86.5806L98.3666 86.5797L98.3659 86.5779L98.3648 86.5752C98.3292 86.4901 98.2936 86.405 98.2595 86.3214C97.6608 86.1979 97.062 86.073 96.4421 85.9436L96.4419 85.9436L96.4385 85.9429C95.787 85.8069 95.112 85.666 94.3889 85.5169C94.3051 85.7137 94.2151 85.9043 94.1264 86.0921C93.9469 86.4725 93.7727 86.8414 93.6667 87.2273C91.5255 94.9812 86.2992 100.619 80.6041 105.82C79.1701 107.132 77.485 108.16 75.7959 109.191C74.7761 109.813 73.755 110.436 72.7867 111.123C72.1659 111.566 71.5324 112.472 71.5071 113.181C71.485 113.817 71.4624 114.453 71.4399 115.088C71.2425 120.649 71.045 126.214 71.1587 131.768C71.26 136.678 71.7478 141.594 72.3116 146.484C72.6641 149.551 74.8993 151.55 77.0796 153.499L77.2402 153.643C80.9368 156.953 80.9435 156.947 84.4476 153.918C84.5646 153.817 84.6854 153.713 84.8104 153.605C91.3101 148.011 96.6948 141.594 100.47 133.871C103.384 127.91 104.145 121.487 104.537 114.993C104.582 114.252 104.449 113.359 104.056 112.757V112.763ZM106.216 126.022C104.765 133.485 101.433 140.935 95.0097 147.175C95.9443 146.924 96.8493 146.686 97.7311 146.454L97.7342 146.454C100.282 145.784 102.636 145.166 104.956 144.432C105.513 144.254 106.146 143.234 106.159 142.588C106.234 138.075 106.226 133.565 106.22 129.397C106.218 128.241 106.216 127.112 106.216 126.016V126.022ZM121.279 128.516L121.279 128.512C120.96 126.825 120.642 125.139 120.242 123.476C120.039 122.646 119.615 121.74 119.013 121.163C116.422 118.712 113.755 116.349 111.062 114.018C110.505 113.538 109.866 113.153 109.227 112.768L109.226 112.768C108.928 112.588 108.629 112.408 108.338 112.219C108.231 112.557 108.109 112.893 107.987 113.23L107.987 113.23L107.987 113.23L107.987 113.23L107.987 113.23L107.987 113.231L107.987 113.231L107.987 113.231L107.987 113.231L107.987 113.231L107.987 113.231C107.721 113.966 107.455 114.7 107.337 115.456C107.078 117.122 106.843 118.832 106.957 120.498C107.018 121.35 107.238 122.191 107.458 123.032C107.678 123.873 107.898 124.714 107.958 125.566C108.231 129.431 108.376 133.301 108.402 137.178C108.41 138.649 108.267 140.122 108.115 141.69C108.043 142.432 107.969 143.195 107.908 143.988C108.119 143.988 108.317 143.988 108.503 143.988L108.865 143.987H108.866H108.868H108.869H108.87C109.384 143.985 109.821 143.984 110.258 143.988C111.391 144.005 112.525 144.012 113.659 144.019L113.664 144.019H113.664H113.664H113.665H113.665H113.665C116.315 144.035 118.966 144.051 121.604 144.197C123.922 144.33 124.258 144.273 123.853 141.885C123.398 139.179 122.857 136.49 122.316 133.8L122.315 133.799L122.315 133.797L122.315 133.795L122.315 133.794C122.095 132.701 121.875 131.608 121.661 130.514V130.508C121.53 129.844 121.405 129.18 121.279 128.516ZM53.0278 87.6832C57.2975 87.1891 61.5672 86.676 65.8243 86.1122C68.2126 85.7954 68.9601 86.4416 68.7257 88.8235C68.2949 93.22 64.1772 96.6092 59.331 96.5521C55.7328 96.5141 52.4829 94.0688 51.2286 90.4579C50.5761 88.5701 51.0386 87.9113 53.0214 87.6832H53.0278ZM60.1165 93.9295C63.5564 93.4354 65.5202 91.7059 65.4569 89.0199C63.8446 89.2366 62.2373 89.4532 60.63 89.6699L60.6227 89.6709C58.6138 89.9417 56.6048 90.2125 54.5861 90.4833C55.302 93.1186 57.3545 94.3222 60.1165 93.9295ZM50.9019 78.5389C50.508 78.3053 50.1134 78.0712 49.7461 77.8072H49.7398C47.4402 76.1474 47.2628 75.3936 49.0493 73.2143C51.5706 70.1292 53.0213 66.7147 52.6475 62.6984C52.4068 60.1327 51.843 57.6304 50.0312 55.6856L49.309 55.9263C49.3637 56.1532 49.4125 56.3819 49.4614 56.6106L49.4615 56.611L49.4615 56.6111C49.5653 57.0975 49.6691 57.5833 49.8285 58.0485C51.7226 63.5409 50.4303 68.2858 46.585 72.5048C43.8736 75.4886 43.8863 76.6035 46.8574 79.3275C48.1371 80.4995 49.6574 81.4751 51.2095 82.267C51.6369 82.485 52.2416 82.3518 52.8456 82.2186C53.1188 82.1584 53.3919 82.0982 53.6484 82.0706C53.5563 81.8334 53.4824 81.5774 53.4084 81.3213C53.2434 80.75 53.0783 80.1784 52.7109 79.8153C52.1915 79.3039 51.5476 78.9219 50.9019 78.5389ZM79.0772 48.4261C73.9015 47.5328 69.1693 48.6795 64.7096 51.3401C64.3236 51.5699 63.8249 51.6068 63.3252 51.6438C63.0948 51.6608 62.8642 51.6779 62.6444 51.7139C62.7284 51.4878 62.7928 51.2416 62.8572 50.9955C62.9968 50.4621 63.1361 49.9294 63.4742 49.6044C66.9331 46.2848 71.1522 44.7518 75.9731 44.4034C76.5391 44.5285 77.1082 44.6444 77.6774 44.7602L77.6779 44.7603L77.6783 44.7604L77.6787 44.7605C79.0969 45.0491 80.516 45.3378 81.8899 45.7717C82.3268 45.9101 82.6574 46.3883 82.9885 46.8673C83.1423 47.0897 83.2962 47.3123 83.4609 47.5012C83.2481 47.6085 83.0383 47.7304 82.8286 47.8522C82.3577 48.1256 81.8871 48.3988 81.3831 48.5084C80.6482 48.6668 79.831 48.5654 79.0772 48.4324V48.4261ZM77.8611 61.096C75.0548 58.6127 70.519 59.1132 68.2764 62.097V62.0906C68.0399 62.4087 67.8559 62.7687 67.5926 63.2839L67.5924 63.2843L67.5924 63.2844C67.4467 63.5695 67.2767 63.9022 67.0601 64.3015C67.381 64.3747 67.7077 64.4838 68.0114 64.5852L68.0115 64.5852L68.0115 64.5853C68.6012 64.7822 69.1041 64.9501 69.309 64.7703C71.5959 62.7875 74.0919 63.1802 76.7145 63.7124C77.1288 63.7952 77.6092 63.5599 78.0894 63.3245C78.3068 63.218 78.5241 63.1115 78.7354 63.0345C78.6443 62.8241 78.5713 62.5942 78.4985 62.3648C78.3434 61.8761 78.1888 61.3892 77.8611 61.096ZM46.5026 66.3091C44.6022 65.1878 42.8284 65.1118 40.9659 66.4168C40.6111 66.6639 39.6863 66.6512 39.4455 66.3851C39.0971 65.9987 38.9451 65.2322 39.0464 64.6937C39.3315 63.1417 41.4157 61.7226 43.6076 61.2032C43.9774 61.4854 44.3505 61.7647 44.7238 62.0442L44.7243 62.0445C45.8091 62.8565 46.8958 63.6701 47.909 64.5607C48.1877 64.8078 48.2004 65.739 47.9533 66.0747C47.7379 66.3725 46.8447 66.5245 46.4963 66.3155L46.5026 66.3091Z" fill="#DDDDDD"/>
</svg>
