<svg width="429" height="240" viewBox="0 0 429 240" fill="none" xmlns="http://www.w3.org/2000/svg">
<path d="M300.498 110.287C300.498 107.243 297.959 104.778 294.826 104.778H134.172C131.039 104.778 128.5 107.247 128.5 110.287V112.441H300.498V110.287Z" fill="#9180FF"/>
<path d="M128.5 112.441V192.429C128.5 195.473 131.039 197.938 134.172 197.938H294.826C297.959 197.938 300.498 195.47 300.498 192.429V112.441H128.5Z" fill="white"/>
<path d="M289.888 128.252H177.37V137.898H289.888V128.252Z" fill="#5B5B5B"/>
<path d="M238.374 140.231H177.37V145.052H238.374V140.231Z" fill="#B3B3B3"/>
<path d="M289.888 162.143H177.37V171.789H289.888V162.143Z" fill="#5B5B5B"/>
<path d="M238.374 174.125H177.37V178.946H238.374V174.125Z" fill="#B3B3B3"/>
<path d="M238.374 38.6535C239.506 37.8643 240.621 38.047 241.838 38.5369C247.328 40.7374 250.983 45.9238 250.881 51.9772C250.738 60.6431 250.854 69.2975 251.581 77.9362C252.654 90.6961 254.295 103.355 258.964 115.407C259.944 117.938 261.11 120.391 262.646 122.631C263.221 123.467 263.299 123.992 262.452 124.699C259.796 126.915 257.036 128.902 253.514 129.438C252.627 129.575 252.363 129.944 252.363 130.826C252.39 143.687 252.394 156.552 252.359 169.413C252.359 170.443 252.915 171.089 253.44 171.804C260.865 181.897 268.295 191.986 275.721 202.075C276.76 203.485 276.619 204.808 275.297 206.044C275.11 206.219 274.955 206.425 274.788 206.616C272.782 208.323 270.717 209.967 268.995 211.977C268.777 212.067 268.451 212.082 268.641 212.467L268.661 212.432C267.541 212.592 266.993 213.556 266.305 214.244C265.274 215.278 264.722 215.399 263.715 214.057C253.793 200.827 243.79 187.663 233.806 174.479C232.873 173.25 231.944 172.018 230.754 170.443C230.159 174.312 229.607 177.823 229.078 181.337C226.859 196.084 224.623 210.826 222.465 225.585C222.263 226.977 221.396 226.751 220.556 226.864C218.437 226.84 216.319 226.852 214.2 226.774C213.134 226.735 213.057 227.245 213.22 228.077C213.702 230.511 216.661 231.486 218.717 229.904C219.371 229.399 219.65 228.485 220.556 228.275C221.968 229.671 221.454 231.63 221.991 233.286C222.185 233.885 222.263 234.488 222.613 235.059C223.663 236.782 223.418 237.551 221.571 238.819C220.724 239.165 219.849 239.254 218.935 239.247C215.074 239.219 211.21 239.278 207.349 239.219C204.663 239.18 201.949 239.554 199.298 238.815C198.135 238.597 197.187 237.89 196.125 237.443C195.173 237.038 194.411 236.506 194.512 235.316C194.617 234.103 195.558 233.695 196.514 233.528C201.969 232.571 206.529 229.589 211.513 226.93C208.893 227.28 209.099 225.826 209.184 224.119C210.638 194.754 212.042 165.389 213.449 136.024C213.698 130.861 213.931 125.698 214.173 120.531C217.695 120.955 221.233 121.282 224.736 121.849C226.365 122.114 226.862 121.842 226.851 120.104C226.777 109.692 226.808 99.2805 226.824 88.8689C226.824 87.6247 226.691 86.4234 226.248 85.2609C223.822 78.8849 223.636 72.3028 224.258 65.5963C224.829 59.4263 225.144 53.2329 225.572 47.0513C225.556 46.1337 225.785 45.3639 226.765 45.0374C230.634 42.9029 234.502 40.7724 238.37 38.638L238.374 38.6535ZM227.411 133.672C227.418 133.762 227.426 134.411 227.539 135.041C228.013 137.739 230.225 139.978 232.605 140.208C235.007 140.441 237.422 138.649 238.347 135.896C239.175 133.431 238.907 131.067 237.515 128.859C237.208 128.377 236.714 127.977 236.823 127.323C237.049 125.943 236.201 125.889 235.202 125.947C234.494 125.986 233.783 125.947 233.075 125.955C231.396 125.982 229.331 125.345 229.242 128.159C229.238 128.311 229.008 128.455 228.892 128.61C227.869 129.936 227.403 131.448 227.418 133.672H227.411ZM239.786 117.658C239.692 119.614 239.626 121.138 239.541 122.658C239.506 123.245 239.657 123.642 240.307 123.766C241.072 123.914 241.115 123.35 241.279 122.872C241.908 121.033 241.29 119.497 239.789 117.658H239.786Z" fill="#302F44"/>
<path d="M300.494 14.2649C300.494 16.9825 300.51 19.6962 300.49 22.4138C300.467 25.563 298.208 27.9968 295.047 28.0434C289.488 28.1251 283.924 28.1251 278.365 28.0434C275.48 28.0006 273.011 25.3491 272.964 22.2466C272.883 16.9436 272.871 11.6367 272.964 6.33761C273.03 2.74525 275.472 0.521406 279.095 0.51363C284.138 0.501967 289.184 0.501967 294.227 0.51363C298.278 0.521406 300.486 2.70637 300.494 6.70307C300.498 9.22628 300.494 11.7495 300.494 14.2688V14.2649Z" fill="white"/>
<path d="M300.494 68.6441C300.494 71.2296 300.502 73.8189 300.494 76.4043C300.482 80.1366 298.216 82.3993 294.437 82.4149C289.328 82.4343 284.22 82.4304 279.111 82.4149C275.674 82.4071 273.015 79.9461 272.96 76.5326C272.879 71.2956 272.883 66.0548 272.96 60.8179C273.011 57.1284 275.437 54.8656 279.154 54.8579C284.325 54.8462 289.499 54.8462 294.67 54.8579C298.154 54.8656 300.475 57.1945 300.49 60.6857C300.502 63.3372 300.49 65.9887 300.49 68.6403L300.494 68.6441Z" fill="white"/>
<path d="M160.781 14.3193C160.781 16.9047 160.789 19.4863 160.781 22.0717C160.769 25.7923 158.499 28.0512 154.724 28.0667C149.813 28.0862 144.907 28.0706 139.996 28.0706C136.151 28.0706 133.881 26.5232 133.512 22.7209C132.94 16.827 132.831 10.8708 133.609 4.97685C133.966 2.26702 136.373 0.525271 139.114 0.517495C144.347 0.494168 149.576 0.494168 154.809 0.517495C158.541 0.536934 160.765 2.81521 160.777 6.57086C160.785 9.15627 160.777 11.7378 160.777 14.3232L160.781 14.3193Z" fill="white"/>
<path d="M160.862 63.796C160.87 67.9988 160.913 72.1976 160.87 76.4004C160.831 80.1405 158.534 82.3799 154.766 82.4032C149.661 82.4304 144.557 82.4304 139.452 82.4032C135.821 82.3838 133.441 80.1832 133.368 76.5481C133.259 71.249 133.259 65.946 133.368 60.6508C133.441 57.0739 135.766 54.8929 139.296 54.8618C143.495 54.8268 147.694 54.8773 151.897 54.889C149.821 60.9579 154.77 65.9071 160.862 63.8038V63.796Z" fill="#ADA1FF"/>
<path d="M225.579 47.0669C225.152 53.2486 224.833 59.4419 224.265 65.6119C223.643 72.3184 223.83 78.9005 226.256 85.2766C226.699 86.4429 226.831 87.6443 226.831 88.8845C226.816 99.2961 226.789 109.708 226.858 120.119C226.87 121.853 226.373 122.129 224.744 121.865C221.244 121.297 217.707 120.971 214.18 120.547C213.99 120.524 213.791 120.469 213.605 120.485C211.692 120.66 211.241 119.913 211.63 118.02C213.605 108.359 215.455 98.6741 217.341 88.9972C217.376 88.8106 217.364 88.6123 217.376 88.4179C218.227 83.9586 219.075 79.4954 219.926 75.036C221.349 68.3411 222.831 61.658 223.581 54.8426C224.25 52.2533 224.918 49.6601 225.583 47.0708L225.579 47.0669Z" fill="#9180FF"/>
<path d="M231.026 8.98553C231.411 9.01275 231.808 8.99331 232.181 9.07495C234.273 9.54538 235.68 9.34321 237.01 7.06494C238.751 4.08297 243.58 4.09463 246.243 6.66838C248.549 8.9 249.769 11.7226 250.034 14.9106C250.244 17.4416 249.124 19.3039 246.807 20.3108C245.831 20.7346 245.508 21.1117 245.726 22.2625C247.211 30.1004 245.011 34.1787 237.659 37.4639C236.111 37.289 236.971 36.2198 237.041 35.5745C237.348 32.6936 237.441 29.8593 235.466 27.4605C234.191 25.9132 233.091 26.1465 232.364 27.9504C232.161 28.4519 232.364 29.3889 231.256 29.0701C230.478 28.8485 229.84 28.6891 229.848 27.6122C229.856 26.2864 229.471 24.708 228.309 24.2297C225.451 23.0478 226.874 21.481 227.582 19.8831C227.893 19.1794 228.173 18.4602 228.464 17.7448C228.464 17.6088 228.464 17.4727 228.464 17.3405C228.382 17.3949 228.297 17.4455 228.215 17.4999C224.891 17.7176 221.641 18.7712 218.262 18.3747C217.516 15.9798 218.663 14.2613 220.346 12.8073C223.406 10.1713 227.146 9.36265 231.026 8.97776V8.98553Z" fill="#302F44"/>
<path d="M231.026 8.98529C227.146 9.37407 223.406 10.1827 220.346 12.8148C218.659 14.2689 217.516 15.9873 218.262 18.3822C216.94 21.473 215.902 24.6222 216.272 28.059C214.009 28.059 211.746 28.0824 209.484 28.0629C206.082 28.0357 203.562 25.7108 203.496 22.27C203.395 16.9709 203.403 11.664 203.496 6.36489C203.555 2.83084 206.066 0.517578 209.616 0.509803C214.724 0.498139 219.829 0.502027 224.938 0.509803C228.794 0.51369 231.018 2.76475 231.03 6.65647C231.03 7.43404 231.03 8.20772 231.03 8.98529H231.026Z" fill="white"/>
<path d="M216.272 28.0589C215.906 24.6221 216.944 21.4729 218.262 18.3821C221.641 18.7786 224.891 17.725 228.215 17.5073C228.297 17.5929 228.379 17.6745 228.468 17.7523C228.176 18.4637 227.896 19.183 227.585 19.8906C226.874 21.4885 225.451 23.0553 228.312 24.2372C229.471 24.7154 229.86 26.2938 229.852 27.6196C229.844 28.6965 230.482 28.8559 231.259 29.0775C232.371 29.3963 232.165 28.4594 232.367 27.9578C233.094 26.15 234.195 25.9206 235.47 27.468C237.445 29.8629 237.352 32.701 237.045 35.5819C236.975 36.2273 236.115 37.2964 237.663 37.4714C237.9 37.8679 238.141 38.2606 238.378 38.6572C234.51 40.7916 230.641 42.9221 226.773 45.0565C226.602 43.7813 226.423 42.51 226.264 41.2348C226.096 39.8741 225.533 39.0654 224.121 38.4356C219.674 36.4528 217.357 32.6854 216.272 28.0628V28.0589Z" fill="#F0A2A5"/>
<path d="M223.573 54.8384C222.827 61.6538 221.345 68.3408 219.919 75.0318C214.425 74.2426 208.932 73.4533 203.442 72.6641C203.45 68.9201 203.454 65.1761 203.469 61.4321C203.489 57.1283 205.751 54.8617 210.02 54.8539C214.538 54.8462 219.055 54.8423 223.573 54.8384Z" fill="white"/>
<path d="M276.463 209.279C278.38 209.395 278.963 211.308 280.34 212.167C280.919 212.529 281.296 213.143 281.996 213.443C284.188 214.38 284.639 215.923 283.31 217.879C282.886 218.501 282.28 219.037 281.669 219.492C277.482 222.614 273.252 225.678 269.076 228.815C266.798 230.526 264.123 230.938 261.445 231.268C259.87 231.463 259.019 229.915 259.785 228.504C259.998 228.112 260.282 227.746 260.585 227.416C264.438 223.263 266.301 217.98 268.781 213.05C268.901 212.813 268.987 212.587 268.664 212.44L268.645 212.475C268.8 212.63 268.944 212.63 269.08 212.447C269.586 212.463 269.897 212.821 270.196 213.147C271.3 214.345 272.645 214.543 274.084 213.983C275.519 213.423 276.016 212.191 276.106 210.741C276.137 210.235 276.051 209.695 276.463 209.279Z" fill="#302F44"/>
<path d="M203.442 72.6642C208.936 73.4534 214.425 74.2426 219.919 75.0319C219.071 79.4912 218.22 83.9545 217.372 88.4138C212.065 86.9481 206.778 85.4085 201.444 84.0672C200.013 83.7056 200.553 82.7959 200.382 82.0339C200.899 79.5184 201.078 76.9641 201.23 74.4098C201.273 72.9441 201.957 72.2948 203.442 72.6642Z" fill="#302F44"/>
<path d="M160.862 63.7962C154.77 65.8995 149.821 60.9542 151.897 54.8814C153.456 52.5526 155.47 50.9391 158.428 51.1569C161.34 51.3707 163.533 53.2369 164.334 55.9622C165.116 58.6254 164.167 61.3274 161.807 63.1353C161.5 63.3686 161.177 63.5746 160.858 63.7962H160.862Z" fill="#5643D1"/>
<path d="M201.23 74.4098C201.074 76.9641 200.899 79.5184 200.382 82.0338C199.006 81.6023 197.75 81.5945 196.296 82.1544C193.12 83.3829 190.185 82.5509 187.836 80.1249C185.29 77.4929 186.075 73.5039 189.353 71.8749C192.156 70.4792 195.939 70.9341 198.158 73.1501C199.08 74.0677 200.04 74.3981 201.234 74.4059L201.23 74.4098Z" fill="#F0A2A5"/>
<path d="M276.463 209.279C276.051 209.695 276.137 210.235 276.106 210.741C276.016 212.191 275.515 213.427 274.084 213.983C272.649 214.543 271.304 214.345 270.196 213.147C269.897 212.821 269.589 212.463 269.08 212.447C269.053 212.292 269.026 212.136 268.999 211.981C270.721 209.967 272.785 208.326 274.791 206.62C275.347 207.506 275.907 208.392 276.467 209.279H276.463Z" fill="#F0A2A5"/>
<path d="M220.56 228.283C219.654 228.493 219.378 229.41 218.721 229.912C216.668 231.494 213.71 230.518 213.224 228.084C213.057 227.248 213.134 226.743 214.204 226.782C216.319 226.86 218.441 226.844 220.56 226.871C220.56 227.342 220.56 227.812 220.56 228.286V228.283Z" fill="#F0A2A5"/>
<path d="M227.411 133.676C227.395 131.452 227.862 129.944 228.884 128.614C229.001 128.462 229.23 128.319 229.234 128.163C229.323 125.344 231.392 125.986 233.067 125.959C233.775 125.947 234.486 125.99 235.194 125.951C236.193 125.896 237.045 125.947 236.815 127.327C236.71 127.976 237.204 128.377 237.507 128.863C238.903 131.071 239.167 133.435 238.339 135.9C237.414 138.652 235 140.445 232.597 140.211C230.218 139.982 228.005 137.743 227.531 135.045C227.422 134.411 227.411 133.762 227.403 133.676H227.411Z" fill="#F0A2A5"/>
<path d="M239.789 117.658C241.294 119.497 241.908 121.033 241.278 122.872C241.115 123.35 241.072 123.914 240.306 123.766C239.657 123.642 239.509 123.245 239.54 122.658C239.63 121.138 239.692 119.614 239.785 117.658H239.789Z" fill="#9180FF"/>
<path d="M268.995 211.981C269.022 212.136 269.049 212.292 269.077 212.447C268.94 212.626 268.797 212.626 268.641 212.471C268.451 212.086 268.773 212.07 268.995 211.981Z" fill="#FEFEFE"/>
<path d="M228.215 17.5075C228.297 17.4531 228.383 17.4026 228.464 17.3481C228.464 17.4842 228.464 17.6164 228.464 17.7525C228.379 17.6747 228.293 17.5931 228.215 17.5075Z" fill="#F0A2A5"/>
<path d="M156.072 149.018C162.452 149.018 167.623 143.846 167.623 137.467C167.623 131.087 162.452 125.916 156.072 125.916C149.693 125.916 144.522 131.087 144.522 137.467C144.522 143.846 149.693 149.018 156.072 149.018Z" fill="#9180FF"/>
<path d="M156.072 182.095C162.452 182.095 167.623 176.924 167.623 170.544C167.623 164.165 162.452 158.994 156.072 158.994C149.693 158.994 144.522 164.165 144.522 170.544C144.522 176.924 149.693 182.095 156.072 182.095Z" fill="#9180FF"/>
</svg>
