<svg width="20" height="19" viewBox="0 0 20 19" fill="none" xmlns="http://www.w3.org/2000/svg">
<path d="M5.3125 17.8124C5.31278 17.4976 5.43807 17.1957 5.66083 16.9732L11.7345 10.8996C11.9183 10.7158 12.0642 10.4976 12.1637 10.2574C12.2632 10.0173 12.3144 9.75986 12.3144 9.49991C12.3144 9.23996 12.2632 8.98256 12.1637 8.7424C12.0642 8.50224 11.9183 8.28403 11.7345 8.10025L5.66875 2.03054C5.45244 1.80657 5.33274 1.50661 5.33545 1.19525C5.33816 0.883889 5.46304 0.586049 5.68322 0.365877C5.90339 0.145705 6.20123 0.0208169 6.51259 0.0181113C6.82394 0.0154057 7.12391 0.135099 7.34787 0.351412L13.4136 6.41637C14.2292 7.23358 14.6873 8.34099 14.6873 9.49556C14.6873 10.6501 14.2292 11.7575 13.4136 12.5747L7.33996 18.6484C7.17412 18.8144 6.96284 18.9275 6.73279 18.9735C6.50273 19.0194 6.26421 18.9963 6.04732 18.9068C5.83042 18.8174 5.64488 18.6657 5.5141 18.4709C5.38333 18.2762 5.31317 18.047 5.3125 17.8124Z" fill="#5B5B5B"/>
</svg>
