<svg width="83" height="86" viewBox="0 0 83 86" fill="none" xmlns="http://www.w3.org/2000/svg">
<rect width="83" height="86" rx="15" fill="#9180FF"/>
<path d="M60.9544 23.953L56.1009 18.9401C55.5048 18.3281 54.7925 17.8412 54.0058 17.508C53.2191 17.1749 52.3737 17.0021 51.5194 17H41.5C39.0516 17.0031 36.6791 17.8502 34.7823 19.3985C32.8856 20.9469 31.5807 23.1018 31.0875 25.5H30.875C28.0581 25.5034 25.3576 26.6239 23.3657 28.6157C21.3739 30.6076 20.2534 33.3081 20.25 36.125V57.375C20.2534 60.1919 21.3739 62.8924 23.3657 64.8843C25.3576 66.8761 28.0581 67.9966 30.875 68H43.625C46.4419 67.9966 49.1424 66.8761 51.1343 64.8843C53.1261 62.8924 54.2466 60.1919 54.25 57.375V57.1625C56.6483 56.6693 58.8031 55.3644 60.3515 53.4677C61.8998 51.5709 62.7469 49.1984 62.75 46.75V28.39C62.7532 26.7334 62.1088 25.1411 60.9544 23.953V23.953ZM43.625 63.75H30.875C29.1842 63.75 27.5627 63.0784 26.3672 61.8828C25.1717 60.6873 24.5 59.0658 24.5 57.375V36.125C24.5 34.4342 25.1717 32.8127 26.3672 31.6172C27.5627 30.4217 29.1842 29.75 30.875 29.75V46.75C30.8784 49.5669 31.9989 52.2674 33.9907 54.2593C35.9826 56.2511 38.6831 57.3716 41.5 57.375H50C50 59.0658 49.3284 60.6873 48.1328 61.8828C46.9373 63.0784 45.3158 63.75 43.625 63.75ZM52.125 53.125H41.5C39.8092 53.125 38.1877 52.4534 36.9922 51.2578C35.7967 50.0623 35.125 48.4408 35.125 46.75V27.625C35.125 25.9342 35.7967 24.3127 36.9922 23.1172C38.1877 21.9217 39.8092 21.25 41.5 21.25H50V25.5C50 26.6272 50.4478 27.7082 51.2448 28.5052C52.0418 29.3022 53.1228 29.75 54.25 29.75H58.5V46.75C58.5 48.4408 57.8284 50.0623 56.6328 51.2578C55.4373 52.4534 53.8158 53.125 52.125 53.125V53.125Z" fill="white"/>
</svg>
